<svg width="44" height="42" viewBox="0 0 44 42" fill="none" xmlns="http://www.w3.org/2000/svg">
<path d="M19.3021 26.4203C19.3957 26.4976 19.3957 26.4976 19.4911 26.5763C20.0157 27.0105 20.0157 27.0105 20.26 27.2168C21.4592 28.216 22.7221 28.6617 24.2126 29.0826C24.3167 29.1122 24.4208 29.1418 24.528 29.1723C24.9271 29.2853 25.3264 29.3971 25.7264 29.5069C27.9485 30.1175 27.9485 30.1175 28.3925 30.7393C28.6246 31.2287 28.6606 31.5715 28.5212 32.0974C28.3823 32.4698 28.1807 32.6794 27.8754 32.9236C27.0385 33.2955 26.2754 33.0321 25.4421 32.7968C25.1361 32.7104 24.8292 32.6273 24.5223 32.544C24.361 32.5001 24.1996 32.4561 24.0383 32.412C23.1301 32.1641 22.2169 31.9368 21.3031 31.7103C21.075 31.6536 20.8468 31.5968 20.6186 31.5401C20.4767 31.5048 20.3346 31.4698 20.1926 31.4349C19.8878 31.36 19.5845 31.2829 19.2817 31.2C19.1853 31.1738 19.0888 31.1476 18.9895 31.1206C18.9087 31.0977 18.8279 31.0748 18.7446 31.0512C18.4624 31.0074 18.2344 31.0471 17.9566 31.1066C17.8789 31.4174 17.8547 31.6286 17.9566 31.9346C18.0726 31.9527 18.0726 31.9527 18.1909 31.9712C18.5225 32.029 18.8479 32.1008 19.1756 32.1772C19.2388 32.1918 19.3019 32.2065 19.3669 32.2217C19.5716 32.2695 19.7761 32.3176 19.9806 32.3658C20.0862 32.3907 20.0862 32.3907 20.1939 32.416C21.0214 32.611 21.8466 32.8109 22.6659 33.0386C22.7421 33.0597 22.8183 33.0809 22.8969 33.1027C23.0585 33.1476 23.2201 33.1925 23.3818 33.2374C23.9071 33.3828 24.4328 33.5264 24.9597 33.6662C25.0844 33.6996 25.209 33.7334 25.3335 33.7677C26.3408 34.0448 27.2135 34.2175 28.2071 33.826C28.4436 33.7 28.4436 33.7 28.578 33.5277C28.9261 33.1426 29.203 33.0024 29.728 32.9703C30.0182 32.9623 30.3081 32.9589 30.5984 32.959C32.0781 32.9532 33.2925 32.7562 34.6569 32.1614C35.0298 32.0041 35.4069 31.8617 35.7863 31.7211C35.8579 31.6946 35.9294 31.668 36.0032 31.6407C36.1504 31.586 36.2976 31.5314 36.4448 31.4769C37.8612 30.9494 39.2641 30.3906 40.6593 29.8095C41.2123 29.5862 41.7853 29.5321 42.3665 29.6942C42.8261 29.8991 43.1199 30.199 43.3486 30.6466C43.513 31.1869 43.4836 31.7022 43.2631 32.2196C42.8252 32.9979 41.8193 33.3188 41.0486 33.6826C40.9356 33.736 40.9356 33.736 40.8203 33.7905C40.7037 33.8456 40.7037 33.8456 40.5847 33.9018C40.4231 33.9782 40.2615 34.0546 40.0999 34.1311C40.0181 34.1696 39.9363 34.2082 39.8521 34.2479C39.3056 34.5074 38.7698 34.7822 38.2369 35.0683C37.4214 35.5053 36.5854 35.884 35.7391 36.2569C35.4927 36.3666 35.2482 36.4799 35.0042 36.595C34.8412 36.6717 34.6778 36.7477 34.5144 36.8236C34.2689 36.9377 34.025 37.0546 33.7816 37.1729C32.7862 37.6468 31.8258 37.9177 30.7446 38.1158C30.5873 38.1462 30.4301 38.1768 30.2728 38.2075C29.8877 38.2824 29.5022 38.3551 29.1165 38.427C28.6955 38.5057 28.2749 38.5868 27.8544 38.6678C27.6623 38.7045 27.4702 38.7407 27.2779 38.7762C26.7393 38.8768 26.2103 38.9999 25.6794 39.1355C25.2639 39.2384 24.8457 39.3229 24.4254 39.4038C24.3452 39.4201 24.2649 39.4364 24.1823 39.4532C23.2715 39.6292 22.591 39.5888 21.7114 39.2946C20.8626 39.0228 20.0094 38.7829 19.1469 38.5586C18.2472 38.3237 17.3598 38.0672 16.4765 37.7769C15.8007 37.5571 15.118 37.3773 14.4292 37.2029C13.732 37.0248 13.0461 36.8188 12.3593 36.6042C11.4676 36.329 10.5662 36.0927 9.66277 35.8597C9.49406 35.8158 9.49406 35.8158 9.32193 35.7709C9.2217 35.7451 9.12146 35.7194 9.01819 35.6928C8.79007 35.6246 8.59631 35.5454 8.38863 35.4306C8.32742 33.5913 8.28582 31.7523 8.28033 29.9119C8.2797 29.7235 8.27876 29.5352 8.2775 29.3468C8.27585 29.0813 8.27546 28.8158 8.27543 28.5503C8.27477 28.4712 8.27411 28.3921 8.27344 28.3106C8.27493 27.9178 8.28124 27.593 8.48063 27.2426C8.72461 27.0583 8.94734 26.9239 9.21663 26.7826C9.32183 26.7265 9.42702 26.6704 9.5354 26.6126C11.1576 25.7833 12.9784 25.2971 14.7884 25.1151C14.8607 25.1071 14.9329 25.0992 15.0074 25.091C16.689 24.9166 17.9918 25.3346 19.3021 26.4203Z" fill="#25B556"/>
<path d="M25.9447 7.56237C26.219 7.67892 26.3962 7.8558 26.6124 8.05974C26.9053 8.34621 26.9053 8.34621 27.2449 8.56574C27.2449 8.62646 27.2449 8.68718 27.2449 8.74974C27.2981 8.77441 27.3512 8.79908 27.4059 8.82449C27.618 8.93644 27.7988 9.05365 27.9809 9.20974C27.9809 9.27046 27.9809 9.33118 27.9809 9.39374C28.0322 9.41651 28.0834 9.43928 28.1362 9.46274C28.388 9.59883 28.5952 9.75573 28.8089 9.94574C28.8089 10.0065 28.8089 10.0672 28.8089 10.1297C28.864 10.1563 28.919 10.1829 28.9757 10.2102C29.1769 10.3137 29.1769 10.3137 29.4529 10.4977C29.4529 10.5585 29.4529 10.6192 29.4529 10.6817C29.5061 10.7064 29.5592 10.7311 29.6139 10.7565C29.826 10.8684 30.0068 10.9856 30.1889 11.1417C30.1889 11.2025 30.1889 11.2632 30.1889 11.3257C30.2391 11.3465 30.2893 11.3672 30.341 11.3886C30.6212 11.5458 30.8378 11.7554 31.0687 11.9755C31.6636 12.5321 32.2817 13.054 32.932 13.5456C32.9983 13.6024 33.0646 13.6592 33.1329 13.7177C33.1329 13.7785 33.1329 13.8392 33.1329 13.9017C33.183 13.9225 33.233 13.9432 33.2846 13.9646C33.5687 14.1237 33.781 14.3291 34.0184 14.5515C34.3328 14.86 34.3328 14.86 34.6969 15.0977C34.6969 15.1585 34.6969 15.2192 34.6969 15.2817C34.752 15.3083 34.807 15.3349 34.8637 15.3622C35.0649 15.4657 35.0649 15.4657 35.3409 15.6497C35.3409 15.7105 35.3409 15.7712 35.3409 15.8337C35.3897 15.8532 35.4384 15.8726 35.4886 15.8927C35.7956 16.067 36.0356 16.3049 36.2897 16.5467C36.3961 16.6467 36.5026 16.7466 36.6092 16.8465C36.6601 16.8942 36.711 16.9419 36.7634 16.991C36.9366 17.151 37.115 17.304 37.2959 17.4552C37.5489 17.6737 37.5489 17.6737 37.6409 17.8577C37.6505 18.0168 37.6542 18.1762 37.6551 18.3356C37.6559 18.4368 37.6567 18.5381 37.6575 18.6424C37.6581 18.8098 37.6581 18.8098 37.6587 18.9806C37.6598 19.1563 37.6598 19.1563 37.661 19.3355C37.6634 19.7245 37.6648 20.1134 37.6661 20.5024C37.6666 20.6362 37.6671 20.77 37.6676 20.9037C37.6696 21.4601 37.6713 22.0164 37.6723 22.5727C37.6738 23.3707 37.6769 24.1686 37.6821 24.9666C37.6857 25.5274 37.6875 26.0881 37.688 26.6489C37.6883 26.984 37.6894 27.3191 37.6924 27.6542C37.6957 28.0278 37.6953 28.4014 37.6946 28.775C37.6961 28.8864 37.6976 28.9978 37.6992 29.1126C37.698 29.2649 37.698 29.2649 37.6969 29.4202C37.6973 29.5528 37.6973 29.5528 37.6978 29.6881C37.6409 29.9097 37.6409 29.9097 37.4211 30.0724C37.194 30.1796 36.9693 30.2774 36.7339 30.3647C36.6474 30.397 36.561 30.4292 36.472 30.4625C36.3796 30.4964 36.2872 30.5303 36.1919 30.5652C36.096 30.6008 36 30.6364 35.9011 30.6731C35.592 30.7873 35.2825 30.9007 34.9729 31.0137C34.8134 31.072 34.8134 31.072 34.6506 31.1315C34.3365 31.246 34.0223 31.36 33.7079 31.4737C33.61 31.5092 33.5121 31.5447 33.4112 31.5812C33.3198 31.6141 33.2285 31.6469 33.1344 31.6807C33.054 31.7097 32.9736 31.7386 32.8908 31.7684C32.539 31.8868 32.239 31.9451 31.8665 31.9427C31.7847 31.9424 31.7028 31.9421 31.6185 31.9418C31.5339 31.9411 31.4492 31.9403 31.3619 31.9395C31.2758 31.9391 31.1897 31.9387 31.101 31.9382C30.889 31.9372 30.677 31.9356 30.4649 31.9337C30.4648 31.8707 30.4647 31.8076 30.4645 31.7426C30.4611 30.2044 30.4557 28.6662 30.448 27.1281C30.4444 26.3842 30.4414 25.6404 30.44 24.8965C30.4388 24.2478 30.4363 23.5991 30.4323 22.9503C30.4302 22.6072 30.4288 22.264 30.4289 21.9209C30.429 21.5368 30.4262 21.1528 30.4232 20.7687C30.4236 20.6562 30.4241 20.5438 30.4246 20.4278C30.4127 19.4467 30.1973 18.6671 29.5607 17.9091C29.4529 17.7657 29.4529 17.7657 29.4529 17.5817C29.3922 17.5817 29.3315 17.5817 29.2689 17.5817C29.2689 17.521 29.2689 17.4603 29.2689 17.3977C29.2082 17.3977 29.1475 17.3977 29.0849 17.3977C29.0849 17.337 29.0849 17.2763 29.0849 17.2137C29.0204 17.191 28.9559 17.1682 28.8894 17.1447C28.6249 17.0297 28.6249 17.0297 28.3834 16.8572C27.6025 16.3655 26.8344 16.2291 25.9224 16.242C25.7708 16.2435 25.7708 16.2435 25.616 16.245C24.3819 16.278 23.4945 16.6758 22.5529 17.4897C22.5226 17.5505 22.4922 17.6112 22.4609 17.6737C22.4002 17.6737 22.3395 17.6737 22.2769 17.6737C22.2399 17.7477 22.2399 17.7477 22.2022 17.8232C21.5409 19.1457 21.5409 19.1457 21.4425 19.3046C21.3215 19.6005 21.3309 19.8613 21.3276 20.1805C21.3267 20.2469 21.3258 20.3134 21.3248 20.3819C21.322 20.6009 21.3204 20.8199 21.3188 21.0389C21.3171 21.191 21.3153 21.3432 21.3134 21.4953C21.3087 21.8951 21.3051 22.295 21.3017 22.6949C21.298 23.1032 21.2933 23.5114 21.2887 23.9197C21.2798 24.7204 21.272 25.521 21.2649 26.3217C21.0828 26.4128 21.0828 26.4128 20.8969 26.5057C20.8378 26.4556 20.7786 26.4054 20.7176 26.3537C18.7587 24.719 17.1266 23.9663 14.5281 24.1946C14.4439 24.1983 14.3597 24.202 14.2729 24.2057C14.1026 24.0354 14.1656 23.7559 14.1632 23.5279C14.1621 23.4361 14.1621 23.4361 14.1609 23.3424C14.1586 23.1391 14.1571 22.9357 14.1558 22.7323C14.1553 22.6629 14.1548 22.5936 14.1543 22.5221C14.1518 22.1547 14.1501 21.7873 14.1487 21.4199C14.1472 21.0405 14.1431 20.6612 14.1384 20.2818C14.1353 19.9901 14.1342 19.6984 14.1337 19.4067C14.1331 19.2668 14.1317 19.127 14.1295 18.9872C14.1266 18.7911 14.1266 18.5953 14.1273 18.3992C14.1265 18.2878 14.1258 18.1763 14.125 18.0614C14.1967 17.6826 14.351 17.5506 14.6409 17.3057C14.6892 17.2598 14.7375 17.2138 14.7872 17.1665C14.9223 17.0422 15.0575 16.9179 15.1929 16.794C15.2397 16.7509 15.2864 16.7078 15.3345 16.6634C16.1392 15.9257 16.1392 15.9257 16.3889 15.9257C16.3889 15.865 16.3889 15.8043 16.3889 15.7417C16.5402 15.5861 16.5402 15.5861 16.7397 15.414C16.8373 15.3284 16.8373 15.3284 16.937 15.2411C17.1249 15.0977 17.1249 15.0977 17.4009 15.0057C17.4465 14.8691 17.4465 14.8691 17.4929 14.7297C17.6676 14.5741 17.6676 14.5741 17.8954 14.402C18.2489 14.1275 18.5844 13.8432 18.9132 13.5395C19.3319 13.154 19.7638 12.7906 20.2062 12.4326C20.584 12.1266 20.9555 11.8192 21.2994 11.4752C21.5188 11.2559 21.7425 11.0454 21.9722 10.837C22.0427 10.7728 22.1133 10.7087 22.186 10.6426C22.3689 10.4977 22.3689 10.4977 22.5529 10.4977C22.5529 10.437 22.5529 10.3763 22.5529 10.3137C22.8714 10.0377 22.8714 10.0377 23.1049 10.0377C23.1049 9.97702 23.1049 9.9163 23.1049 9.85374C23.2393 9.71502 23.2393 9.71502 23.4154 9.56624C23.4731 9.51667 23.5307 9.4671 23.5901 9.41602C23.7489 9.30174 23.7489 9.30174 23.9329 9.30174C23.9329 9.24102 23.9329 9.1803 23.9329 9.11774C23.9937 9.11774 24.0544 9.11774 24.1169 9.11774C24.1169 9.05702 24.1169 8.9963 24.1169 8.93374C24.1909 8.90907 24.2649 8.88441 24.3412 8.85899C24.419 8.82294 24.4968 8.78689 24.5769 8.74974C24.6073 8.65866 24.6377 8.56758 24.6689 8.47374C24.8123 8.32604 24.8123 8.32604 24.9852 8.18049C25.042 8.13175 25.0988 8.08301 25.1573 8.03279C25.3129 7.92174 25.3129 7.92174 25.4969 7.92174C25.4969 7.86102 25.4969 7.8003 25.4969 7.73774C25.7729 7.55374 25.7729 7.55374 25.9447 7.56237Z" fill="#25B556"/>
<path d="M14.9934 0C15.1046 0.000481787 15.2159 0.000963574 15.3306 0.00145996C15.4507 0.00175645 15.5708 0.00205293 15.6945 0.0023584C15.8222 0.00312721 15.95 0.00390598 16.0777 0.00469434C16.2059 0.00515556 16.334 0.00557538 16.4621 0.00595215C16.7767 0.00704086 17.0914 0.00855753 17.406 0.0104443C17.5472 0.26816 17.6227 0.490939 17.6691 0.780585C17.6826 0.856188 17.6961 0.931792 17.71 1.00969C17.7372 1.16711 17.7631 1.32476 17.7876 1.48262C17.8581 1.86383 17.9167 2.13668 18.216 2.39741C18.4778 2.56574 18.7139 2.7012 19.0045 2.81069C19.0849 2.84283 19.1653 2.87497 19.2481 2.90808C19.8375 3.00786 20.288 2.7811 20.7581 2.45545C20.8667 2.37707 20.9753 2.29848 21.0837 2.2197C21.4899 1.93911 21.4899 1.93911 21.7691 1.9557C22.231 2.10925 22.5334 2.50563 22.8685 2.84519C22.9462 2.92068 23.0238 2.99616 23.1039 3.07394C23.1768 3.14705 23.2498 3.22016 23.3249 3.29549C23.3918 3.36236 23.4588 3.42922 23.5277 3.49811C23.662 3.69044 23.662 3.69044 23.6465 3.883C23.3463 4.57151 22.851 5.22676 22.282 5.71444C22.2213 5.71444 22.1606 5.71444 22.098 5.71444C22.098 5.77516 22.098 5.83588 22.098 5.89844C21.9596 6.03788 21.9596 6.03788 21.7702 6.19744C21.4728 6.44827 21.4728 6.44827 21.1827 6.7074C21.128 6.75732 21.0733 6.80725 21.017 6.85869C20.9681 6.90412 20.9193 6.94954 20.8689 6.99633C20.718 7.09444 20.718 7.09444 20.35 7.09444C20.1653 6.87882 20.1653 6.87882 19.9705 6.58844C19.3214 5.67299 18.559 5.16096 17.498 4.79444C17.4369 4.77179 17.3758 4.74914 17.3129 4.7258C16.0749 4.3364 14.7905 4.66714 13.6685 5.22569C13.5971 5.264 13.5257 5.30231 13.4521 5.34177C13.266 5.43844 13.266 5.43844 12.99 5.53044C12.99 5.59116 12.99 5.65188 12.99 5.71444C12.8076 5.86968 12.6235 6.02298 12.438 6.17444C12.4076 6.23516 12.3773 6.29588 12.346 6.35844C12.2853 6.35844 12.2246 6.35844 12.162 6.35844C12.1373 6.42343 12.1127 6.48842 12.0872 6.55538C11.9735 6.8292 11.8406 7.08543 11.702 7.34744C11.1246 8.50637 11.0827 9.76761 11.4019 11.0242C11.5883 11.5096 11.8688 11.9234 12.1656 12.3478C12.346 12.6144 12.346 12.6144 12.438 12.8904C12.4987 12.8904 12.5594 12.8904 12.622 12.8904C12.622 12.9512 12.622 13.0119 12.622 13.0744C12.6789 13.1029 12.7358 13.1314 12.7945 13.1607C12.921 13.2239 13.0475 13.2872 13.174 13.3504C13.1466 13.648 13.112 13.7806 12.8969 13.9944C12.7751 14.0855 12.7751 14.0855 12.6507 14.1784C12.2164 14.5166 11.8096 14.8708 11.4087 15.2479C11.3264 15.3247 11.3264 15.3247 11.2423 15.4031C11.0105 15.6192 10.7801 15.8363 10.5527 16.0573C10.4899 16.1166 10.427 16.1758 10.3622 16.2369C10.3109 16.287 10.2595 16.337 10.2066 16.3886C10.046 16.4784 10.046 16.4784 9.80952 16.4587C9.53108 16.3687 9.40186 16.2432 9.21799 16.0184C9.21799 15.9577 9.21799 15.897 9.21799 15.8344C9.15727 15.8344 9.09655 15.8344 9.03399 15.8344C9.03399 15.7737 9.03399 15.713 9.03399 15.6504C8.97327 15.6504 8.91255 15.6504 8.84999 15.6504C8.84999 15.5897 8.84999 15.529 8.84999 15.4664C8.78927 15.4664 8.72855 15.4664 8.66599 15.4664C8.66599 15.4057 8.66599 15.345 8.66599 15.2824C8.60527 15.2824 8.54455 15.2824 8.48199 15.2824C8.53248 14.8997 8.65435 14.6755 8.88449 14.3682C9.29463 13.7989 9.53751 13.426 9.49399 12.7064C9.40177 12.3883 9.40177 12.3883 9.25824 12.0854C9.21448 11.9835 9.17072 11.8815 9.12563 11.7764C8.75496 11.2396 8.08611 11.1692 7.48149 11.0389C6.7452 10.8776 6.7452 10.8776 6.64199 10.7744C6.63392 10.577 6.63215 10.3794 6.63301 10.1818C6.6333 10.0618 6.6336 9.94168 6.63391 9.81797C6.63468 9.69021 6.63545 9.56245 6.63624 9.43469C6.6367 9.30658 6.63712 9.17846 6.6375 9.05034C6.63859 8.73571 6.64011 8.42108 6.64199 8.10644C7.14785 7.93355 7.65089 7.82297 8.17473 7.71832C8.73187 7.60529 8.73187 7.60529 9.10766 7.20873C9.49295 6.3975 9.49295 6.3975 9.49399 5.53044C9.27154 5.06792 8.98191 4.66083 8.67174 4.25394C8.48199 3.96644 8.48199 3.96644 8.50023 3.78206C8.58262 3.57696 8.67024 3.47034 8.82843 3.31705C8.88002 3.26635 8.93161 3.21566 8.98476 3.16342C9.03896 3.11154 9.09315 3.05965 9.14899 3.00619C9.20177 2.95467 9.25454 2.90314 9.30891 2.85005C9.41306 2.74839 9.51769 2.64723 9.62283 2.5466C9.75839 2.41381 9.88747 2.27449 10.0158 2.13471C10.23 1.94244 10.23 1.94244 10.598 1.94244C10.7661 2.02544 10.7661 2.02544 10.9365 2.14046C10.9993 2.18155 11.062 2.22265 11.1266 2.26498C11.2565 2.35235 11.3864 2.43979 11.5162 2.52733C11.8819 2.76665 12.1719 2.94718 12.622 2.95444C12.9295 2.8812 12.9295 2.8812 13.2315 2.75319C13.3332 2.71394 13.435 2.67469 13.5398 2.63424C13.8964 2.45503 14.1289 2.28278 14.2685 1.90033C14.2937 1.77691 14.2937 1.77691 14.3193 1.65099C14.3385 1.56127 14.3576 1.47156 14.3774 1.37912C14.3958 1.28609 14.4142 1.19305 14.4332 1.09719C14.4717 0.911822 14.5104 0.726501 14.5493 0.541241C14.5658 0.459271 14.5822 0.3773 14.5992 0.292846C14.6701 0.00436481 14.6866 0.0125455 14.9934 0Z" fill="#25B556"/>
<path d="M0.268617 21.1592C0.340325 21.1594 0.412033 21.1596 0.485914 21.1598C0.607469 21.1598 0.607469 21.1598 0.73148 21.1598C0.819551 21.1603 0.907621 21.1608 0.99836 21.1613C1.13294 21.1615 1.13294 21.1615 1.27024 21.1617C1.55804 21.1622 1.84583 21.1633 2.13363 21.1645C2.32823 21.165 2.52283 21.1654 2.71743 21.1658C3.19558 21.1668 3.67373 21.1683 4.15188 21.1702C4.15402 23.7716 4.15565 26.373 4.15664 28.9744C4.15712 30.1822 4.15777 31.39 4.15882 32.5978C4.15973 33.65 4.16033 34.7023 4.16053 35.7546C4.16065 36.3122 4.16094 36.8697 4.1616 37.4273C4.16222 37.9514 4.16242 38.4755 4.16228 38.9996C4.16231 39.1926 4.16249 39.3856 4.16284 39.5786C4.1633 39.8408 4.16319 40.103 4.16294 40.3653C4.16321 40.4427 4.16347 40.5201 4.16375 40.5998C4.16237 41.1237 4.16237 41.1237 4.05988 41.2262C3.79213 41.2367 3.52665 41.2413 3.25883 41.2417C3.17815 41.242 3.09747 41.2423 3.01435 41.2426C2.84319 41.2431 2.67204 41.2433 2.50088 41.2433C2.23919 41.2435 1.97754 41.2452 1.71585 41.2469C1.54976 41.2472 1.38367 41.2474 1.21758 41.2474C1.13927 41.2481 1.06096 41.2488 0.980283 41.2494C0.870256 41.249 0.870256 41.249 0.758005 41.2486C0.693725 41.2487 0.629445 41.2489 0.563217 41.249C0.348681 41.2224 0.202058 41.1421 0.0118755 41.0422C0.00972954 38.4648 0.00810555 35.8874 0.00710876 33.31C0.00663369 32.1134 0.00598563 30.9168 0.00493505 29.7201C0.00402015 28.6775 0.00342501 27.635 0.00321933 26.5924C0.00309904 26.04 0.00281492 25.4876 0.00214831 24.9351C0.00152671 24.4159 0.00133065 23.8966 0.00146957 23.3773C0.00144413 23.1861 0.00125946 22.9949 0.000908571 22.8037C0.00045487 22.5439 0.000559448 22.2841 0.000812059 22.0242C0.000544078 21.9475 0.000276102 21.8708 0 21.7918C0.0016299 21.1771 0.00162989 21.1771 0.268617 21.1592Z" fill="#25B556"/>
<path d="M28.2551 17.8578C28.2551 17.9185 28.2551 17.9792 28.2551 18.0418C28.3375 18.077 28.3375 18.077 28.4215 18.1129C28.6449 18.238 28.7524 18.3551 28.9049 18.5593C28.9496 18.6174 28.9943 18.6755 29.0404 18.7354C29.4438 19.4131 29.4903 19.9968 29.4825 20.7694C29.4825 20.9271 29.4825 20.9271 29.4826 21.0879C29.4824 21.4334 29.4802 21.7788 29.4781 22.1243C29.4776 22.3646 29.4772 22.6048 29.4769 22.8451C29.476 23.4117 29.4738 23.9783 29.471 24.5449C29.4679 25.1903 29.4664 25.8358 29.465 26.4812C29.4621 27.8081 29.4573 29.1349 29.4511 30.4618C29.0695 30.2846 28.9326 30.0837 28.7108 29.7322C28.2819 29.2776 27.624 29.0973 27.0419 28.9093C26.9357 28.8744 26.9357 28.8744 26.8275 28.8388C26.2018 28.6361 25.5702 28.4557 24.937 28.2778C24.3612 28.1156 23.7888 27.9444 23.2181 27.765C23.143 27.7416 23.0679 27.7182 22.9905 27.694C22.4705 27.5291 22.4705 27.5291 22.3671 27.4258C22.3564 27.1833 22.3517 26.9433 22.3508 26.7007C22.3502 26.6247 22.3496 26.5487 22.349 26.4704C22.3472 26.2176 22.3461 25.9647 22.3452 25.7119C22.3448 25.6256 22.3444 25.5393 22.3441 25.4504C22.3421 24.9933 22.3408 24.5361 22.34 24.0789C22.339 23.6073 22.3358 23.1358 22.3321 22.6642C22.3297 22.3013 22.329 21.9383 22.3286 21.5753C22.3282 21.4015 22.3271 21.2278 22.3254 21.054C22.3232 20.8101 22.3232 20.5662 22.3239 20.3222C22.3227 20.251 22.3215 20.1798 22.3203 20.1064C22.3283 19.264 22.7606 18.673 23.3213 18.0727C24.8093 16.7504 26.6292 16.9655 28.2551 17.8578Z" fill="#25B556"/>
<path d="M19.3021 26.4203C19.3957 26.4976 19.3957 26.4976 19.4911 26.5763C20.0157 27.0105 20.0157 27.0105 20.26 27.2168C21.4592 28.216 22.7221 28.6617 24.2126 29.0826C24.3167 29.1122 24.4208 29.1418 24.528 29.1723C24.9271 29.2853 25.3264 29.3971 25.7264 29.5069C27.9485 30.1175 27.9485 30.1175 28.3925 30.7393C28.6246 31.2287 28.6606 31.5715 28.5212 32.0974C28.3823 32.4698 28.1807 32.6794 27.8754 32.9236C27.0385 33.2955 26.2754 33.0321 25.4421 32.7968C25.1361 32.7104 24.8292 32.6273 24.5223 32.544C24.361 32.5001 24.1996 32.4561 24.0383 32.412C23.1301 32.1641 22.2169 31.9368 21.3031 31.7103C21.075 31.6536 20.8468 31.5968 20.6186 31.5401C20.4767 31.5048 20.3346 31.4698 20.1926 31.4349C19.8878 31.36 19.5845 31.2829 19.2817 31.2C19.1853 31.1738 19.0888 31.1476 18.9895 31.1206C18.9087 31.0977 18.8279 31.0748 18.7446 31.0512C18.4624 31.0074 18.2344 31.0471 17.9566 31.1066C17.8789 31.4174 17.8547 31.6286 17.9566 31.9346C18.0726 31.9527 18.0726 31.9527 18.1909 31.9712C18.5225 32.029 18.8479 32.1008 19.1756 32.1772C19.2388 32.1918 19.3019 32.2065 19.3669 32.2217C19.5716 32.2695 19.7761 32.3176 19.9806 32.3658C20.0862 32.3907 20.0862 32.3907 20.1939 32.416C21.0214 32.611 21.8466 32.8109 22.6659 33.0386C22.7421 33.0597 22.8183 33.0809 22.8969 33.1027C23.0585 33.1476 23.2201 33.1925 23.3818 33.2374C23.9071 33.3828 24.4328 33.5264 24.9597 33.6662C25.0844 33.6996 25.209 33.7334 25.3335 33.7677C26.3408 34.0448 27.2135 34.2175 28.2071 33.826C28.4436 33.7 28.4436 33.7 28.578 33.5277C28.9261 33.1426 29.203 33.0024 29.728 32.9703C30.0182 32.9623 30.3081 32.9589 30.5984 32.959C32.0781 32.9532 33.2925 32.7562 34.6569 32.1614C35.0298 32.0041 35.4069 31.8617 35.7863 31.7211C35.8579 31.6946 35.9294 31.668 36.0032 31.6407C36.1504 31.586 36.2976 31.5314 36.4448 31.4769C37.8612 30.9494 39.2641 30.3906 40.6593 29.8095C41.2123 29.5862 41.7853 29.5321 42.3665 29.6942C42.8261 29.8991 43.1199 30.199 43.3486 30.6466C43.513 31.1869 43.4836 31.7022 43.2631 32.2196C42.8252 32.9979 41.8193 33.3188 41.0486 33.6826C40.9356 33.736 40.9356 33.736 40.8203 33.7905C40.7037 33.8456 40.7037 33.8456 40.5847 33.9018C40.4231 33.9782 40.2615 34.0546 40.0999 34.1311C40.0181 34.1696 39.9363 34.2082 39.8521 34.2479C39.3056 34.5074 38.7698 34.7822 38.2369 35.0683C37.4214 35.5053 36.5854 35.884 35.7391 36.2569C35.4927 36.3666 35.2482 36.4799 35.0042 36.595C34.8412 36.6717 34.6778 36.7477 34.5144 36.8236C34.2689 36.9377 34.025 37.0546 33.7816 37.1729C32.7862 37.6468 31.8258 37.9177 30.7446 38.1158C30.5873 38.1462 30.4301 38.1768 30.2728 38.2075C29.8877 38.2824 29.5022 38.3551 29.1165 38.427C28.6955 38.5057 28.2749 38.5868 27.8544 38.6678C27.6623 38.7045 27.4702 38.7407 27.2779 38.7762C26.7393 38.8768 26.2103 38.9999 25.6794 39.1355C25.2639 39.2384 24.8457 39.3229 24.4254 39.4038C24.3452 39.4201 24.2649 39.4364 24.1823 39.4532C23.2715 39.6292 22.591 39.5888 21.7114 39.2946C20.8626 39.0228 20.0094 38.7829 19.1469 38.5586C18.2472 38.3237 17.3598 38.0672 16.4765 37.7769C15.8007 37.5571 15.118 37.3773 14.4292 37.2029C13.732 37.0248 13.0461 36.8188 12.3593 36.6042C11.4676 36.329 10.5662 36.0927 9.66277 35.8597C9.49406 35.8158 9.49406 35.8158 9.32193 35.7709C9.2217 35.7451 9.12146 35.7194 9.01819 35.6928C8.79007 35.6246 8.59631 35.5454 8.38863 35.4306C8.32742 33.5913 8.28582 31.7523 8.28033 29.9119C8.2797 29.7235 8.27876 29.5352 8.2775 29.3468C8.27585 29.0813 8.27546 28.8158 8.27543 28.5503C8.27477 28.4712 8.27411 28.3921 8.27344 28.3106C8.27493 27.9178 8.28124 27.593 8.48063 27.2426C8.72461 27.0583 8.94734 26.9239 9.21663 26.7826C9.32183 26.7265 9.42702 26.6704 9.5354 26.6126C11.1576 25.7833 12.9784 25.2971 14.7884 25.1151C14.8607 25.1071 14.9329 25.0992 15.0074 25.091C16.689 24.9166 17.9918 25.3346 19.3021 26.4203Z" fill="#25B556"/>
<path d="M25.9447 7.56237C26.219 7.67892 26.3962 7.8558 26.6124 8.05974C26.9053 8.34621 26.9053 8.34621 27.2449 8.56574C27.2449 8.62646 27.2449 8.68718 27.2449 8.74974C27.2981 8.77441 27.3512 8.79908 27.4059 8.82449C27.618 8.93644 27.7988 9.05365 27.9809 9.20974C27.9809 9.27046 27.9809 9.33118 27.9809 9.39374C28.0322 9.41651 28.0834 9.43928 28.1362 9.46274C28.388 9.59883 28.5952 9.75573 28.8089 9.94574C28.8089 10.0065 28.8089 10.0672 28.8089 10.1297C28.864 10.1563 28.919 10.1829 28.9757 10.2102C29.1769 10.3137 29.1769 10.3137 29.4529 10.4977C29.4529 10.5585 29.4529 10.6192 29.4529 10.6817C29.5061 10.7064 29.5592 10.7311 29.6139 10.7565C29.826 10.8684 30.0068 10.9856 30.1889 11.1417C30.1889 11.2025 30.1889 11.2632 30.1889 11.3257C30.2391 11.3465 30.2893 11.3672 30.341 11.3886C30.6212 11.5458 30.8378 11.7554 31.0687 11.9755C31.6636 12.5321 32.2817 13.054 32.932 13.5456C32.9983 13.6024 33.0646 13.6592 33.1329 13.7177C33.1329 13.7785 33.1329 13.8392 33.1329 13.9017C33.183 13.9225 33.233 13.9432 33.2846 13.9646C33.5687 14.1237 33.781 14.3291 34.0184 14.5515C34.3328 14.86 34.3328 14.86 34.6969 15.0977C34.6969 15.1585 34.6969 15.2192 34.6969 15.2817C34.752 15.3083 34.807 15.3349 34.8637 15.3622C35.0649 15.4657 35.0649 15.4657 35.3409 15.6497C35.3409 15.7105 35.3409 15.7712 35.3409 15.8337C35.3897 15.8532 35.4384 15.8726 35.4886 15.8927C35.7956 16.067 36.0356 16.3049 36.2897 16.5467C36.3961 16.6467 36.5026 16.7466 36.6092 16.8465C36.6601 16.8942 36.711 16.9419 36.7634 16.991C36.9366 17.151 37.115 17.304 37.2959 17.4552C37.5489 17.6737 37.5489 17.6737 37.6409 17.8577C37.6505 18.0168 37.6542 18.1762 37.6551 18.3356C37.6559 18.4368 37.6567 18.5381 37.6575 18.6424C37.6581 18.8098 37.6581 18.8098 37.6587 18.9806C37.6598 19.1563 37.6598 19.1563 37.661 19.3355C37.6634 19.7245 37.6648 20.1134 37.6661 20.5024C37.6666 20.6362 37.6671 20.77 37.6676 20.9037C37.6696 21.4601 37.6713 22.0164 37.6723 22.5727C37.6738 23.3707 37.6769 24.1686 37.6821 24.9666C37.6857 25.5274 37.6875 26.0881 37.688 26.6489C37.6883 26.984 37.6894 27.3191 37.6924 27.6542C37.6957 28.0278 37.6953 28.4014 37.6946 28.775C37.6961 28.8864 37.6976 28.9978 37.6992 29.1126C37.698 29.2649 37.698 29.2649 37.6969 29.4202C37.6973 29.5528 37.6973 29.5528 37.6978 29.6881C37.6409 29.9097 37.6409 29.9097 37.4211 30.0724C37.194 30.1796 36.9693 30.2774 36.7339 30.3647C36.6474 30.397 36.561 30.4292 36.472 30.4625C36.3796 30.4964 36.2872 30.5303 36.1919 30.5652C36.096 30.6008 36 30.6364 35.9011 30.6731C35.592 30.7873 35.2825 30.9007 34.9729 31.0137C34.8134 31.072 34.8134 31.072 34.6506 31.1315C34.3365 31.246 34.0223 31.36 33.7079 31.4737C33.61 31.5092 33.5121 31.5447 33.4112 31.5812C33.3198 31.6141 33.2285 31.6469 33.1344 31.6807C33.054 31.7097 32.9736 31.7386 32.8908 31.7684C32.539 31.8868 32.239 31.9451 31.8665 31.9427C31.7847 31.9424 31.7028 31.9421 31.6185 31.9418C31.5339 31.9411 31.4492 31.9403 31.3619 31.9395C31.2758 31.9391 31.1897 31.9387 31.101 31.9382C30.889 31.9372 30.677 31.9356 30.4649 31.9337C30.4648 31.8707 30.4647 31.8076 30.4645 31.7426C30.4611 30.2044 30.4557 28.6662 30.448 27.1281C30.4444 26.3842 30.4414 25.6404 30.44 24.8965C30.4388 24.2478 30.4363 23.5991 30.4323 22.9503C30.4302 22.6072 30.4288 22.264 30.4289 21.9209C30.429 21.5368 30.4262 21.1528 30.4232 20.7687C30.4236 20.6562 30.4241 20.5438 30.4246 20.4278C30.4127 19.4467 30.1973 18.6671 29.5607 17.9091C29.4529 17.7657 29.4529 17.7657 29.4529 17.5817C29.3922 17.5817 29.3315 17.5817 29.2689 17.5817C29.2689 17.521 29.2689 17.4603 29.2689 17.3977C29.2082 17.3977 29.1475 17.3977 29.0849 17.3977C29.0849 17.337 29.0849 17.2763 29.0849 17.2137C29.0204 17.191 28.9559 17.1682 28.8894 17.1447C28.6249 17.0297 28.6249 17.0297 28.3834 16.8572C27.6025 16.3655 26.8344 16.2291 25.9224 16.242C25.7708 16.2435 25.7708 16.2435 25.616 16.245C24.3819 16.278 23.4945 16.6758 22.5529 17.4897C22.5226 17.5505 22.4922 17.6112 22.4609 17.6737C22.4002 17.6737 22.3395 17.6737 22.2769 17.6737C22.2399 17.7477 22.2399 17.7477 22.2022 17.8232C21.5409 19.1457 21.5409 19.1457 21.4425 19.3046C21.3215 19.6005 21.3309 19.8613 21.3276 20.1805C21.3267 20.2469 21.3258 20.3134 21.3248 20.3819C21.322 20.6009 21.3204 20.8199 21.3188 21.0389C21.3171 21.191 21.3153 21.3432 21.3134 21.4953C21.3087 21.8951 21.3051 22.295 21.3017 22.6949C21.298 23.1032 21.2933 23.5114 21.2887 23.9197C21.2798 24.7204 21.272 25.521 21.2649 26.3217C21.0828 26.4128 21.0828 26.4128 20.8969 26.5057C20.8378 26.4556 20.7786 26.4054 20.7176 26.3537C18.7587 24.719 17.1266 23.9663 14.5281 24.1946C14.4439 24.1983 14.3597 24.202 14.2729 24.2057C14.1026 24.0354 14.1656 23.7559 14.1632 23.5279C14.1621 23.4361 14.1621 23.4361 14.1609 23.3424C14.1586 23.1391 14.1571 22.9357 14.1558 22.7323C14.1553 22.6629 14.1548 22.5936 14.1543 22.5221C14.1518 22.1547 14.1501 21.7873 14.1487 21.4199C14.1472 21.0405 14.1431 20.6612 14.1384 20.2818C14.1353 19.9901 14.1342 19.6984 14.1337 19.4067C14.1331 19.2668 14.1317 19.127 14.1295 18.9872C14.1266 18.7911 14.1266 18.5953 14.1273 18.3992C14.1265 18.2878 14.1258 18.1763 14.125 18.0614C14.1967 17.6826 14.351 17.5506 14.6409 17.3057C14.6892 17.2598 14.7375 17.2138 14.7872 17.1665C14.9223 17.0422 15.0575 16.9179 15.1929 16.794C15.2397 16.7509 15.2864 16.7078 15.3345 16.6634C16.1392 15.9257 16.1392 15.9257 16.3889 15.9257C16.3889 15.865 16.3889 15.8043 16.3889 15.7417C16.5402 15.5861 16.5402 15.5861 16.7397 15.414C16.8373 15.3284 16.8373 15.3284 16.937 15.2411C17.1249 15.0977 17.1249 15.0977 17.4009 15.0057C17.4465 14.8691 17.4465 14.8691 17.4929 14.7297C17.6676 14.5741 17.6676 14.5741 17.8954 14.402C18.2489 14.1275 18.5844 13.8432 18.9132 13.5395C19.3319 13.154 19.7638 12.7906 20.2062 12.4326C20.584 12.1266 20.9555 11.8192 21.2994 11.4752C21.5188 11.2559 21.7425 11.0454 21.9722 10.837C22.0427 10.7728 22.1133 10.7087 22.186 10.6426C22.3689 10.4977 22.3689 10.4977 22.5529 10.4977C22.5529 10.437 22.5529 10.3763 22.5529 10.3137C22.8714 10.0377 22.8714 10.0377 23.1049 10.0377C23.1049 9.97702 23.1049 9.9163 23.1049 9.85374C23.2393 9.71502 23.2393 9.71502 23.4154 9.56624C23.4731 9.51667 23.5307 9.4671 23.5901 9.41602C23.7489 9.30174 23.7489 9.30174 23.9329 9.30174C23.9329 9.24102 23.9329 9.1803 23.9329 9.11774C23.9937 9.11774 24.0544 9.11774 24.1169 9.11774C24.1169 9.05702 24.1169 8.9963 24.1169 8.93374C24.1909 8.90907 24.2649 8.88441 24.3412 8.85899C24.419 8.82294 24.4968 8.78689 24.5769 8.74974C24.6073 8.65866 24.6377 8.56758 24.6689 8.47374C24.8123 8.32604 24.8123 8.32604 24.9852 8.18049C25.042 8.13175 25.0988 8.08301 25.1573 8.03279C25.3129 7.92174 25.3129 7.92174 25.4969 7.92174C25.4969 7.86102 25.4969 7.8003 25.4969 7.73774C25.7729 7.55374 25.7729 7.55374 25.9447 7.56237Z" fill="#25B556"/>
<path d="M14.9934 0C15.1046 0.000481787 15.2159 0.000963574 15.3306 0.00145996C15.4507 0.00175645 15.5708 0.00205293 15.6945 0.0023584C15.8222 0.00312721 15.95 0.00390598 16.0777 0.00469434C16.2059 0.00515556 16.334 0.00557538 16.4621 0.00595215C16.7767 0.00704086 17.0914 0.00855753 17.406 0.0104443C17.5472 0.26816 17.6227 0.490939 17.6691 0.780585C17.6826 0.856188 17.6961 0.931792 17.71 1.00969C17.7372 1.16711 17.7631 1.32476 17.7876 1.48262C17.8581 1.86383 17.9167 2.13668 18.216 2.39741C18.4778 2.56574 18.7139 2.7012 19.0045 2.81069C19.0849 2.84283 19.1653 2.87497 19.2481 2.90808C19.8375 3.00786 20.288 2.7811 20.7581 2.45545C20.8667 2.37707 20.9753 2.29848 21.0837 2.2197C21.4899 1.93911 21.4899 1.93911 21.7691 1.9557C22.231 2.10925 22.5334 2.50563 22.8685 2.84519C22.9462 2.92068 23.0238 2.99616 23.1039 3.07394C23.1768 3.14705 23.2498 3.22016 23.3249 3.29549C23.3918 3.36236 23.4588 3.42922 23.5277 3.49811C23.662 3.69044 23.662 3.69044 23.6465 3.883C23.3463 4.57151 22.851 5.22676 22.282 5.71444C22.2213 5.71444 22.1606 5.71444 22.098 5.71444C22.098 5.77516 22.098 5.83588 22.098 5.89844C21.9596 6.03788 21.9596 6.03788 21.7702 6.19744C21.4728 6.44827 21.4728 6.44827 21.1827 6.7074C21.128 6.75732 21.0733 6.80725 21.017 6.85869C20.9681 6.90412 20.9193 6.94954 20.8689 6.99633C20.718 7.09444 20.718 7.09444 20.35 7.09444C20.1653 6.87882 20.1653 6.87882 19.9705 6.58844C19.3214 5.67299 18.559 5.16096 17.498 4.79444C17.4369 4.77179 17.3758 4.74914 17.3129 4.7258C16.0749 4.3364 14.7905 4.66714 13.6685 5.22569C13.5971 5.264 13.5257 5.30231 13.4521 5.34177C13.266 5.43844 13.266 5.43844 12.99 5.53044C12.99 5.59116 12.99 5.65188 12.99 5.71444C12.8076 5.86968 12.6235 6.02298 12.438 6.17444C12.4076 6.23516 12.3773 6.29588 12.346 6.35844C12.2853 6.35844 12.2246 6.35844 12.162 6.35844C12.1373 6.42343 12.1127 6.48842 12.0872 6.55538C11.9735 6.8292 11.8406 7.08543 11.702 7.34744C11.1246 8.50637 11.0827 9.76761 11.4019 11.0242C11.5883 11.5096 11.8688 11.9234 12.1656 12.3478C12.346 12.6144 12.346 12.6144 12.438 12.8904C12.4987 12.8904 12.5594 12.8904 12.622 12.8904C12.622 12.9512 12.622 13.0119 12.622 13.0744C12.6789 13.1029 12.7358 13.1314 12.7945 13.1607C12.921 13.2239 13.0475 13.2872 13.174 13.3504C13.1466 13.648 13.112 13.7806 12.8969 13.9944C12.7751 14.0855 12.7751 14.0855 12.6507 14.1784C12.2164 14.5166 11.8096 14.8708 11.4087 15.2479C11.3264 15.3247 11.3264 15.3247 11.2423 15.4031C11.0105 15.6192 10.7801 15.8363 10.5527 16.0573C10.4899 16.1166 10.427 16.1758 10.3622 16.2369C10.3109 16.287 10.2595 16.337 10.2066 16.3886C10.046 16.4784 10.046 16.4784 9.80952 16.4587C9.53108 16.3687 9.40186 16.2432 9.21799 16.0184C9.21799 15.9577 9.21799 15.897 9.21799 15.8344C9.15727 15.8344 9.09655 15.8344 9.03399 15.8344C9.03399 15.7737 9.03399 15.713 9.03399 15.6504C8.97327 15.6504 8.91255 15.6504 8.84999 15.6504C8.84999 15.5897 8.84999 15.529 8.84999 15.4664C8.78927 15.4664 8.72855 15.4664 8.66599 15.4664C8.66599 15.4057 8.66599 15.345 8.66599 15.2824C8.60527 15.2824 8.54455 15.2824 8.48199 15.2824C8.53248 14.8997 8.65435 14.6755 8.88449 14.3682C9.29463 13.7989 9.53751 13.426 9.49399 12.7064C9.40177 12.3883 9.40177 12.3883 9.25824 12.0854C9.21448 11.9835 9.17072 11.8815 9.12563 11.7764C8.75496 11.2396 8.08611 11.1692 7.48149 11.0389C6.7452 10.8776 6.7452 10.8776 6.64199 10.7744C6.63392 10.577 6.63215 10.3794 6.63301 10.1818C6.6333 10.0618 6.6336 9.94168 6.63391 9.81797C6.63468 9.69021 6.63545 9.56245 6.63624 9.43469C6.6367 9.30658 6.63712 9.17846 6.6375 9.05034C6.63859 8.73571 6.64011 8.42108 6.64199 8.10644C7.14785 7.93355 7.65089 7.82297 8.17473 7.71832C8.73187 7.60529 8.73187 7.60529 9.10766 7.20873C9.49295 6.3975 9.49295 6.3975 9.49399 5.53044C9.27154 5.06792 8.98191 4.66083 8.67174 4.25394C8.48199 3.96644 8.48199 3.96644 8.50023 3.78206C8.58262 3.57696 8.67024 3.47034 8.82843 3.31705C8.88002 3.26635 8.93161 3.21566 8.98476 3.16342C9.03896 3.11154 9.09315 3.05965 9.14899 3.00619C9.20177 2.95467 9.25454 2.90314 9.30891 2.85005C9.41306 2.74839 9.51769 2.64723 9.62283 2.5466C9.75839 2.41381 9.88747 2.27449 10.0158 2.13471C10.23 1.94244 10.23 1.94244 10.598 1.94244C10.7661 2.02544 10.7661 2.02544 10.9365 2.14046C10.9993 2.18155 11.062 2.22265 11.1266 2.26498C11.2565 2.35235 11.3864 2.43979 11.5162 2.52733C11.8819 2.76665 12.1719 2.94718 12.622 2.95444C12.9295 2.8812 12.9295 2.8812 13.2315 2.75319C13.3332 2.71394 13.435 2.67469 13.5398 2.63424C13.8964 2.45503 14.1289 2.28278 14.2685 1.90033C14.2937 1.77691 14.2937 1.77691 14.3193 1.65099C14.3385 1.56127 14.3576 1.47156 14.3774 1.37912C14.3958 1.28609 14.4142 1.19305 14.4332 1.09719C14.4717 0.911822 14.5104 0.726501 14.5493 0.541241C14.5658 0.459271 14.5822 0.3773 14.5992 0.292846C14.6701 0.00436481 14.6866 0.0125455 14.9934 0Z" fill="#25B556"/>
<path d="M0.268617 21.1592C0.340325 21.1594 0.412033 21.1596 0.485914 21.1598C0.607469 21.1598 0.607469 21.1598 0.73148 21.1598C0.819551 21.1603 0.907621 21.1608 0.99836 21.1613C1.13294 21.1615 1.13294 21.1615 1.27024 21.1617C1.55804 21.1622 1.84583 21.1633 2.13363 21.1645C2.32823 21.165 2.52283 21.1654 2.71743 21.1658C3.19558 21.1668 3.67373 21.1683 4.15188 21.1702C4.15402 23.7716 4.15565 26.373 4.15664 28.9744C4.15712 30.1822 4.15777 31.39 4.15882 32.5978C4.15973 33.65 4.16033 34.7023 4.16053 35.7546C4.16065 36.3122 4.16094 36.8697 4.1616 37.4273C4.16222 37.9514 4.16242 38.4755 4.16228 38.9996C4.16231 39.1926 4.16249 39.3856 4.16284 39.5786C4.1633 39.8408 4.16319 40.103 4.16294 40.3653C4.16321 40.4427 4.16347 40.5201 4.16375 40.5998C4.16237 41.1237 4.16237 41.1237 4.05988 41.2262C3.79213 41.2367 3.52665 41.2413 3.25883 41.2417C3.17815 41.242 3.09747 41.2423 3.01435 41.2426C2.84319 41.2431 2.67204 41.2433 2.50088 41.2433C2.23919 41.2435 1.97754 41.2452 1.71585 41.2469C1.54976 41.2472 1.38367 41.2474 1.21758 41.2474C1.13927 41.2481 1.06096 41.2488 0.980283 41.2494C0.870256 41.249 0.870256 41.249 0.758005 41.2486C0.693725 41.2487 0.629445 41.2489 0.563217 41.249C0.348681 41.2224 0.202058 41.1421 0.0118755 41.0422C0.00972954 38.4648 0.00810555 35.8874 0.00710876 33.31C0.00663369 32.1134 0.00598563 30.9168 0.00493505 29.7201C0.00402015 28.6775 0.00342501 27.635 0.00321933 26.5924C0.00309904 26.04 0.00281492 25.4876 0.00214831 24.9351C0.00152671 24.4159 0.00133065 23.8966 0.00146957 23.3773C0.00144413 23.1861 0.00125946 22.9949 0.000908571 22.8037C0.00045487 22.5439 0.000559448 22.2841 0.000812059 22.0242C0.000544078 21.9475 0.000276102 21.8708 0 21.7918C0.0016299 21.1771 0.00162989 21.1771 0.268617 21.1592Z" fill="#25B556"/>
<path d="M28.2551 17.8578C28.2551 17.9185 28.2551 17.9792 28.2551 18.0418C28.3375 18.077 28.3375 18.077 28.4215 18.1129C28.6449 18.238 28.7524 18.3551 28.9049 18.5593C28.9496 18.6174 28.9943 18.6755 29.0404 18.7354C29.4438 19.4131 29.4903 19.9968 29.4825 20.7694C29.4825 20.9271 29.4825 20.9271 29.4826 21.0879C29.4824 21.4334 29.4802 21.7788 29.4781 22.1243C29.4776 22.3646 29.4772 22.6048 29.4769 22.8451C29.476 23.4117 29.4738 23.9783 29.471 24.5449C29.4679 25.1903 29.4664 25.8358 29.465 26.4812C29.4621 27.8081 29.4573 29.1349 29.4511 30.4618C29.0695 30.2846 28.9326 30.0837 28.7108 29.7322C28.2819 29.2776 27.624 29.0973 27.0419 28.9093C26.9357 28.8744 26.9357 28.8744 26.8275 28.8388C26.2018 28.6361 25.5702 28.4557 24.937 28.2778C24.3612 28.1156 23.7888 27.9444 23.2181 27.765C23.143 27.7416 23.0679 27.7182 22.9905 27.694C22.4705 27.5291 22.4705 27.5291 22.3671 27.4258C22.3564 27.1833 22.3517 26.9433 22.3508 26.7007C22.3502 26.6247 22.3496 26.5487 22.349 26.4704C22.3472 26.2176 22.3461 25.9647 22.3452 25.7119C22.3448 25.6256 22.3444 25.5393 22.3441 25.4504C22.3421 24.9933 22.3408 24.5361 22.34 24.0789C22.339 23.6073 22.3358 23.1358 22.3321 22.6642C22.3297 22.3013 22.329 21.9383 22.3286 21.5753C22.3282 21.4015 22.3271 21.2278 22.3254 21.054C22.3232 20.8101 22.3232 20.5662 22.3239 20.3222C22.3227 20.251 22.3215 20.1798 22.3203 20.1064C22.3283 19.264 22.7606 18.673 23.3213 18.0727C24.8093 16.7504 26.6292 16.9655 28.2551 17.8578Z" fill="#25B556"/>
<path d="M25.9543 3.86816C26.2434 4.01712 26.4575 4.20366 26.696 4.42591C26.696 4.48663 26.696 4.54735 26.696 4.60991C26.7471 4.63162 26.7983 4.65332 26.8509 4.67568C27.1159 4.82269 27.3091 5.00597 27.5298 5.21366C28.0902 5.73215 28.6755 6.2154 29.2742 6.68926C29.3993 6.78968 29.5203 6.89514 29.64 7.00191C29.64 7.06263 29.64 7.12335 29.64 7.18591C29.6913 7.20868 29.7425 7.23145 29.7953 7.25491C30.047 7.391 30.2543 7.5479 30.468 7.73791C30.468 7.79863 30.468 7.85935 30.468 7.92191C30.5178 7.94374 30.5676 7.96556 30.619 7.98804C30.8942 8.13751 31.1223 8.32213 31.365 8.51991C31.4556 8.59297 31.5462 8.66602 31.6396 8.74129C31.7084 8.80486 31.7772 8.86842 31.848 8.93391C31.848 8.99463 31.848 9.05535 31.848 9.11791C31.8978 9.13974 31.9476 9.16156 31.999 9.18404C32.2742 9.33351 32.5023 9.51813 32.745 9.71591C32.8356 9.78897 32.9262 9.86202 33.0196 9.93729C33.1228 10.0326 33.1228 10.0326 33.228 10.1299C33.228 10.1906 33.228 10.2514 33.228 10.3139C33.2888 10.3139 33.3495 10.3139 33.412 10.3139C33.412 10.3746 33.412 10.4354 33.412 10.4979C33.4618 10.5197 33.5116 10.5416 33.563 10.564C33.8382 10.7135 34.0663 10.8981 34.309 11.0959C34.3996 11.169 34.4902 11.242 34.5836 11.3173C34.6524 11.3809 34.7212 11.4444 34.792 11.5099C34.792 11.5706 34.792 11.6314 34.792 11.6939C34.8418 11.7157 34.8916 11.7376 34.943 11.76C35.2182 11.9095 35.4463 12.0941 35.689 12.2919C35.7796 12.365 35.8702 12.438 35.9636 12.5133C36.0324 12.5769 36.1012 12.6404 36.172 12.7059C36.172 12.7666 36.172 12.8274 36.172 12.8899C36.2328 12.8899 36.2935 12.8899 36.356 12.8899C36.356 12.9506 36.356 13.0114 36.356 13.0739C36.4357 13.1109 36.4357 13.1109 36.517 13.1487C36.7291 13.2606 36.9099 13.3778 37.092 13.5339C37.092 13.5946 37.092 13.6554 37.092 13.7179C37.1418 13.7383 37.1916 13.7587 37.243 13.7797C37.5301 13.9413 37.7524 14.159 37.989 14.3849C38.3676 14.7408 38.7481 15.0684 39.1778 15.3628C39.2383 15.4138 39.2383 15.4138 39.3 15.4659C39.3 15.5266 39.3 15.5874 39.3 15.6499C39.3494 15.6701 39.3987 15.6902 39.4495 15.711C39.7438 15.8765 39.9757 16.0986 40.22 16.3284C40.2679 16.3728 40.3159 16.4171 40.3652 16.4628C40.5017 16.5896 40.6369 16.7177 40.772 16.8459C40.8424 16.9117 40.9127 16.9776 40.9851 17.0454C41.2017 17.281 41.2256 17.4489 41.232 17.7659C41.1113 18.0304 41.1113 18.0304 40.956 18.2259C40.8953 18.2259 40.8346 18.2259 40.772 18.2259C40.772 18.2866 40.772 18.3474 40.772 18.4099C40.4403 18.4998 40.2418 18.5514 39.9214 18.4121C39.7332 18.2973 39.5576 18.1877 39.392 18.0419C39.392 17.9812 39.392 17.9205 39.392 17.8579C39.3422 17.8361 39.2924 17.8143 39.2411 17.7918C38.9658 17.6423 38.7378 17.4577 38.495 17.2599C38.4044 17.1869 38.3138 17.1138 38.2205 17.0385C38.1517 16.975 38.0829 16.9114 38.012 16.8459C38.012 16.7852 38.012 16.7245 38.012 16.6619C37.9609 16.6402 37.9098 16.6185 37.8571 16.5961C37.5922 16.4491 37.399 16.2659 37.1783 16.0582C36.8368 15.7406 36.4896 15.4365 36.126 15.1439C35.6835 14.7866 35.2624 14.4104 34.8434 14.0259C34.3146 13.5407 33.7769 13.0845 33.1993 12.6581C33.148 12.6132 33.0968 12.5682 33.044 12.5219C33.044 12.4612 33.044 12.4005 33.044 12.3379C32.9923 12.3155 32.9406 12.2931 32.8873 12.27C32.6355 12.1317 32.4499 11.9638 32.239 11.7687C32.1573 11.6938 32.0756 11.619 31.9914 11.5419C31.9137 11.4706 31.8361 11.3993 31.756 11.3259C31.4081 11.0166 31.0556 10.7125 30.7031 10.4084C30.0782 9.86901 29.4589 9.32538 28.8498 8.76824C28.2763 8.24494 27.685 7.75147 27.0755 7.27037C27.011 7.21214 26.9465 7.15391 26.88 7.09391C26.88 7.03319 26.88 6.97247 26.88 6.90991C26.8307 6.88714 26.7814 6.86437 26.7305 6.84091C26.4601 6.69859 26.2123 6.52994 25.96 6.35791C25.6317 6.51115 25.3814 6.64808 25.132 6.90991C25.0713 6.90991 25.0106 6.90991 24.948 6.90991C24.948 6.97063 24.948 7.03135 24.948 7.09391C24.8014 7.22598 24.6488 7.35136 24.4938 7.47341C24.0715 7.81007 23.6674 8.15878 23.2715 8.52602C23.108 8.65791 23.108 8.65791 22.924 8.65791C22.924 8.71863 22.924 8.77935 22.924 8.84191C22.8083 8.96195 22.8083 8.96195 22.6365 9.10641C22.5695 9.16346 22.5025 9.2205 22.4335 9.27927C22.3525 9.34746 22.2715 9.41566 22.188 9.48591C21.9788 9.66378 21.77 9.8422 21.5613 10.0207C21.5062 10.0676 21.4511 10.1145 21.3944 10.1628C20.946 10.5463 20.5118 10.9432 20.0821 11.3475C19.888 11.5099 19.888 11.5099 19.704 11.5099C19.704 11.5706 19.704 11.6314 19.704 11.6939C19.2927 12.0619 19.2927 12.0619 19.06 12.0619C19.06 12.1226 19.06 12.1834 19.06 12.2459C18.5562 12.7059 18.5562 12.7059 18.324 12.7059C18.324 12.7666 18.324 12.8274 18.324 12.8899C18.1857 13.0294 18.1857 13.0294 17.9963 13.1889C17.8961 13.2738 17.8961 13.2738 17.794 13.3603C17.692 13.4463 17.692 13.4463 17.588 13.5339C17.5267 13.5883 17.4654 13.6428 17.4022 13.6989C17.3459 13.7488 17.2896 13.7987 17.2315 13.8502C17.1805 13.8956 17.1295 13.941 17.077 13.9878C16.944 14.0859 16.944 14.0859 16.76 14.0859C16.76 14.1466 16.76 14.2074 16.76 14.2699C16.6172 14.3981 16.4684 14.5196 16.3173 14.6379C15.9468 14.9339 15.5907 15.2359 15.242 15.5579C14.9207 15.8539 14.5944 16.1363 14.253 16.4089C13.7549 16.8096 13.292 17.2426 12.8318 17.6857C12.0074 18.4711 12.0074 18.4711 11.5103 18.5422C11.1994 18.4959 11.0277 18.4185 10.78 18.2259C10.5651 17.9292 10.5398 17.6645 10.596 17.3059C10.7542 17.0648 10.9309 16.8521 11.148 16.6619C11.2087 16.6619 11.2695 16.6619 11.332 16.6619C11.332 16.6012 11.332 16.5405 11.332 16.4779C11.4749 16.3497 11.6237 16.2282 11.7748 16.1099C12.243 15.7359 12.6856 15.3455 13.1253 14.938C13.7641 14.3619 13.7641 14.3619 14 14.3619C14 14.3012 14 14.2405 14 14.1779C14.1352 14.0417 14.1352 14.0417 14.322 13.8847C14.66 13.5984 14.9907 13.3056 15.3189 13.0081C15.472 12.8899 15.472 12.8899 15.656 12.8899C15.6762 12.838 15.6964 12.786 15.7171 12.7325C15.8795 12.4544 16.0837 12.2974 16.3345 12.0964C16.4665 11.9893 16.4665 11.9893 16.6012 11.8801C16.8051 11.7287 16.9889 11.6118 17.22 11.5099C17.22 11.4492 17.22 11.3885 17.22 11.3259C17.3763 11.1863 17.5384 11.0531 17.703 10.9234C17.9609 10.7194 18.2078 10.5227 18.4376 10.2873C18.6 10.1299 18.6 10.1299 18.784 10.1299C18.784 10.0692 18.784 10.0085 18.784 9.94591C18.9398 9.802 19.102 9.66501 19.267 9.53191C19.3567 9.45886 19.4463 9.38581 19.5387 9.31054C19.7453 9.15587 19.9291 9.03683 20.164 8.93391C20.164 8.87319 20.164 8.81247 20.164 8.74991C20.2247 8.74991 20.2855 8.74991 20.348 8.74991C20.348 8.68919 20.348 8.62847 20.348 8.56591C20.5076 8.41813 20.6735 8.27726 20.8425 8.14041C20.9343 8.06523 21.0261 7.99004 21.1207 7.91257C21.36 7.73791 21.36 7.73791 21.544 7.73791C21.544 7.67719 21.544 7.61647 21.544 7.55391C21.6047 7.55391 21.6655 7.55391 21.728 7.55391C21.728 7.49319 21.728 7.43247 21.728 7.36991C22.1393 7.00191 22.1393 7.00191 22.372 7.00191C22.372 6.94119 22.372 6.88047 22.372 6.81791C22.8758 6.35791 22.8758 6.35791 23.108 6.35791C23.108 6.29719 23.108 6.23647 23.108 6.17391C23.2509 6.04573 23.3997 5.92424 23.5508 5.80591C24.0312 5.42319 24.4814 5.01926 24.9283 4.59805C25.132 4.42591 25.132 4.42591 25.316 4.42591C25.316 4.36519 25.316 4.30447 25.316 4.24191C25.6917 3.87663 25.6917 3.87663 25.9543 3.86816Z" fill="#25B556"/>
<path d="M6.11889 23.3666C6.1888 23.3662 6.25871 23.3659 6.33074 23.3655C6.39899 23.3656 6.46724 23.3657 6.53756 23.3659C6.5995 23.366 6.66145 23.3661 6.72527 23.3662C6.94871 23.38 7.15916 23.4246 7.37814 23.4701C7.38028 25.4717 7.38191 27.4733 7.3829 29.475C7.38338 30.4043 7.38403 31.3336 7.38508 32.2629C7.38599 33.0726 7.38659 33.8823 7.38679 34.692C7.38691 35.121 7.3872 35.55 7.38786 35.979C7.38849 36.3823 7.38868 36.7856 7.38854 37.1889C7.38857 37.3374 7.38875 37.4859 7.3891 37.6343C7.38956 37.8361 7.38945 38.0379 7.3892 38.2397C7.38929 38.353 7.38937 38.4662 7.38946 38.5828C7.37814 38.8341 7.37814 38.8341 7.28614 38.9261C7.13574 38.9341 6.98501 38.9359 6.8344 38.9351C6.74338 38.9348 6.65236 38.9345 6.55858 38.9342C6.46282 38.9334 6.36705 38.9326 6.26839 38.9318C6.17227 38.9314 6.07615 38.931 5.97711 38.9306C5.73878 38.9295 5.50046 38.928 5.26214 38.9261C5.12995 38.6617 5.15885 38.4358 5.15907 38.1402C5.159 38.0777 5.15892 38.0151 5.15884 37.9507C5.15868 37.7402 5.15919 37.5298 5.15969 37.3193C5.15972 37.1688 5.1597 37.0183 5.15965 36.8678C5.15963 36.4584 5.16017 36.049 5.16081 35.6396C5.16138 35.212 5.16144 34.7845 5.16155 34.357C5.16183 33.547 5.16259 32.737 5.16351 31.927C5.16454 31.005 5.16505 30.083 5.16551 29.161C5.16647 27.264 5.16809 25.3671 5.17014 23.4701C5.4678 23.3213 5.79225 23.365 6.11889 23.3666Z" fill="#25B556"/>
<path d="M32.4 4.97852C33.493 4.97852 34.5859 4.97852 35.712 4.97852C35.7186 6.47877 35.7201 7.97561 35.6717 9.47502C35.6681 9.59351 35.6645 9.712 35.6608 9.83408C35.6569 9.94305 35.6531 10.052 35.6491 10.1643C35.6457 10.2602 35.6424 10.3562 35.6389 10.455C35.62 10.6825 35.62 10.6825 35.528 10.8665C35.4369 10.8362 35.3458 10.8058 35.252 10.7745C35.252 10.7138 35.252 10.6531 35.252 10.5905C35.201 10.5688 35.15 10.5471 35.0975 10.5248C34.8321 10.3778 34.6345 10.1932 34.4125 9.98677C34.119 9.70389 34.119 9.70389 33.78 9.48652C33.78 9.4258 33.78 9.36508 33.78 9.30252C33.7301 9.27973 33.6802 9.25695 33.6288 9.23347C33.1498 8.97952 32.6858 8.67002 32.4 8.19852C32.2412 7.66041 32.3049 7.08308 32.3367 6.53102C32.3576 6.01869 32.3785 5.50637 32.4 4.97852Z" fill="#25B556"/>
<path d="M35.7074 4.97852C35.7378 4.97852 35.7682 4.97852 35.7994 4.97852C35.7994 6.98228 35.7994 8.98604 35.7994 11.0505C35.7084 11.0202 35.6173 10.9898 35.5234 10.9585C35.5842 8.98512 35.6449 7.01172 35.7074 4.97852Z" fill="#25B556"/>
<path d="M21.3602 19.4219C21.4676 19.744 21.4605 20.0281 21.4542 20.3626C21.4533 20.4299 21.4524 20.4973 21.4515 20.5667C21.4485 20.7892 21.4448 21.0117 21.441 21.2342C21.4388 21.3885 21.4366 21.5428 21.4345 21.6971C21.4287 22.1032 21.4223 22.5093 21.4159 22.9154C21.4094 23.3298 21.4034 23.7442 21.3974 24.1586C21.3855 24.9717 21.373 25.7848 21.3602 26.5979C21.2691 26.6434 21.2691 26.6434 21.1762 26.6899C21.1155 26.6292 21.0547 26.5684 20.9922 26.5059C21.0833 26.4148 21.0833 26.4148 21.1762 26.3219C21.2062 26.0283 21.2062 26.0283 21.2041 25.6775C21.2048 25.6112 21.2056 25.5449 21.2064 25.4766C21.2088 25.2571 21.2099 25.0375 21.211 24.8179C21.2125 24.6657 21.2141 24.5136 21.2158 24.3614C21.22 23.9605 21.2232 23.5596 21.2261 23.1587C21.2309 22.5165 21.2369 21.8744 21.2434 21.2323C21.2455 21.0074 21.247 20.7825 21.2485 20.5576C21.2497 20.4205 21.2509 20.2834 21.2522 20.1464C21.2535 19.9661 21.2535 19.9661 21.2549 19.7822C21.2682 19.5139 21.2682 19.5139 21.3602 19.4219Z" fill="#25B556"/>
<path d="M25.9543 3.86816C26.2434 4.01712 26.4575 4.20366 26.696 4.42591C26.696 4.48663 26.696 4.54735 26.696 4.60991C26.7471 4.63162 26.7983 4.65332 26.8509 4.67568C27.1159 4.82269 27.3091 5.00597 27.5298 5.21366C28.0902 5.73215 28.6755 6.2154 29.2742 6.68926C29.3993 6.78968 29.5203 6.89514 29.64 7.00191C29.64 7.06263 29.64 7.12335 29.64 7.18591C29.6913 7.20868 29.7425 7.23145 29.7953 7.25491C30.047 7.391 30.2543 7.5479 30.468 7.73791C30.468 7.79863 30.468 7.85935 30.468 7.92191C30.5178 7.94374 30.5676 7.96556 30.619 7.98804C30.8942 8.13751 31.1223 8.32213 31.365 8.51991C31.4556 8.59297 31.5462 8.66602 31.6396 8.74129C31.7084 8.80486 31.7772 8.86842 31.848 8.93391C31.848 8.99463 31.848 9.05535 31.848 9.11791C31.8978 9.13974 31.9476 9.16156 31.999 9.18404C32.2742 9.33351 32.5023 9.51813 32.745 9.71591C32.8356 9.78897 32.9262 9.86202 33.0196 9.93729C33.1228 10.0326 33.1228 10.0326 33.228 10.1299C33.228 10.1906 33.228 10.2514 33.228 10.3139C33.2888 10.3139 33.3495 10.3139 33.412 10.3139C33.412 10.3746 33.412 10.4354 33.412 10.4979C33.4618 10.5197 33.5116 10.5416 33.563 10.564C33.8382 10.7135 34.0663 10.8981 34.309 11.0959C34.3996 11.169 34.4902 11.242 34.5836 11.3173C34.6524 11.3809 34.7212 11.4444 34.792 11.5099C34.792 11.5706 34.792 11.6314 34.792 11.6939C34.8418 11.7157 34.8916 11.7376 34.943 11.76C35.2182 11.9095 35.4463 12.0941 35.689 12.2919C35.7796 12.365 35.8702 12.438 35.9636 12.5133C36.0324 12.5769 36.1012 12.6404 36.172 12.7059C36.172 12.7666 36.172 12.8274 36.172 12.8899C36.2328 12.8899 36.2935 12.8899 36.356 12.8899C36.356 12.9506 36.356 13.0114 36.356 13.0739C36.4357 13.1109 36.4357 13.1109 36.517 13.1487C36.7291 13.2606 36.9099 13.3778 37.092 13.5339C37.092 13.5946 37.092 13.6554 37.092 13.7179C37.1418 13.7383 37.1916 13.7587 37.243 13.7797C37.5301 13.9413 37.7524 14.159 37.989 14.3849C38.3676 14.7408 38.7481 15.0684 39.1778 15.3628C39.2383 15.4138 39.2383 15.4138 39.3 15.4659C39.3 15.5266 39.3 15.5874 39.3 15.6499C39.3494 15.6701 39.3987 15.6902 39.4495 15.711C39.7438 15.8765 39.9757 16.0986 40.22 16.3284C40.2679 16.3728 40.3159 16.4171 40.3652 16.4628C40.5017 16.5896 40.6369 16.7177 40.772 16.8459C40.8424 16.9117 40.9127 16.9776 40.9851 17.0454C41.2017 17.281 41.2256 17.4489 41.232 17.7659C41.1113 18.0304 41.1113 18.0304 40.956 18.2259C40.8953 18.2259 40.8346 18.2259 40.772 18.2259C40.772 18.2866 40.772 18.3474 40.772 18.4099C40.4403 18.4998 40.2418 18.5514 39.9214 18.4121C39.7332 18.2973 39.5576 18.1877 39.392 18.0419C39.392 17.9812 39.392 17.9205 39.392 17.8579C39.3422 17.8361 39.2924 17.8143 39.2411 17.7918C38.9658 17.6423 38.7378 17.4577 38.495 17.2599C38.4044 17.1869 38.3138 17.1138 38.2205 17.0385C38.1517 16.975 38.0829 16.9114 38.012 16.8459C38.012 16.7852 38.012 16.7245 38.012 16.6619C37.9609 16.6402 37.9098 16.6185 37.8571 16.5961C37.5922 16.4491 37.399 16.2659 37.1783 16.0582C36.8368 15.7406 36.4896 15.4365 36.126 15.1439C35.6835 14.7866 35.2624 14.4104 34.8434 14.0259C34.3146 13.5407 33.7769 13.0845 33.1993 12.6581C33.148 12.6132 33.0968 12.5682 33.044 12.5219C33.044 12.4612 33.044 12.4005 33.044 12.3379C32.9923 12.3155 32.9406 12.2931 32.8873 12.27C32.6355 12.1317 32.4499 11.9638 32.239 11.7687C32.1573 11.6938 32.0756 11.619 31.9914 11.5419C31.9137 11.4706 31.8361 11.3993 31.756 11.3259C31.4081 11.0166 31.0556 10.7125 30.7031 10.4084C30.0782 9.86901 29.4589 9.32538 28.8498 8.76824C28.2763 8.24494 27.685 7.75147 27.0755 7.27037C27.011 7.21214 26.9465 7.15391 26.88 7.09391C26.88 7.03319 26.88 6.97247 26.88 6.90991C26.8307 6.88714 26.7814 6.86437 26.7305 6.84091C26.4601 6.69859 26.2123 6.52994 25.96 6.35791C25.6317 6.51115 25.3814 6.64808 25.132 6.90991C25.0713 6.90991 25.0106 6.90991 24.948 6.90991C24.948 6.97063 24.948 7.03135 24.948 7.09391C24.8014 7.22598 24.6488 7.35136 24.4938 7.47341C24.0715 7.81007 23.6674 8.15878 23.2715 8.52602C23.108 8.65791 23.108 8.65791 22.924 8.65791C22.924 8.71863 22.924 8.77935 22.924 8.84191C22.8083 8.96195 22.8083 8.96195 22.6365 9.10641C22.5695 9.16346 22.5025 9.2205 22.4335 9.27927C22.3525 9.34746 22.2715 9.41566 22.188 9.48591C21.9788 9.66378 21.77 9.8422 21.5613 10.0207C21.5062 10.0676 21.4511 10.1145 21.3944 10.1628C20.946 10.5463 20.5118 10.9432 20.0821 11.3475C19.888 11.5099 19.888 11.5099 19.704 11.5099C19.704 11.5706 19.704 11.6314 19.704 11.6939C19.2927 12.0619 19.2927 12.0619 19.06 12.0619C19.06 12.1226 19.06 12.1834 19.06 12.2459C18.5562 12.7059 18.5562 12.7059 18.324 12.7059C18.324 12.7666 18.324 12.8274 18.324 12.8899C18.1857 13.0294 18.1857 13.0294 17.9963 13.1889C17.8961 13.2738 17.8961 13.2738 17.794 13.3603C17.692 13.4463 17.692 13.4463 17.588 13.5339C17.5267 13.5883 17.4654 13.6428 17.4022 13.6989C17.3459 13.7488 17.2896 13.7987 17.2315 13.8502C17.1805 13.8956 17.1295 13.941 17.077 13.9878C16.944 14.0859 16.944 14.0859 16.76 14.0859C16.76 14.1466 16.76 14.2074 16.76 14.2699C16.6172 14.3981 16.4684 14.5196 16.3173 14.6379C15.9468 14.9339 15.5907 15.2359 15.242 15.5579C14.9207 15.8539 14.5944 16.1363 14.253 16.4089C13.7549 16.8096 13.292 17.2426 12.8318 17.6857C12.0074 18.4711 12.0074 18.4711 11.5103 18.5422C11.1994 18.4959 11.0277 18.4185 10.78 18.2259C10.5651 17.9292 10.5398 17.6645 10.596 17.3059C10.7542 17.0648 10.9309 16.8521 11.148 16.6619C11.2087 16.6619 11.2695 16.6619 11.332 16.6619C11.332 16.6012 11.332 16.5405 11.332 16.4779C11.4749 16.3497 11.6237 16.2282 11.7748 16.1099C12.243 15.7359 12.6856 15.3455 13.1253 14.938C13.7641 14.3619 13.7641 14.3619 14 14.3619C14 14.3012 14 14.2405 14 14.1779C14.1352 14.0417 14.1352 14.0417 14.322 13.8847C14.66 13.5984 14.9907 13.3056 15.3189 13.0081C15.472 12.8899 15.472 12.8899 15.656 12.8899C15.6762 12.838 15.6964 12.786 15.7171 12.7325C15.8795 12.4544 16.0837 12.2974 16.3345 12.0964C16.4665 11.9893 16.4665 11.9893 16.6012 11.8801C16.8051 11.7287 16.9889 11.6118 17.22 11.5099C17.22 11.4492 17.22 11.3885 17.22 11.3259C17.3763 11.1863 17.5384 11.0531 17.703 10.9234C17.9609 10.7194 18.2078 10.5227 18.4376 10.2873C18.6 10.1299 18.6 10.1299 18.784 10.1299C18.784 10.0692 18.784 10.0085 18.784 9.94591C18.9398 9.802 19.102 9.66501 19.267 9.53191C19.3567 9.45886 19.4463 9.38581 19.5387 9.31054C19.7453 9.15587 19.9291 9.03683 20.164 8.93391C20.164 8.87319 20.164 8.81247 20.164 8.74991C20.2247 8.74991 20.2855 8.74991 20.348 8.74991C20.348 8.68919 20.348 8.62847 20.348 8.56591C20.5076 8.41813 20.6735 8.27726 20.8425 8.14041C20.9343 8.06523 21.0261 7.99004 21.1207 7.91257C21.36 7.73791 21.36 7.73791 21.544 7.73791C21.544 7.67719 21.544 7.61647 21.544 7.55391C21.6047 7.55391 21.6655 7.55391 21.728 7.55391C21.728 7.49319 21.728 7.43247 21.728 7.36991C22.1393 7.00191 22.1393 7.00191 22.372 7.00191C22.372 6.94119 22.372 6.88047 22.372 6.81791C22.8758 6.35791 22.8758 6.35791 23.108 6.35791C23.108 6.29719 23.108 6.23647 23.108 6.17391C23.2509 6.04573 23.3997 5.92424 23.5508 5.80591C24.0312 5.42319 24.4814 5.01926 24.9283 4.59805C25.132 4.42591 25.132 4.42591 25.316 4.42591C25.316 4.36519 25.316 4.30447 25.316 4.24191C25.6917 3.87663 25.6917 3.87663 25.9543 3.86816Z" fill="#25B556"/>
<path d="M6.11889 23.3666C6.1888 23.3662 6.25871 23.3659 6.33074 23.3655C6.39899 23.3656 6.46724 23.3657 6.53756 23.3659C6.5995 23.366 6.66145 23.3661 6.72527 23.3662C6.94871 23.38 7.15916 23.4246 7.37814 23.4701C7.38028 25.4717 7.38191 27.4733 7.3829 29.475C7.38338 30.4043 7.38403 31.3336 7.38508 32.2629C7.38599 33.0726 7.38659 33.8823 7.38679 34.692C7.38691 35.121 7.3872 35.55 7.38786 35.979C7.38849 36.3823 7.38868 36.7856 7.38854 37.1889C7.38857 37.3374 7.38875 37.4859 7.3891 37.6343C7.38956 37.8361 7.38945 38.0379 7.3892 38.2397C7.38929 38.353 7.38937 38.4662 7.38946 38.5828C7.37814 38.8341 7.37814 38.8341 7.28614 38.9261C7.13574 38.9341 6.98501 38.9359 6.8344 38.9351C6.74338 38.9348 6.65236 38.9345 6.55858 38.9342C6.46282 38.9334 6.36705 38.9326 6.26839 38.9318C6.17227 38.9314 6.07615 38.931 5.97711 38.9306C5.73878 38.9295 5.50046 38.928 5.26214 38.9261C5.12995 38.6617 5.15885 38.4358 5.15907 38.1402C5.159 38.0777 5.15892 38.0151 5.15884 37.9507C5.15868 37.7402 5.15919 37.5298 5.15969 37.3193C5.15972 37.1688 5.1597 37.0183 5.15965 36.8678C5.15963 36.4584 5.16017 36.049 5.16081 35.6396C5.16138 35.212 5.16144 34.7845 5.16155 34.357C5.16183 33.547 5.16259 32.737 5.16351 31.927C5.16454 31.005 5.16505 30.083 5.16551 29.161C5.16647 27.264 5.16809 25.3671 5.17014 23.4701C5.4678 23.3213 5.79225 23.365 6.11889 23.3666Z" fill="#25B556"/>
<path d="M32.4 4.97852C33.493 4.97852 34.5859 4.97852 35.712 4.97852C35.7186 6.47877 35.7201 7.97561 35.6717 9.47502C35.6681 9.59351 35.6645 9.712 35.6608 9.83408C35.6569 9.94305 35.6531 10.052 35.6491 10.1643C35.6457 10.2602 35.6424 10.3562 35.6389 10.455C35.62 10.6825 35.62 10.6825 35.528 10.8665C35.4369 10.8362 35.3458 10.8058 35.252 10.7745C35.252 10.7138 35.252 10.6531 35.252 10.5905C35.201 10.5688 35.15 10.5471 35.0975 10.5248C34.8321 10.3778 34.6345 10.1932 34.4125 9.98677C34.119 9.70389 34.119 9.70389 33.78 9.48652C33.78 9.4258 33.78 9.36508 33.78 9.30252C33.7301 9.27973 33.6802 9.25695 33.6288 9.23347C33.1498 8.97952 32.6858 8.67002 32.4 8.19852C32.2412 7.66041 32.3049 7.08308 32.3367 6.53102C32.3576 6.01869 32.3785 5.50637 32.4 4.97852Z" fill="#25B556"/>
<path d="M35.7074 4.97852C35.7378 4.97852 35.7682 4.97852 35.7994 4.97852C35.7994 6.98228 35.7994 8.98604 35.7994 11.0505C35.7084 11.0202 35.6173 10.9898 35.5234 10.9585C35.5842 8.98512 35.6449 7.01172 35.7074 4.97852Z" fill="#25B556"/>
<path d="M21.3602 19.4219C21.4676 19.744 21.4605 20.0281 21.4542 20.3626C21.4533 20.4299 21.4524 20.4973 21.4515 20.5667C21.4485 20.7892 21.4448 21.0117 21.441 21.2342C21.4388 21.3885 21.4366 21.5428 21.4345 21.6971C21.4287 22.1032 21.4223 22.5093 21.4159 22.9154C21.4094 23.3298 21.4034 23.7442 21.3974 24.1586C21.3855 24.9717 21.373 25.7848 21.3602 26.5979C21.2691 26.6434 21.2691 26.6434 21.1762 26.6899C21.1155 26.6292 21.0547 26.5684 20.9922 26.5059C21.0833 26.4148 21.0833 26.4148 21.1762 26.3219C21.2062 26.0283 21.2062 26.0283 21.2041 25.6775C21.2048 25.6112 21.2056 25.5449 21.2064 25.4766C21.2088 25.2571 21.2099 25.0375 21.211 24.8179C21.2125 24.6657 21.2141 24.5136 21.2158 24.3614C21.22 23.9605 21.2232 23.5596 21.2261 23.1587C21.2309 22.5165 21.2369 21.8744 21.2434 21.2323C21.2455 21.0074 21.247 20.7825 21.2485 20.5576C21.2497 20.4205 21.2509 20.2834 21.2522 20.1464C21.2535 19.9661 21.2535 19.9661 21.2549 19.7822C21.2682 19.5139 21.2682 19.5139 21.3602 19.4219Z" fill="#25B556"/>
</svg>
