<svg width="42" height="42" viewBox="0 0 42 42" fill="none" xmlns="http://www.w3.org/2000/svg">
<path d="M22.7606 1.18241C22.7774 1.20481 22.755 1.24401 22.7102 1.27201C22.643 1.30561 22.6262 1.51281 22.6094 2.33601L22.5926 3.34961L22.4358 3.49521C22.3014 3.61841 22.111 3.67441 21.9318 3.64641C21.9038 3.64081 21.8982 3.66321 21.915 3.69121C21.9374 3.71921 21.8366 3.76401 21.6966 3.78081C21.5566 3.80321 21.4446 3.84241 21.4446 3.86481C21.4446 3.89281 21.3438 3.92641 21.2206 3.94881C21.0974 3.97121 20.9966 4.01041 20.9966 4.03281C20.9966 4.06081 20.907 4.10001 20.8006 4.12241C20.6942 4.13921 20.6046 4.17841 20.6046 4.20081C20.6046 4.22881 20.5318 4.26241 20.4366 4.28481C20.347 4.30721 20.2686 4.34641 20.2686 4.37441C20.2686 4.40241 20.2238 4.42481 20.1678 4.42481C20.1062 4.42481 20.0166 4.47521 19.9606 4.53681C19.9046 4.59841 19.815 4.64881 19.7534 4.64881C19.6974 4.64881 19.6526 4.67121 19.6526 4.70481C19.6526 4.79441 19.2774 4.77201 19.2382 4.67681C19.2214 4.63201 19.1878 4.59281 19.1654 4.59841C19.0254 4.62081 18.9246 4.58161 18.9246 4.50881C18.9246 4.46401 18.8854 4.42481 18.8406 4.42481C18.7958 4.42481 18.7566 4.38561 18.7566 4.34081C18.7566 4.29601 18.6894 4.21201 18.6054 4.16161C18.5214 4.10561 18.2806 3.89281 18.0678 3.68561C17.8606 3.47281 17.6646 3.30481 17.631 3.30481C17.5582 3.30481 15.2846 5.57281 15.2846 5.65121C15.2846 5.67921 15.3462 5.78001 15.4246 5.86401C15.6542 6.12721 15.6766 6.15521 15.6766 6.20561C15.6766 6.23921 15.727 6.27281 15.7886 6.28961C15.8502 6.30641 15.9006 6.35681 15.9006 6.40721C15.9006 6.45761 15.9398 6.49681 15.9846 6.49681C16.0294 6.49681 16.0686 6.53601 16.0686 6.58081C16.0686 6.62561 16.1078 6.66481 16.1526 6.66481C16.1974 6.66481 16.2366 6.70401 16.2366 6.74881C16.2366 6.79361 16.2758 6.83281 16.3206 6.83281C16.3654 6.83281 16.4046 6.86081 16.4046 6.89441C16.4046 6.93361 16.4662 7.01761 16.5446 7.09041C16.6566 7.19681 16.6846 7.27521 16.6846 7.50481C16.6846 7.65601 16.6622 7.78481 16.6342 7.78481C16.6062 7.78481 16.567 7.85201 16.5502 7.93041C16.5166 8.06481 16.4774 8.12641 16.3038 8.31681C16.2646 8.36161 16.2198 8.47361 16.203 8.56321C16.1806 8.65841 16.147 8.73681 16.1246 8.73681C16.1022 8.73681 16.063 8.82641 16.0462 8.93281C16.0238 9.03921 15.9846 9.12881 15.9622 9.12881C15.9342 9.12881 15.9006 9.22961 15.8782 9.34721C15.8614 9.47041 15.8222 9.57681 15.7886 9.58801C15.7606 9.59361 15.7158 9.72801 15.6934 9.88481C15.6766 10.036 15.6262 10.1984 15.5814 10.2376C15.5422 10.2768 15.5086 10.3496 15.5086 10.3944C15.5086 10.4392 15.4862 10.4728 15.4582 10.4728C15.4302 10.4728 15.363 10.5176 15.307 10.568C15.223 10.6576 15.0718 10.6688 14.1702 10.6856C13.5038 10.6968 13.1062 10.7248 13.0726 10.764C13.0334 10.8088 13.039 10.8144 13.0894 10.7864C13.123 10.764 13.1566 10.7752 13.1566 10.8032C13.1566 10.8368 13.1398 10.8648 13.1118 10.8648C13.0894 10.8648 13.067 11.548 13.0614 12.388C13.0558 13.9224 13.067 14.0568 13.2574 14.0568C13.291 14.0568 13.3246 14.0792 13.3358 14.1072C13.347 14.1352 13.7838 14.1688 14.3158 14.18C15.1558 14.2024 15.2958 14.2192 15.3966 14.3088C15.4582 14.3648 15.5086 14.4432 15.5086 14.488C15.5086 14.5272 15.5422 14.5776 15.587 14.5944C15.6318 14.6112 15.6822 14.7512 15.699 14.9136C15.7214 15.0704 15.7662 15.216 15.7942 15.2384C15.8222 15.2552 15.8558 15.356 15.8726 15.4624C15.8838 15.5632 15.923 15.6584 15.951 15.6696C15.9846 15.6808 16.0238 15.776 16.0462 15.8824C16.063 15.9888 16.1022 16.0728 16.1246 16.0728C16.1526 16.0728 16.1862 16.1512 16.2086 16.2408C16.231 16.3304 16.2646 16.4088 16.2926 16.4088C16.3206 16.4088 16.3542 16.4872 16.3766 16.5768C16.399 16.672 16.4326 16.7448 16.4606 16.7448C16.4886 16.7448 16.5222 16.8232 16.5446 16.9128C16.567 17.008 16.6062 17.0696 16.6342 17.0472C16.6622 17.0304 16.6846 17.1648 16.6846 17.3496C16.6846 17.6464 16.6734 17.6856 16.5446 17.7416C16.4662 17.7752 16.4046 17.8312 16.4046 17.8648C16.4046 17.8928 16.203 18.128 15.9566 18.3744C15.7102 18.6264 15.5086 18.8504 15.5086 18.8784C15.5086 18.9064 15.4806 18.9232 15.4414 18.9176C15.3686 18.9008 15.2958 19.136 15.3294 19.276C15.3406 19.332 15.391 19.3768 15.4302 19.3768C15.475 19.3768 15.5086 19.416 15.5086 19.4608C15.5086 19.5056 15.5422 19.5448 15.587 19.5448C15.6262 19.5448 15.6766 19.5952 15.6934 19.6568C15.7102 19.7184 15.7606 19.7688 15.811 19.7688C15.8614 19.7688 15.9006 19.7912 15.9006 19.8248C15.9006 19.892 16.1078 20.1048 16.1694 20.1048C16.1974 20.1048 16.2478 20.1664 16.2926 20.2392C16.3318 20.312 16.4102 20.3904 16.4718 20.4016C16.5334 20.4184 16.567 20.4576 16.5446 20.4912C16.5278 20.5248 16.539 20.5528 16.5726 20.5528C16.651 20.5528 17.4126 21.3088 17.4126 21.3872C17.4126 21.4208 17.4462 21.4432 17.4854 21.432C17.519 21.4264 17.547 21.4488 17.5414 21.488C17.519 21.5832 17.8662 21.3704 17.9726 21.2248C18.0174 21.1632 18.0734 21.1128 18.1014 21.1128C18.1294 21.1128 18.3534 20.9168 18.5942 20.676C18.835 20.4408 19.0646 20.2168 19.1038 20.1888C19.199 20.1104 19.7086 20.0824 19.7086 20.1496C19.7086 20.1832 19.787 20.2224 19.8766 20.2448C19.9718 20.2672 20.0446 20.3008 20.0446 20.3288C20.0446 20.3512 20.1062 20.3904 20.1846 20.4072C20.263 20.4296 20.3134 20.4688 20.2966 20.5024C20.2742 20.5304 20.2798 20.5528 20.3078 20.5416C20.3918 20.5192 20.7166 20.62 20.7166 20.6648C20.7166 20.6928 20.8006 20.732 20.9014 20.7488C20.9966 20.7712 21.0974 20.816 21.1142 20.844C21.131 20.872 21.2542 20.9112 21.383 20.928C21.5062 20.9448 21.6126 20.9784 21.6126 21.0064C21.6126 21.0288 21.747 21.068 21.915 21.0848C22.0942 21.1072 22.2342 21.1576 22.251 21.2024C22.2678 21.2472 22.3238 21.2808 22.3686 21.2808C22.419 21.2808 22.447 21.3032 22.4246 21.3312C22.4078 21.3648 22.447 21.4152 22.5086 21.4488C22.615 21.5048 22.6206 21.5608 22.6206 22.4848C22.6206 23.1008 22.643 23.4648 22.6766 23.4648C22.7102 23.4648 22.7326 23.504 22.7326 23.5488C22.7326 23.6216 22.9566 23.6328 24.4126 23.6328H26.0926L26.0982 22.916C26.1094 21.8688 26.1374 21.5664 26.2326 21.4712C26.2774 21.4208 26.3166 21.3648 26.3166 21.348C26.3166 21.2752 26.675 21.1184 26.9214 21.0848C27.0502 21.0624 27.1566 21.0288 27.1566 21.0008C27.1566 20.9784 27.263 20.9448 27.3862 20.928C27.515 20.9112 27.6382 20.872 27.655 20.8384C27.6774 20.8104 27.8006 20.7656 27.9294 20.7432C28.0638 20.7208 28.1534 20.6928 28.1366 20.676C28.1086 20.6424 28.5958 20.3848 28.6854 20.3848C28.7134 20.3848 28.7974 20.3344 28.8758 20.2728C28.9542 20.2112 29.0382 20.1776 29.0606 20.1888C29.0886 20.2056 29.1222 20.1944 29.1446 20.1608C29.1614 20.1328 29.2846 20.1048 29.4134 20.1048C29.587 20.1048 29.6262 20.1216 29.5646 20.1608C29.4974 20.2056 29.503 20.2168 29.6094 20.2168C29.6766 20.2168 29.7494 20.256 29.7662 20.3008C29.7886 20.3456 29.8222 20.3848 29.8502 20.3848C29.923 20.3848 30.3486 20.8048 30.3486 20.8776C30.3486 20.9168 30.3822 20.9392 30.4214 20.928C30.455 20.9224 30.483 20.9504 30.4774 20.984C30.4662 21.0232 30.4942 21.0568 30.539 21.0568C30.5782 21.0568 30.7182 21.1576 30.847 21.2808C31.0486 21.4768 31.0934 21.4992 31.2222 21.4488C31.4182 21.3704 31.6422 21.1912 31.5974 21.1464C31.575 21.124 31.6142 21.096 31.6814 21.0736C31.7486 21.0568 31.7878 21.0232 31.771 20.9952C31.7542 20.9672 31.7654 20.9448 31.7934 20.9448C31.8494 20.9448 32.1406 20.6872 32.1406 20.6368C32.1406 20.5808 32.9134 19.836 32.9414 19.864C32.9582 19.8752 32.9862 19.836 33.0086 19.7744C33.0254 19.7072 33.0702 19.668 33.0982 19.6848C33.1262 19.7072 33.1486 19.6792 33.1486 19.6344C33.1486 19.584 33.1878 19.5448 33.2326 19.5448C33.2774 19.5448 33.3166 19.5112 33.3166 19.472C33.3166 19.4328 33.367 19.3712 33.4286 19.332C33.5798 19.2424 33.5294 19.136 33.1374 18.7384C32.9582 18.5536 32.8126 18.3688 32.8126 18.3296C32.8126 18.2904 32.7734 18.2568 32.7286 18.2568C32.6838 18.2568 32.6446 18.2288 32.6446 18.2008C32.6446 18.1672 32.5494 18.0496 32.4318 17.932C32.0846 17.5904 31.9558 17.3216 32.0846 17.1928C32.1014 17.176 32.1742 17.036 32.2526 16.8848C32.331 16.728 32.4094 16.5936 32.4318 16.5768C32.4486 16.56 32.4878 16.476 32.5046 16.392C32.527 16.308 32.5662 16.2408 32.5886 16.2408C32.611 16.2408 32.6502 16.1512 32.667 16.0448C32.6894 15.9328 32.7286 15.86 32.7622 15.8768C32.7902 15.8992 32.8126 15.8768 32.8182 15.8376C32.8294 15.6136 32.8854 15.4344 32.9582 15.3616C32.9974 15.3168 33.0366 15.1992 33.0366 15.0928C33.0366 14.992 33.059 14.8968 33.0926 14.8856C33.143 14.8688 33.1934 14.6952 33.199 14.488C33.2046 14.4376 33.2438 14.3928 33.2886 14.3928C33.3278 14.3928 33.3894 14.348 33.4174 14.2976C33.4678 14.2192 33.6134 14.2024 34.4982 14.18C35.2486 14.1632 35.5398 14.1352 35.5958 14.0848C35.6966 13.9784 35.7022 10.8648 35.6014 10.764C35.5566 10.7192 35.3214 10.6968 34.9182 10.6968C33.9046 10.6968 33.5686 10.6464 33.3782 10.4784C33.283 10.3944 33.199 10.2544 33.1822 10.1648C33.1654 10.0808 33.1318 9.99121 33.1038 9.97441C33.0758 9.95761 33.0366 9.82881 33.0198 9.69441C33.003 9.56001 32.9638 9.43121 32.9358 9.41441C32.9022 9.39761 32.863 9.28561 32.8406 9.16801C32.8182 9.05601 32.779 8.96081 32.7566 8.96081C32.7286 8.96081 32.695 8.88241 32.6726 8.79281C32.6502 8.69761 32.611 8.62481 32.583 8.62481C32.555 8.62481 32.5326 8.59681 32.5326 8.56321C32.5326 8.47921 32.2918 7.98641 32.2414 7.96401C32.219 7.95281 32.1854 7.85761 32.163 7.75121C32.1462 7.65041 32.107 7.57761 32.079 7.59441C32.051 7.61121 32.0286 7.56081 32.0286 7.48241C32.0286 7.40401 32.051 7.33681 32.079 7.33681C32.107 7.33681 32.1462 7.27521 32.163 7.19681C32.1854 7.10721 32.2246 7.06801 32.2638 7.09041C32.2974 7.11281 32.3086 7.10721 32.2918 7.07361C32.2582 7.02321 32.4262 6.84401 33.2494 6.03761C33.5686 5.72961 33.5574 5.66241 33.1486 5.25361C32.9638 5.06321 32.8126 4.88961 32.8126 4.86721C32.8126 4.83921 32.7902 4.81681 32.7622 4.81681C32.7342 4.81681 32.5886 4.68801 32.4374 4.53121C32.2918 4.37441 32.135 4.21761 32.1014 4.18401C31.6758 3.78641 31.4686 3.57361 31.4686 3.52881C31.4686 3.50081 31.4126 3.46161 31.3454 3.43921C31.2726 3.41681 31.1942 3.37201 31.1718 3.33841C31.1382 3.29361 31.1158 3.29361 31.0934 3.34401C31.0822 3.38321 31.0318 3.41681 30.9926 3.41681C30.9478 3.41681 30.8862 3.46161 30.8582 3.51761C30.8302 3.57361 30.7406 3.65201 30.6622 3.69681C30.5838 3.73601 30.5166 3.80321 30.5166 3.84241C30.5166 3.87601 30.4662 3.92081 30.399 3.93761C30.3318 3.95441 30.2982 3.99361 30.3206 4.02721C30.3374 4.06081 30.3318 4.08881 30.2982 4.08881C30.2646 4.08881 30.1078 4.21201 29.951 4.36881C29.7942 4.52001 29.6262 4.64881 29.587 4.64881C29.5422 4.64881 29.5086 4.67121 29.5086 4.70481C29.5086 4.77761 29.1894 4.77761 29.1614 4.70481C29.1502 4.67121 29.083 4.63761 29.0102 4.62081C28.9318 4.60961 28.859 4.57041 28.8422 4.54241C28.8198 4.51441 28.7358 4.46961 28.6518 4.45281C28.5678 4.43041 28.5006 4.39121 28.5006 4.36881C28.5006 4.34641 28.4334 4.30721 28.3494 4.28481C28.2654 4.26801 28.1758 4.22321 28.159 4.18961C28.1366 4.15601 28.0526 4.12241 27.963 4.11121C27.879 4.10001 27.795 4.07201 27.7782 4.03841C27.7614 4.01041 27.6494 3.97121 27.5318 3.94881C27.4198 3.92641 27.3246 3.88721 27.3246 3.86481C27.3246 3.84241 27.2126 3.80321 27.0726 3.78641C26.9382 3.76401 26.8094 3.72481 26.7926 3.69121C26.7702 3.66321 26.6974 3.64081 26.6246 3.64081C26.5406 3.64081 26.4342 3.56801 26.3278 3.42801C26.1766 3.23201 26.1598 3.18161 26.1318 2.57681C26.1094 2.22401 26.0926 1.77601 26.0926 1.58561C26.0926 1.23841 26.0926 1.23281 25.9134 1.18241C25.6838 1.12081 22.7214 1.11521 22.7606 1.18241ZM23.6846 6.22801C23.6846 6.27841 23.7014 6.27841 23.7518 6.22801C23.8302 6.14961 25.2302 6.13281 25.275 6.21121C25.2918 6.23361 25.4374 6.27281 25.5998 6.29521C25.7622 6.31761 25.9302 6.36801 25.975 6.40161C26.0422 6.45201 26.0478 6.45201 26.0142 6.39601C25.9918 6.36241 26.003 6.32881 26.031 6.32881C26.0646 6.32881 26.0926 6.35121 26.0926 6.37921C26.0926 6.41281 26.2046 6.45201 26.3446 6.47441C26.4846 6.49121 26.5966 6.53041 26.5966 6.55841C26.5966 6.58081 26.6862 6.62001 26.7926 6.64241C26.899 6.65921 26.9886 6.69841 26.9886 6.72081C26.9886 6.74881 27.0614 6.78241 27.151 6.80481C27.2406 6.82161 27.347 6.87761 27.3862 6.92241C27.4198 6.96721 27.487 7.00081 27.5262 7.00081C27.571 7.00081 27.6046 7.02321 27.6046 7.05681C27.6046 7.08481 27.6438 7.11281 27.6886 7.11281C27.739 7.11281 27.7894 7.15201 27.8062 7.19681C27.8286 7.24161 27.8734 7.28081 27.9182 7.28081C27.963 7.28081 28.0414 7.33121 28.0918 7.39281C28.1478 7.45441 28.2094 7.50481 28.2318 7.50481C28.299 7.50481 28.5006 7.71761 28.5006 7.79041C28.5006 7.81841 28.523 7.83521 28.5566 7.81281C28.5846 7.79601 28.691 7.87441 28.7918 7.98641C28.8926 8.10401 29.0214 8.23281 29.0718 8.27761C29.1222 8.32801 29.1558 8.38401 29.139 8.41201C29.1222 8.43441 29.1502 8.45681 29.195 8.45681C29.2454 8.45681 29.2846 8.49041 29.2846 8.52961C29.2846 8.56881 29.3574 8.66401 29.447 8.74241C29.5366 8.82081 29.6206 8.93281 29.6318 8.98881C29.643 9.05041 29.6878 9.14001 29.7326 9.19041C29.9174 9.40321 29.9454 9.45361 29.9846 9.62161C30.0014 9.72241 30.0406 9.80081 30.0686 9.80081C30.0966 9.80081 30.1358 9.85681 30.1526 9.92401C30.1974 10.0696 30.3318 10.4 30.4046 10.5344C30.4326 10.5848 30.4718 10.7808 30.4942 10.9712C30.5166 11.1616 30.5558 11.3296 30.5782 11.3464C30.6454 11.3856 30.6454 13.4408 30.5782 13.4408C30.5558 13.4408 30.5166 13.5976 30.4942 13.788C30.4774 13.9784 30.4382 14.1464 30.4102 14.1632C30.3822 14.18 30.343 14.3032 30.3206 14.432C30.3038 14.5608 30.2478 14.6784 30.203 14.6952C30.1638 14.712 30.1414 14.7624 30.1582 14.8016C30.175 14.8464 30.147 14.9192 30.1022 14.9696C30.0574 15.0144 30.0014 15.1152 29.979 15.1992C29.9622 15.2776 29.923 15.3448 29.9006 15.3448C29.8782 15.3448 29.839 15.412 29.8222 15.4904C29.783 15.6416 29.7382 15.7088 29.4974 15.9664C29.4134 16.056 29.3294 16.1792 29.3126 16.2408C29.2902 16.3024 29.251 16.3528 29.223 16.3528C29.195 16.3528 29.1726 16.392 29.1726 16.4368C29.1726 16.4872 29.1166 16.5488 29.0494 16.5768C28.9766 16.6048 28.943 16.6272 28.971 16.6272C29.0326 16.6328 28.6238 17.0248 28.3326 17.2488C28.2318 17.3272 28.0694 17.456 27.9742 17.5344C27.879 17.6184 27.7446 17.6968 27.6774 17.7192C27.6046 17.7416 27.5486 17.7808 27.5486 17.8088C27.5486 17.8312 27.487 17.8704 27.4086 17.8872C27.3302 17.9096 27.2686 17.9432 27.2686 17.9712C27.2686 17.9992 27.1902 18.044 27.0894 18.0608C26.9942 18.0832 26.8766 18.1392 26.8318 18.1784C26.7926 18.2232 26.7086 18.2568 26.6526 18.2568C26.5966 18.2568 26.535 18.2792 26.5126 18.3072C26.4958 18.3408 26.3614 18.38 26.2158 18.4024C26.0702 18.4248 25.9414 18.464 25.9246 18.4864C25.9078 18.5144 25.7118 18.548 25.4878 18.5704C25.2638 18.5928 25.0846 18.632 25.0846 18.6544C25.0846 18.6824 24.771 18.7048 24.3846 18.7048C23.9982 18.7048 23.6846 18.6824 23.6846 18.6544C23.6846 18.6264 23.4942 18.5872 23.2646 18.5648C23.035 18.5424 22.8446 18.5032 22.8446 18.4752C22.8446 18.4528 22.7214 18.4136 22.5646 18.3912C22.4134 18.3688 22.2846 18.3352 22.2846 18.3072C22.2846 18.2792 22.2454 18.2568 22.195 18.2568C22.1446 18.2568 22.0662 18.212 22.0214 18.156C21.9766 18.1056 21.9542 18.0944 21.9766 18.128C21.9934 18.1672 21.9822 18.2008 21.9542 18.2008C21.9206 18.2008 21.8926 18.1728 21.8926 18.1448C21.8926 18.1112 21.8422 18.0888 21.7862 18.0888C21.7246 18.0888 21.6406 18.0552 21.6014 18.016C21.5622 17.9712 21.4502 17.9152 21.3606 17.8816C21.2654 17.848 21.1982 17.792 21.2094 17.7584C21.215 17.7248 21.2038 17.7024 21.1814 17.7024C21.0694 17.7192 20.991 17.6912 21.019 17.6464C21.0358 17.6184 20.9854 17.5792 20.9014 17.5568C20.8174 17.54 20.6942 17.4616 20.6214 17.3832C20.5542 17.3104 20.4702 17.2488 20.4366 17.2488C20.4086 17.2488 20.3806 17.2096 20.3806 17.1648C20.3806 17.12 20.347 17.0808 20.3022 17.0808C20.2014 17.0808 19.5406 16.4256 19.5406 16.3248C19.5406 16.2856 19.5014 16.2408 19.4566 16.2184C19.4118 16.2016 19.3726 16.1456 19.3726 16.1008C19.3726 16.0504 19.3502 16.0224 19.3222 16.0448C19.2942 16.0616 19.255 16.0224 19.2326 15.9608C19.2158 15.8992 19.1766 15.8488 19.1486 15.8488C19.1262 15.8488 19.087 15.7872 19.0702 15.7088C19.0478 15.6304 19.0142 15.5688 18.9862 15.5688C18.9582 15.5688 18.919 15.4904 18.8966 15.4008C18.8742 15.3056 18.8406 15.244 18.8126 15.2608C18.7902 15.2776 18.751 15.1992 18.7342 15.0928C18.7118 14.9808 18.6726 14.908 18.6502 14.9248C18.6222 14.936 18.5886 14.852 18.5662 14.7288C18.5494 14.6056 18.5046 14.5048 18.4766 14.5048C18.443 14.5048 18.4206 14.4768 18.4206 14.4432C18.4206 14.4152 18.4486 14.404 18.4878 14.4264C18.5214 14.4488 18.5102 14.4096 18.4598 14.3312C18.4094 14.2584 18.3646 14.1464 18.3646 14.0792C18.3646 14.012 18.3366 13.9448 18.3086 13.9336C18.275 13.9224 18.2358 13.7096 18.2134 13.452C18.1966 13.2 18.1574 12.976 18.1294 12.9592C18.0678 12.92 18.0678 11.8896 18.1294 11.8504C18.1574 11.8336 18.1966 11.6152 18.2134 11.3632C18.2358 11.1056 18.275 10.8872 18.2974 10.8704C18.3254 10.8536 18.3646 10.736 18.387 10.6128C18.415 10.4896 18.4542 10.372 18.4822 10.3552C18.5102 10.3384 18.555 10.2264 18.5718 10.1032C18.5942 9.98561 18.639 9.85121 18.6838 9.81201C18.723 9.77281 18.7566 9.68881 18.7566 9.63281C18.7566 9.57681 18.7958 9.52081 18.8406 9.49841C18.8854 9.48161 18.9246 9.43121 18.9246 9.38081C18.9246 9.33601 18.947 9.29681 18.975 9.29681C19.003 9.29681 19.0422 9.23521 19.059 9.15681C19.0814 9.07841 19.1206 9.01681 19.1486 9.01681C19.1822 9.01681 19.2046 8.97761 19.2046 8.93281C19.2046 8.88241 19.2438 8.83201 19.2886 8.81521C19.3334 8.79281 19.3726 8.74801 19.3726 8.70321C19.3726 8.58001 20.543 7.44881 20.6662 7.44881C20.7222 7.44881 20.767 7.41521 20.7614 7.38161C20.7502 7.34241 20.8006 7.30321 20.8734 7.29201C20.9406 7.28081 21.0358 7.21361 21.0862 7.14081C21.131 7.06801 21.2318 6.99521 21.3102 6.97841C21.383 6.95601 21.4446 6.92241 21.4446 6.89441C21.4446 6.86641 21.523 6.82721 21.6126 6.80481C21.7078 6.78241 21.7806 6.74881 21.7806 6.72081C21.7806 6.69841 21.8702 6.65921 21.9766 6.64241C22.083 6.62001 22.1726 6.58081 22.1726 6.55841C22.1726 6.53041 22.3014 6.49681 22.4526 6.47441C22.6094 6.45201 22.7326 6.41281 22.7326 6.39041C22.7326 6.36241 22.9118 6.32321 23.1246 6.30081C23.343 6.27841 23.5166 6.23921 23.5166 6.21121C23.5166 6.18321 23.5558 6.16081 23.6006 6.16081C23.6454 6.16081 23.6846 6.18881 23.6846 6.22801Z" fill="#25B556"/>
<path d="M24.3723 8.16528C24.1987 8.17648 24.0867 8.22688 23.9691 8.34448C23.8123 8.49568 23.8011 8.54048 23.8011 8.89888C23.8011 9.30208 23.7675 9.35248 23.5155 9.35248C23.4595 9.35248 23.4091 9.37488 23.4091 9.40288C23.4091 9.43088 23.3531 9.47568 23.2915 9.49248C23.1347 9.54288 22.5691 10.1197 22.5691 10.2261C22.5691 10.2709 22.5467 10.3045 22.5187 10.3045C22.4907 10.3045 22.4459 10.4445 22.4291 10.6125C22.4067 10.7805 22.3675 10.9373 22.3395 10.9541C22.2723 10.9933 22.2723 11.2565 22.3395 11.2565C22.3619 11.2565 22.4011 11.3853 22.4179 11.5477C22.4403 11.7045 22.4739 11.8501 22.5019 11.8669C22.5299 11.8837 22.5747 11.9621 22.5971 12.0405C22.6419 12.1861 22.9163 12.4885 23.0059 12.4885C23.0339 12.4885 23.0899 12.5221 23.1235 12.5669C23.1627 12.6117 23.2803 12.6621 23.3867 12.6845C23.4931 12.7013 23.5939 12.7461 23.6107 12.7853C23.6219 12.8245 23.7283 12.8581 23.8403 12.8637C23.9523 12.8693 24.0587 12.8973 24.0755 12.9309C24.0979 12.9589 24.2211 13.0037 24.3499 13.0261C24.4787 13.0485 24.5851 13.0821 24.5851 13.1101C24.5851 13.1325 24.6747 13.1717 24.7811 13.1941C24.8875 13.2109 24.9771 13.2501 24.9771 13.2781C24.9771 13.3061 25.0051 13.3285 25.0387 13.3285C25.2515 13.3285 25.3691 13.9053 25.1787 14.0117C25.1283 14.0397 25.1003 14.0845 25.1171 14.1069C25.1507 14.1685 25.0387 14.2581 24.7699 14.3981C24.5515 14.5101 24.0251 14.5437 24.0251 14.4485C24.0251 14.4205 23.9635 14.3813 23.8851 14.3589C23.8123 14.3421 23.7563 14.2973 23.7619 14.2581C23.7675 14.2245 23.7451 14.2021 23.7059 14.2077C23.6723 14.2189 23.5659 14.0957 23.4707 13.9445C23.3755 13.7877 23.2579 13.6645 23.2131 13.6645C23.1683 13.6645 23.1291 13.6365 23.1291 13.6085C23.1291 13.5749 23.0395 13.5525 22.9331 13.5525C22.8267 13.5525 22.7371 13.5749 22.7371 13.6029C22.7371 13.6309 22.6755 13.6701 22.6027 13.6869C22.5075 13.7093 22.4571 13.7709 22.4291 13.8997C22.4067 14.0005 22.3619 14.1013 22.3339 14.1181C22.3059 14.1349 22.3227 14.2245 22.3731 14.3141C22.4179 14.4037 22.4571 14.5101 22.4571 14.5493C22.4571 14.6277 22.4739 14.6557 22.7819 14.9917C22.8995 15.1261 23.0171 15.2325 23.0395 15.2325C23.0619 15.2325 23.1179 15.2717 23.1627 15.3165C23.2131 15.3613 23.2971 15.4005 23.3587 15.4005C23.4147 15.4005 23.4651 15.4229 23.4651 15.4509C23.4651 15.4789 23.5435 15.5181 23.6331 15.5405C23.7955 15.5741 23.8011 15.5853 23.8011 15.8989C23.8011 16.2797 23.8963 16.5093 24.0699 16.5541C24.1371 16.5765 24.1931 16.6101 24.1931 16.6381C24.1931 16.6661 24.2939 16.6885 24.4171 16.6885C24.5403 16.6885 24.6411 16.6605 24.6411 16.6325C24.6411 16.5989 24.6803 16.5765 24.7251 16.5765C24.7699 16.5765 24.8091 16.5485 24.8091 16.5149C24.8091 16.4869 24.8315 16.4701 24.8539 16.4869C24.8819 16.5037 24.9043 16.4869 24.9099 16.4477C24.9155 16.4085 24.9323 16.1957 24.9547 15.9717C24.9883 15.6077 25.0051 15.5629 25.1227 15.5349C25.1955 15.5181 25.2571 15.4789 25.2571 15.4509C25.2571 15.4229 25.3019 15.4005 25.3635 15.4005C25.4195 15.4005 25.4979 15.3613 25.5371 15.3165C25.5763 15.2717 25.6547 15.2325 25.7107 15.2325C25.7723 15.2325 25.8171 15.2101 25.8171 15.1765C25.8171 15.1485 25.8955 15.0477 25.9851 14.9525C26.0803 14.8573 26.1531 14.7453 26.1531 14.7005C26.1531 14.6557 26.1811 14.6165 26.2091 14.6165C26.2427 14.6165 26.2651 14.5829 26.2651 14.5437C26.2651 14.5101 26.3043 14.4093 26.3491 14.3197C26.4499 14.1293 26.4779 13.3173 26.3883 13.2837C26.3491 13.2725 26.3211 13.2109 26.3211 13.1437C26.3211 12.8637 25.9851 12.4157 25.7219 12.3429C25.6491 12.3261 25.5931 12.2869 25.5931 12.2589C25.5931 12.2309 25.4923 12.1917 25.3691 12.1749C25.2459 12.1525 25.1451 12.1189 25.1451 12.0965C25.1451 12.0685 25.0667 12.0349 24.9715 12.0125C24.8763 11.9901 24.7363 11.9397 24.6523 11.8949C24.5683 11.8501 24.4563 11.8165 24.4059 11.8165C24.3499 11.8165 24.3051 11.7941 24.3051 11.7661C24.3051 11.7381 24.2043 11.7045 24.0755 11.6821C23.8459 11.6429 23.5771 11.4245 23.5771 11.2789C23.5771 11.2341 23.5547 11.2005 23.5211 11.2005C23.4931 11.2005 23.4651 11.1613 23.4651 11.1165C23.4651 11.0717 23.4931 11.0325 23.5211 11.0325C23.5547 11.0325 23.5771 10.9709 23.5771 10.9037C23.5771 10.7301 23.7395 10.5453 23.9299 10.5005C24.0139 10.4781 24.0979 10.4389 24.1147 10.4109C24.1651 10.3269 24.6691 10.3549 24.8651 10.4501C25.0947 10.5677 25.2123 10.6797 25.3467 10.9261C25.4923 11.1837 25.5203 11.2005 25.8787 11.2005C26.1307 11.2005 26.2147 11.1781 26.3099 11.0717C26.5171 10.8533 26.4387 10.3101 26.1699 10.0357C26.1307 9.99088 26.1083 9.93488 26.1251 9.90688C26.1475 9.87888 26.1251 9.85648 26.0859 9.85648C26.0467 9.85648 25.9403 9.77808 25.8507 9.68288C25.7555 9.59328 25.6267 9.50368 25.5539 9.48688C25.4811 9.46448 25.4251 9.43088 25.4251 9.40848C25.4251 9.38608 25.3243 9.35248 25.2011 9.33008C24.9771 9.29648 24.9771 9.29088 24.9771 9.05008C24.9771 8.69168 24.9155 8.28848 24.8595 8.31648C24.8371 8.33328 24.7699 8.29968 24.7139 8.24928C24.6411 8.17648 24.5459 8.15408 24.3723 8.16528Z" fill="#25B556"/>
<path d="M1.39844 33.6006V40.7686H4.25444H7.11044V33.6006V26.4326H4.25444H1.39844V33.6006Z" fill="#25B556"/>
<path d="M13.4398 26.9757C13.3614 26.9925 13.2774 27.0261 13.2438 27.0485C13.2158 27.0709 13.1038 27.1101 12.9974 27.1213C12.891 27.1381 12.7902 27.1773 12.7734 27.2053C12.7566 27.2333 12.6278 27.2725 12.4934 27.2949C12.3534 27.3117 12.2302 27.3509 12.2134 27.3789C12.1966 27.4069 12.0902 27.4461 11.9838 27.4685C11.8774 27.4909 11.7766 27.5301 11.7598 27.5525C11.743 27.5749 11.6254 27.6085 11.4966 27.6253C11.3622 27.6365 11.2278 27.6757 11.1886 27.7093C11.1494 27.7373 11.0094 27.7821 10.8806 27.8045C10.7462 27.8269 10.6398 27.8661 10.6398 27.8885C10.6398 27.9165 10.5278 27.9557 10.3878 27.9781C10.2478 27.9949 10.1358 28.0341 10.1358 28.0565C10.1358 28.0845 10.0126 28.1181 9.85581 28.1405C9.70461 28.1629 9.57581 28.2021 9.57581 28.2301C9.57581 28.2525 9.45261 28.2917 9.29581 28.3141C9.14461 28.3365 9.01581 28.3701 9.01581 28.3981C9.01581 28.4205 8.90381 28.4597 8.76381 28.4821C8.62381 28.4989 8.51181 28.5381 8.51181 28.5661C8.51181 28.5941 8.45021 28.6165 8.38301 28.6165C8.31021 28.6165 8.19261 28.6613 8.13101 28.7229L8.00781 28.8237V33.6453C8.00781 38.3549 8.00781 38.4725 8.11421 38.5285C8.17581 38.5565 8.31021 38.5845 8.42221 38.5845C8.52861 38.5845 8.62381 38.6069 8.63501 38.6405C8.64621 38.6685 8.83661 38.7077 9.06061 38.7301C9.27901 38.7525 9.46381 38.7861 9.46381 38.8085C9.46381 38.8309 9.62061 38.8701 9.81101 38.8869C10.007 38.9093 10.1918 38.9541 10.231 38.9877C10.2814 39.0269 10.3038 39.0269 10.3038 38.9765C10.3038 38.9261 10.3262 38.9261 10.3766 38.9653C10.4102 38.9933 10.5894 39.0381 10.7686 39.0605C10.9422 39.0829 11.0878 39.1165 11.0878 39.1389C11.0878 39.1613 11.1718 39.1837 11.2726 39.1893C11.5526 39.2061 11.7822 39.2621 11.8662 39.3349C11.9278 39.3797 11.939 39.3797 11.9054 39.3293C11.855 39.2397 11.939 39.2341 12.023 39.3181C12.051 39.3461 12.2414 39.3853 12.4374 39.4021C12.6334 39.4189 12.8238 39.4581 12.8574 39.4861C12.8966 39.5141 13.1766 39.5533 13.4902 39.5757C13.843 39.5981 14.039 39.6317 14.0166 39.6653C13.9942 39.7045 14.0278 39.7045 14.1174 39.6765C14.2294 39.6373 17.6902 39.5813 22.495 39.5365C23.2174 39.5309 23.7326 39.5029 23.7102 39.4749C23.6654 39.4021 23.7662 39.4133 23.8502 39.4917C23.9118 39.5477 23.923 39.5477 23.8894 39.4917C23.8614 39.4413 23.9286 39.4245 24.1526 39.4245C24.5726 39.4245 24.9814 39.3629 24.9422 39.3069C24.9254 39.2789 24.9478 39.2565 24.9926 39.2565C25.0374 39.2565 25.1382 39.2061 25.2166 39.1445C25.295 39.0829 25.3902 39.0325 25.435 39.0325C25.4742 39.0325 25.575 38.9709 25.6534 38.8981C25.7318 38.8253 25.855 38.7469 25.9278 38.7245C26.0006 38.7021 26.0958 38.6461 26.1406 38.6069C26.1798 38.5621 26.2638 38.5285 26.3198 38.5285C26.3758 38.5285 26.4318 38.4893 26.4542 38.4445C26.471 38.3997 26.5214 38.3605 26.5718 38.3605C26.6166 38.3605 26.6558 38.3381 26.6558 38.3101C26.6558 38.2821 26.7342 38.2429 26.8238 38.2205C26.919 38.1981 26.9918 38.1589 26.9918 38.1309C26.9918 38.1029 27.0534 38.0693 27.1318 38.0469C27.2102 38.0301 27.2718 37.9909 27.2718 37.9685C27.2718 37.9405 27.3502 37.9069 27.4398 37.8845C27.535 37.8621 27.5966 37.8229 27.5742 37.7949C27.5462 37.7501 27.6246 37.7221 27.7366 37.7389C27.759 37.7445 27.7926 37.7053 27.8094 37.6605C27.8318 37.6157 27.8766 37.5765 27.9158 37.5765C27.9606 37.5765 28.0278 37.5429 28.067 37.5037C28.2126 37.3749 28.711 37.1285 28.7558 37.1733C28.7838 37.1957 28.7838 37.1845 28.7614 37.1453C28.739 37.1005 28.7726 37.0613 28.8678 37.0389C28.9462 37.0221 29.0078 36.9885 29.0078 36.9661C29.0078 36.9437 29.1198 36.8653 29.2598 36.7981C29.3942 36.7309 29.523 36.6525 29.5398 36.6245C29.5566 36.5965 29.6406 36.5629 29.7302 36.5405C29.8198 36.5237 29.9262 36.4677 29.9598 36.4229C29.999 36.3837 30.0494 36.3613 30.0774 36.3781C30.1054 36.3949 30.1278 36.3781 30.1278 36.3501C30.1278 36.3165 30.2566 36.2269 30.419 36.1429C30.5758 36.0645 30.7438 35.9637 30.7886 35.9189C30.8278 35.8741 30.9006 35.8405 30.9454 35.8405C30.9902 35.8405 31.0238 35.8181 31.0238 35.7901C31.0238 35.7621 31.091 35.7229 31.1694 35.7061C31.2534 35.6837 31.3486 35.6389 31.3934 35.5997C31.567 35.4429 31.6286 35.4037 31.7406 35.3701C31.8078 35.3477 31.8638 35.3085 31.8638 35.2805C31.8638 35.2581 31.931 35.2189 32.0094 35.2021C32.0934 35.1797 32.1942 35.1237 32.239 35.0845C32.2838 35.0397 32.3678 35.0005 32.4294 35.0005C32.491 35.0005 32.5246 34.9725 32.5078 34.9445C32.4854 34.9109 32.547 34.8717 32.6422 34.8549C32.7318 34.8325 32.8214 34.7877 32.8382 34.7429C32.855 34.6981 32.9054 34.6645 32.9502 34.6645C32.995 34.6645 33.0398 34.6477 33.051 34.6197C33.0622 34.5973 33.1686 34.5301 33.2918 34.4685C33.415 34.4125 33.5774 34.3173 33.6502 34.2613C33.723 34.2053 33.8294 34.1605 33.8798 34.1605C33.9358 34.1605 33.9918 34.1213 34.0142 34.0765C34.031 34.0317 34.0814 33.9925 34.1262 33.9925C34.171 33.9925 34.2158 33.9757 34.227 33.9477C34.2606 33.8693 34.815 33.6005 34.8598 33.6453C34.8878 33.6677 34.8878 33.6565 34.871 33.6173C34.843 33.5781 34.8934 33.5389 35.0054 33.5165C35.1006 33.4941 35.1622 33.4661 35.1454 33.4437C35.1118 33.4101 35.2742 33.3037 35.5206 33.2029C35.6046 33.1693 35.6718 33.1189 35.6718 33.0965C35.6718 33.0517 35.9462 32.9565 36.0246 32.9789C36.0526 32.9845 36.0582 32.9621 36.0414 32.9341C36.019 32.9061 36.0582 32.8669 36.1198 32.8445C36.1814 32.8277 36.2318 32.7885 36.2318 32.7605C36.2318 32.7325 36.3102 32.6989 36.3998 32.6765C36.495 32.6541 36.5678 32.6149 36.5678 32.5869C36.5678 32.5589 36.5958 32.5365 36.6294 32.5365C36.6966 32.5365 37.363 32.1501 37.4078 32.0829C37.4246 32.0605 37.5086 32.0213 37.5926 32.0045C37.6766 31.9821 37.7438 31.9429 37.7438 31.9149C37.7438 31.8869 37.7718 31.8645 37.8054 31.8645C37.839 31.8645 37.9286 31.8141 38.007 31.7525C38.0854 31.6909 38.1974 31.6405 38.2478 31.6405C38.3038 31.6405 38.3598 31.6013 38.3822 31.5565C38.399 31.5117 38.4494 31.4725 38.4998 31.4725C38.5446 31.4725 38.5838 31.4501 38.5838 31.4221C38.5838 31.3941 38.6622 31.3549 38.7518 31.3325C38.847 31.3101 38.9198 31.2765 38.9198 31.2485C38.9198 31.2261 38.9814 31.1869 39.0598 31.1701C39.1382 31.1477 39.1998 31.1085 39.1998 31.0805C39.1998 31.0469 39.239 31.0245 39.2838 31.0245C39.3342 31.0245 39.3846 30.9909 39.4014 30.9461C39.4182 30.9013 39.5078 30.8453 39.5974 30.8285C39.687 30.8061 39.7598 30.7725 39.7598 30.7445C39.7598 30.7165 39.8102 30.6773 39.8774 30.6605C40.0174 30.6157 40.1742 30.4645 40.2246 30.3301C40.247 30.2741 40.2918 30.2517 40.3254 30.2741C40.3702 30.2965 40.3758 30.2909 40.3534 30.2517C40.331 30.2125 40.3366 30.1845 40.359 30.1845C40.387 30.1845 40.4094 30.1285 40.415 30.0613C40.4206 29.9997 40.4598 29.9213 40.499 29.8989C40.5942 29.8373 40.6054 28.5213 40.5102 28.4597C40.4766 28.4373 40.4262 28.3589 40.4038 28.2805C40.3814 28.2021 40.303 28.0845 40.2302 28.0173C40.1574 27.9501 40.0958 27.8661 40.0958 27.8325C40.0958 27.8045 40.0622 27.7765 40.0174 27.7765C39.9726 27.7765 39.9278 27.7373 39.9054 27.6925C39.8886 27.6477 39.8214 27.6085 39.7598 27.6085C39.6926 27.6085 39.659 27.5861 39.6758 27.5525C39.6926 27.5245 39.6086 27.4853 39.4798 27.4629C39.3566 27.4405 39.2558 27.4069 39.2558 27.3789C39.2558 27.3509 39.043 27.3285 38.7798 27.3285C38.4998 27.3285 38.3038 27.3509 38.3038 27.3845C38.3038 27.4125 38.231 27.4405 38.1414 27.4405C38.0518 27.4405 37.9398 27.4797 37.895 27.5245C37.8502 27.5637 37.7494 27.6197 37.6654 27.6421C37.587 27.6589 37.5198 27.6981 37.5198 27.7261C37.5198 27.7541 37.4694 27.7765 37.4134 27.7765C37.3518 27.7765 37.2678 27.8157 37.223 27.8605C37.1782 27.8997 37.0774 27.9557 36.9934 27.9781C36.915 27.9949 36.8478 28.0341 36.8478 28.0565C36.8478 28.0845 36.775 28.1181 36.6798 28.1405C36.5902 28.1629 36.5118 28.1965 36.5118 28.2245C36.5118 28.2469 36.4446 28.2861 36.3606 28.3085C36.2766 28.3253 36.1926 28.3645 36.1758 28.3813C36.1198 28.4597 35.7782 28.6109 35.8174 28.5437C35.8566 28.4821 35.6326 28.6501 35.5598 28.7341C35.543 28.7565 35.4702 28.7901 35.3918 28.8125C35.3134 28.8349 35.2406 28.8741 35.2238 28.8909C35.207 28.9077 35.0502 28.9973 34.871 29.0869C34.6974 29.1765 34.535 29.2717 34.5182 29.2941C34.5014 29.3221 34.4398 29.3445 34.3782 29.3445C34.3222 29.3445 34.2718 29.3669 34.2718 29.4005C34.2718 29.4285 34.2046 29.4733 34.1206 29.4901C34.0366 29.5125 33.9302 29.5629 33.891 29.6077C33.8518 29.6469 33.779 29.6805 33.7342 29.6805C33.6894 29.6805 33.6558 29.7029 33.6558 29.7309C33.6558 29.7589 33.583 29.7981 33.4878 29.8205C33.3982 29.8429 33.3198 29.8765 33.3198 29.9045C33.3198 29.9325 33.247 29.9661 33.1518 29.9885C33.0622 30.0109 32.9838 30.0445 32.9838 30.0725C32.9838 30.0949 32.9166 30.1341 32.8326 30.1565C32.7486 30.1733 32.6646 30.2125 32.6478 30.2349C32.631 30.2573 32.4182 30.3749 32.1718 30.4981C31.9254 30.6157 31.7126 30.7333 31.6958 30.7557C31.679 30.7725 31.595 30.8117 31.511 30.8285C31.427 30.8509 31.3598 30.8901 31.3598 30.9181C31.3598 30.9461 31.3318 30.9685 31.2982 30.9685C31.2646 30.9685 31.0854 31.0581 30.9062 31.1701C30.727 31.2765 30.531 31.3717 30.4694 31.3773C30.4078 31.3773 30.3686 31.3997 30.3854 31.4221C30.4134 31.4725 30.2678 31.5285 30.1222 31.5285C30.0606 31.5285 30.0214 31.5509 30.0438 31.5789C30.0606 31.6069 30.0158 31.6517 29.9486 31.6741C29.8758 31.6965 29.8086 31.7245 29.7918 31.7469C29.7414 31.8085 29.3886 31.9765 29.3102 31.9765C29.2654 31.9765 29.215 32.0157 29.1982 32.0605C29.1758 32.1053 29.1142 32.1445 29.0582 32.1445C28.9966 32.1445 28.907 32.1949 28.8566 32.2509C28.8062 32.3125 28.7446 32.3517 28.7222 32.3405C28.6998 32.3237 28.6662 32.4637 28.6438 32.6485C28.6214 32.8333 28.5822 32.9845 28.5542 32.9845C28.5262 32.9845 28.5038 33.0125 28.5038 33.0517C28.5038 33.0853 28.459 33.1637 28.4086 33.2253C28.3526 33.2869 28.3414 33.3205 28.375 33.2981C28.4198 33.2757 28.4086 33.3317 28.347 33.4437C28.2966 33.5445 28.235 33.6341 28.2126 33.6453C28.1846 33.6565 28.1678 33.7013 28.1678 33.7461C28.1678 33.7909 28.1286 33.8245 28.0838 33.8245C28.039 33.8245 27.9998 33.8525 27.9998 33.8861C27.9998 33.9533 27.6134 34.3285 27.5462 34.3285C27.5238 34.3285 27.479 34.3621 27.4566 34.4013C27.4342 34.4461 27.3278 34.5189 27.227 34.5693C27.115 34.6197 27.059 34.6309 27.087 34.5917C27.1038 34.5525 27.0702 34.5693 27.0086 34.6197C26.947 34.6757 26.8462 34.7205 26.7846 34.7205C26.7174 34.7205 26.6558 34.7541 26.6446 34.7877C26.611 34.8885 25.2502 34.8885 25.1382 34.7933C25.0934 34.7597 24.9254 34.7093 24.763 34.6869C24.6062 34.6701 24.4718 34.6309 24.4718 34.6085C24.4718 34.5861 24.3374 34.5469 24.1806 34.5301C24.0182 34.5077 23.8558 34.4629 23.8222 34.4349C23.783 34.4069 23.6318 34.3677 23.4806 34.3453C23.335 34.3285 23.195 34.2893 23.1782 34.2613C23.1614 34.2389 23.0158 34.1997 22.859 34.1773C22.6966 34.1605 22.5678 34.1269 22.5678 34.0989C22.5678 34.0765 22.4278 34.0373 22.2598 34.0205C22.0918 33.9981 21.9518 33.9589 21.9518 33.9365C21.9518 33.9141 21.8286 33.8805 21.6718 33.8581C21.5206 33.8357 21.3806 33.7965 21.3638 33.7741C21.347 33.7461 21.1846 33.7069 20.9998 33.6845C20.815 33.6621 20.675 33.6285 20.6918 33.6005C20.703 33.5781 20.591 33.5445 20.4342 33.5277C20.2774 33.5053 20.1206 33.4717 20.0814 33.4437C20.0478 33.4157 19.919 33.3709 19.7958 33.3485C19.6726 33.3261 19.5494 33.2925 19.5158 33.2645C19.4878 33.2421 19.3366 33.2029 19.1798 33.1805C19.0286 33.1525 18.8886 33.1301 18.8718 33.1301C18.855 33.1245 18.8158 33.1077 18.7822 33.0853C18.7542 33.0629 18.5918 33.0293 18.435 33.0069C18.2726 32.9901 18.1438 32.9509 18.1438 32.9229C18.1438 32.8949 18.0934 32.8725 18.0374 32.8725C17.9758 32.8725 17.8582 32.8445 17.7686 32.8053C17.5838 32.7325 17.6174 32.7381 17.3318 32.6821C17.2086 32.6597 17.0854 32.6205 17.0518 32.5925C17.0238 32.5701 16.8782 32.5365 16.7326 32.5197C16.3742 32.4749 16.2118 32.3237 16.2118 32.0269C16.2118 31.8365 16.2454 31.7693 16.3798 31.6629C16.5478 31.5285 16.839 31.4725 16.7718 31.5845C16.7494 31.6181 16.755 31.6349 16.783 31.6293C16.8782 31.6069 17.4102 31.7021 17.4438 31.7525C17.4606 31.7805 17.6118 31.8197 17.7798 31.8365C17.9478 31.8589 18.071 31.8981 18.0542 31.9261C18.0374 31.9541 18.043 31.9765 18.071 31.9709C18.1606 31.9485 18.6758 32.0493 18.743 32.0997C18.7822 32.1333 18.9334 32.1669 19.079 32.1837C19.2246 32.2005 19.359 32.2285 19.3758 32.2565C19.3926 32.2789 19.5102 32.3181 19.6446 32.3405C19.7734 32.3629 19.8798 32.3965 19.8798 32.4189C19.8798 32.4413 19.9582 32.4637 20.059 32.4693C20.1598 32.4805 20.311 32.5197 20.395 32.5645C20.5014 32.6149 20.5406 32.6205 20.5126 32.5757C20.4846 32.5253 20.4958 32.5253 20.5574 32.5701C20.6022 32.6037 20.7534 32.6541 20.899 32.6709C21.0446 32.6933 21.179 32.7325 21.1958 32.7549C21.207 32.7829 21.347 32.8165 21.4982 32.8389C21.6494 32.8613 21.8454 32.9117 21.935 32.9565C22.019 33.0013 22.187 33.0405 22.3046 33.0405C22.4166 33.0405 22.5118 33.0629 22.5118 33.0909C22.5118 33.1245 22.6294 33.1637 22.7806 33.1805C22.9262 33.1973 23.0942 33.2421 23.1558 33.2757C23.2174 33.3093 23.3686 33.3485 23.4918 33.3653C23.615 33.3765 23.7438 33.4101 23.7718 33.4325C23.8054 33.4549 23.9342 33.4941 24.0686 33.5165C24.1974 33.5389 24.2926 33.5725 24.2814 33.5949C24.2646 33.6173 24.343 33.6397 24.455 33.6453C24.567 33.6565 24.707 33.6901 24.7742 33.7293C24.8414 33.7629 24.903 33.7965 24.9198 33.7965C24.9366 33.8021 25.099 33.8245 25.2838 33.8469C25.4686 33.8693 25.6422 33.9085 25.6758 33.9253C25.7822 33.9925 26.0566 33.9925 26.1406 33.9253C26.2134 33.8637 26.219 33.8637 26.1798 33.9365C26.1406 34.0037 26.1462 34.0093 26.2134 33.9533C26.2582 33.9197 26.3702 33.8805 26.4654 33.8637C26.5606 33.8469 26.7006 33.7965 26.779 33.7461C26.8574 33.6957 26.9358 33.6733 26.9526 33.6957C26.975 33.7125 26.9918 33.6901 26.9918 33.6397C26.9918 33.5893 27.0254 33.5445 27.0646 33.5445C27.143 33.5445 27.3278 33.3485 27.3278 33.2645C27.3278 33.2309 27.3558 33.2085 27.3838 33.2085C27.4174 33.2085 27.4622 33.1637 27.479 33.1077C27.5014 33.0573 27.5518 32.9789 27.591 32.9397C27.6302 32.9005 27.6638 32.7941 27.6638 32.7045C27.6638 32.6149 27.6918 32.5253 27.7198 32.5085C27.7926 32.4637 27.7926 31.7693 27.7198 31.7245C27.6918 31.7077 27.6638 31.6517 27.6638 31.6069C27.6638 31.5621 27.6862 31.5397 27.7198 31.5565C27.7702 31.5901 27.6358 31.2989 27.5238 31.1533C27.339 30.8957 26.9078 30.4981 26.807 30.4813C26.7398 30.4701 26.6726 30.4421 26.6558 30.4141C26.639 30.3917 26.527 30.3525 26.4038 30.3301C26.2806 30.3021 26.1686 30.2629 26.1518 30.2405C26.1182 30.1901 25.883 30.1397 25.631 30.1341C25.5414 30.1285 25.4854 30.1061 25.5022 30.0781C25.519 30.0501 25.3846 30.0109 25.1998 29.9885C25.015 29.9661 24.8638 29.9269 24.8638 29.9045C24.8638 29.8765 24.7238 29.8373 24.5558 29.8205C24.3878 29.7981 24.2366 29.7589 24.2198 29.7365C24.203 29.7085 24.091 29.6749 23.9622 29.6525C23.839 29.6301 23.671 29.5797 23.587 29.5349C23.5086 29.4957 23.419 29.4733 23.3966 29.4901C23.3686 29.5069 23.2902 29.4789 23.2286 29.4173C23.1614 29.3613 23.1278 29.3501 23.1502 29.3837C23.1726 29.4285 23.1558 29.4565 23.0998 29.4565C23.0494 29.4565 23.027 29.4285 23.0438 29.4005C23.0662 29.3669 22.999 29.3445 22.8758 29.3445C22.7694 29.3445 22.5958 29.3109 22.495 29.2661C22.3942 29.2269 22.1926 29.1765 22.0526 29.1541C21.907 29.1317 21.7726 29.0925 21.7558 29.0645C21.739 29.0365 21.5878 28.9973 21.4198 28.9805C21.2518 28.9581 21.1118 28.9189 21.1118 28.8965C21.1118 28.8741 21.0054 28.8405 20.8766 28.8181C20.7478 28.7957 20.6022 28.7509 20.5574 28.7117C20.4902 28.6613 20.4846 28.6613 20.5182 28.7117C20.5406 28.7509 20.535 28.7845 20.5014 28.7845C20.4734 28.7845 20.4398 28.7565 20.4286 28.7173C20.4174 28.6837 20.283 28.6445 20.1262 28.6277C19.975 28.6165 19.8462 28.5829 19.835 28.5549C19.8238 28.5269 19.7566 28.5045 19.6894 28.5045C19.6222 28.5045 19.5214 28.4709 19.4598 28.4261C19.3982 28.3869 19.1798 28.3309 18.9726 28.3141C18.7598 28.2917 18.5918 28.2525 18.5918 28.2245C18.5918 28.2021 18.4742 28.1629 18.3286 28.1405C18.1774 28.1181 18.0374 28.0845 18.0038 28.0565C17.9758 28.0341 17.8246 27.9949 17.6678 27.9725C17.5166 27.9501 17.3542 27.9053 17.315 27.8773C17.2758 27.8437 17.1414 27.8045 17.007 27.7933C16.8782 27.7765 16.7438 27.7429 16.7158 27.7205C16.6822 27.6925 16.5254 27.6533 16.363 27.6309C16.2062 27.6141 16.0718 27.5749 16.0718 27.5525C16.0718 27.5245 15.9486 27.4909 15.7918 27.4685C15.6406 27.4461 15.5118 27.4125 15.5118 27.3845C15.5118 27.3621 15.3606 27.3285 15.1758 27.3061C14.991 27.2837 14.8286 27.2445 14.8118 27.2165C14.795 27.1885 14.6606 27.1493 14.515 27.1269C14.3694 27.1045 14.2406 27.0709 14.2238 27.0485C14.1846 26.9925 13.619 26.9421 13.4398 26.9757Z" fill="#25B556"/>
<path d="M16.1191 39.6881C16.1583 39.7049 16.2087 39.6993 16.2255 39.6825C16.2479 39.6657 16.2143 39.6489 16.1527 39.6545C16.0911 39.6545 16.0743 39.6713 16.1191 39.6881Z" fill="#25B556"/>
<path d="M2.56233 40.8637C2.71913 40.8749 2.98793 40.8749 3.15033 40.8637C3.30713 40.8525 3.17833 40.8469 2.85353 40.8469C2.52873 40.8469 2.39993 40.8525 2.56233 40.8637Z" fill="#25B556"/>
<path d="M5.81108 40.8637C6.00148 40.8749 6.31508 40.8749 6.51108 40.8637C6.70148 40.8525 6.54468 40.8469 6.15828 40.8469C5.77188 40.8469 5.61508 40.8525 5.81108 40.8637Z" fill="#25B556"/>
</svg>
