<svg width="63" height="42" viewBox="0 0 63 42" fill="none" xmlns="http://www.w3.org/2000/svg">
<path d="M10.9907 6.21121C10.6132 6.41709 10.6407 5.5318 10.6338 19.0445V31.5416L10.7916 31.672C10.874 31.7406 11.0661 31.8092 11.2171 31.8161C11.3681 31.8298 20.5779 31.8367 31.6818 31.8367C49.6005 31.8436 51.872 31.8573 51.8377 31.9465C51.8034 32.0357 50.9456 32.0494 44.7005 32.0494C37.7622 32.0494 37.5975 32.0494 37.4534 32.1798C37.3642 32.2622 37.3299 32.3583 37.3573 32.4269C37.4054 32.5504 37.1514 32.873 37.0073 32.873C36.9593 32.873 36.9181 32.9073 36.9181 32.9416C36.9181 32.9896 35.1132 33.0102 31.5103 33.0102H26.0956L25.8485 32.7838C25.7044 32.6602 25.5946 32.523 25.5946 32.4749C25.5946 32.4338 25.5671 32.3926 25.526 32.3926C25.4916 32.3926 25.4573 32.3171 25.4573 32.221V32.0494L18.4779 32.0426C14.6348 32.0357 11.4642 32.0357 11.4299 32.0426C11.4024 32.0494 11.3269 32.0151 11.272 31.9671C11.2034 31.9122 11.1554 31.9122 11.1279 31.9602C11.0936 32.0083 10.1259 32.0357 8.19752 32.0426C6.07007 32.0563 5.30144 32.0769 5.26712 32.1387C5.20536 32.2347 5.26712 32.674 5.35634 32.77C5.39065 32.8043 5.41811 32.9347 5.41811 33.0583C5.41811 33.2161 5.45242 33.2847 5.52105 33.2847C5.57595 33.2847 5.62399 33.3053 5.61712 33.3328C5.6034 33.4426 5.7132 33.6965 5.76811 33.6965C5.80242 33.6965 5.82987 33.7583 5.82987 33.8338C5.82987 33.9092 5.87791 33.9916 5.93281 34.0122C5.98771 34.0396 6.03575 34.1014 6.03575 34.1494C6.03575 34.2043 6.07693 34.2661 6.13183 34.2867C6.18673 34.3073 6.21418 34.369 6.1936 34.424C6.17301 34.4789 6.1936 34.52 6.23477 34.52C6.27595 34.52 6.31026 34.5543 6.31026 34.5955C6.31026 34.6916 6.48183 34.8632 6.57791 34.8632C6.61909 34.8632 6.6534 34.8975 6.6534 34.9387C6.6534 35.0347 6.97595 35.3436 7.07203 35.3436C7.10634 35.3436 7.13379 35.371 7.13379 35.4053C7.13379 35.4396 7.20928 35.4877 7.30536 35.5083C7.40144 35.5357 7.47693 35.5769 7.47693 35.6112C7.47693 35.6455 7.56614 35.6936 7.68281 35.721C7.79948 35.7485 7.88869 35.7965 7.88869 35.8308C7.88869 35.8651 7.95046 35.8926 8.02595 35.8926C8.10144 35.8926 8.1632 35.8583 8.1632 35.824C8.1632 35.7279 54.5142 35.7279 54.6995 35.8308C54.7887 35.872 54.8711 35.8789 54.9191 35.8377C54.9671 35.8034 55.1181 35.7553 55.2622 35.7279C55.3995 35.7004 55.5161 35.6524 55.5161 35.6181C55.5161 35.5769 55.5642 35.5494 55.6191 35.5494C55.674 35.5494 55.7701 35.4945 55.8387 35.4259C55.9073 35.3573 56.0652 35.2269 56.1887 35.1445C56.3122 35.0622 56.3946 34.9592 56.374 34.9249C56.3465 34.8906 56.3809 34.8632 56.4358 34.8632C56.4975 34.8632 56.5456 34.8289 56.5456 34.7945C56.5456 34.7534 56.6211 34.6367 56.7171 34.5338C56.8132 34.4308 56.9093 34.2798 56.9299 34.1906C56.9573 34.1083 57.0122 34.0396 57.0671 34.0396C57.122 34.0396 57.1632 33.9985 57.1632 33.9436C57.1632 33.8955 57.2112 33.8132 57.2661 33.7651C57.3279 33.7171 57.3622 33.6347 57.3416 33.5798C57.3211 33.5318 57.3485 33.4906 57.4034 33.4906C57.472 33.4906 57.5063 33.422 57.5063 33.2916C57.5063 33.1818 57.5544 33.0583 57.6093 33.0102C57.7397 32.9004 57.7534 32.2347 57.623 32.1318C57.5681 32.0838 56.5936 32.0563 54.775 32.0426C51.8652 32.0289 51.7897 32.022 52.1877 31.7269L52.3593 31.6034V19.0583C52.3593 7.00729 52.3524 6.50631 52.2358 6.37591C52.1122 6.24552 51.8789 6.24552 31.8534 6.24552C18.3612 6.24552 11.5877 6.22493 11.5603 6.17689C11.5054 6.08082 11.1828 6.1014 10.9907 6.21121ZM49.9848 8.34552C50.0877 8.3867 50.0946 9.3818 50.0946 18.969C50.0877 27.6024 50.074 29.5651 49.9985 29.6612C49.9161 29.7779 48.8799 29.7847 31.5171 29.7847C14.0514 29.7847 13.1181 29.7779 13.022 29.6681C12.9259 29.5583 12.9191 28.6661 12.9397 21.1377C12.9671 11.8592 12.9671 11.5024 12.9397 9.66317C12.9259 8.95631 12.9328 8.36611 12.9534 8.34552C13.0014 8.29062 49.8475 8.29062 49.9848 8.34552Z" fill="#25B556"/>
<path d="M16.6432 12.0579C16.4991 12.0785 16.3344 12.1334 16.2795 12.1883C16.1903 12.2775 16.0393 12.3187 15.8952 12.2912C15.8677 12.2843 15.8266 12.3324 15.806 12.3873C15.7854 12.4422 15.7305 12.4696 15.6893 12.4422C15.6481 12.4147 15.6344 12.4422 15.6619 12.5108C15.6893 12.5863 15.6687 12.6275 15.607 12.6275C15.5452 12.6275 15.4491 12.6892 15.3874 12.7647C15.3187 12.8402 15.2295 12.902 15.1815 12.902C15.1334 12.902 15.0923 12.95 15.0923 13.0049C15.0923 13.0598 15.0442 13.1079 14.9893 13.1079C14.8932 13.1079 14.8726 13.1353 14.8589 13.3275C14.8521 13.3755 14.7834 13.4853 14.7079 13.5677C14.6256 13.6569 14.5364 13.8559 14.5158 14.0138C14.4883 14.1716 14.4334 14.3294 14.3854 14.3569C14.2619 14.4324 14.2687 19.3255 14.3991 19.6C14.6874 20.2245 14.7903 20.4236 14.8383 20.4579C14.8658 20.4785 14.955 20.6157 15.0305 20.7598C15.1815 21.0343 15.4148 21.2677 15.5521 21.2745C15.6001 21.2745 15.7717 21.3706 15.9432 21.4804C16.1217 21.604 16.3824 21.7069 16.5815 21.7343C16.7599 21.7549 16.9246 21.803 16.9452 21.8304C16.9726 21.8647 21.6119 21.8922 27.2599 21.8922L37.5334 21.8991V22.1049C37.5334 22.2216 37.5746 22.3245 37.6295 22.3451C37.6844 22.3657 37.753 22.4755 37.7736 22.5853C37.8011 22.6951 37.8491 22.7981 37.8834 22.8187C37.9177 22.8461 37.9452 22.9696 37.9452 23.1C37.9452 23.2647 37.9795 23.3334 38.0481 23.3334C38.1168 23.3334 38.1511 23.4089 38.1511 23.5736C38.1511 23.704 38.1854 23.8138 38.2266 23.8138C38.2609 23.8138 38.2746 23.8481 38.254 23.8824C38.2334 23.9236 38.2609 23.9991 38.3158 24.0608C38.3775 24.1157 38.4256 24.2255 38.4256 24.301C38.4256 24.3696 38.453 24.4314 38.4873 24.4314C38.5217 24.4314 38.5697 24.5206 38.5972 24.6373C38.6246 24.754 38.6658 24.8432 38.7001 24.8432C38.7275 24.8432 38.7687 24.9667 38.7962 25.1177C38.8168 25.2687 38.8648 25.3922 38.8991 25.3922C38.9334 25.3922 38.9815 25.4951 39.0021 25.6255C39.0295 25.7559 39.0775 25.8726 39.1187 25.8863C39.153 25.9 39.2011 26.0304 39.2285 26.1814C39.2491 26.3324 39.3109 26.4971 39.3658 26.5451C39.4138 26.5932 39.455 26.6961 39.455 26.7716C39.455 26.8402 39.4824 26.902 39.5168 26.902C39.5511 26.902 39.5923 27.0049 39.6128 27.1216C39.6746 27.5265 39.7089 27.6157 39.7844 27.6432C39.8324 27.6569 39.8668 27.7255 39.8668 27.801C39.8668 27.8696 39.8942 27.9314 39.9285 27.9314C39.9628 27.9314 40.004 28.0549 40.0315 28.2059C40.0932 28.5834 40.5736 29.0638 40.9579 29.1324C41.3697 29.201 41.6579 29.1118 41.9393 28.8167C42.0834 28.6657 42.2344 28.5491 42.2756 28.5491C42.3168 28.5491 42.3373 28.501 42.3099 28.4461C42.2413 28.254 42.5021 27.7942 42.6874 27.7942C42.7217 27.7942 42.8521 27.8971 42.9756 28.0206C43.3462 28.4049 43.9638 28.6177 44.0874 28.4118C44.1217 28.3569 44.1628 28.3638 44.2315 28.4187C44.307 28.4804 44.3344 28.4736 44.3687 28.3843C44.3893 28.3226 44.4442 28.2745 44.4785 28.2745C44.5128 28.2745 44.7736 28.0412 45.0619 27.7598C45.3432 27.4785 45.604 27.2451 45.6383 27.2451C45.6726 27.2451 45.7413 27.1696 45.7824 27.0736C45.8236 26.9775 45.8991 26.902 45.954 26.902C46.0021 26.902 46.0432 26.8402 46.0432 26.7716C46.0432 26.6961 46.0707 26.6138 46.1119 26.5932C46.1942 26.5451 46.2079 25.5981 46.1256 25.5981C46.0913 25.5981 46.0295 25.5226 45.9883 25.4334C45.9472 25.3442 45.8511 25.2481 45.7687 25.2206C45.6658 25.1863 45.6315 25.1314 45.6521 25.0422C45.6726 24.9736 45.6589 24.9255 45.6315 24.9461C45.5972 24.9667 45.556 24.953 45.5285 24.9118C45.5079 24.8775 45.5217 24.8432 45.556 24.8432C45.5972 24.8432 45.6315 24.802 45.6315 24.7471C45.6315 24.6922 45.7275 24.6304 45.8374 24.603C45.954 24.5755 46.0432 24.5275 46.0432 24.4932C46.0432 24.4589 46.1393 24.4314 46.2491 24.4314C46.3864 24.4314 46.455 24.3971 46.455 24.3285C46.455 24.2736 46.503 24.2255 46.5579 24.2255C46.6128 24.2255 46.6609 24.1775 46.6609 24.1226C46.6609 24.0677 46.6883 24.0196 46.7226 24.0196C46.757 24.0196 46.8187 23.8687 46.8599 23.6902C46.9079 23.4432 46.9079 23.2922 46.8393 23.1C46.7364 22.8049 46.407 22.4206 46.3109 22.4824C46.2766 22.503 46.2491 22.4824 46.2491 22.4481C46.2491 22.4069 46.2079 22.3726 46.1668 22.3726C46.1187 22.3657 45.954 22.3108 45.803 22.2353C45.6521 22.1598 45.4942 22.1049 45.453 22.0981C45.3295 22.0981 45.2746 21.8922 45.3913 21.8922C45.4462 21.8922 45.4942 21.9196 45.4942 21.9608C45.4942 21.9951 45.5423 22.0294 45.604 22.0294C45.6589 22.0294 45.6864 21.9951 45.6658 21.9608C45.6246 21.8991 45.9197 21.8579 46.1668 21.8853C46.2079 21.8922 46.2491 21.8647 46.2491 21.8304C46.2491 21.7961 46.3452 21.7687 46.4619 21.7687C46.5854 21.7755 46.7158 21.7275 46.757 21.6726C46.7981 21.6177 46.9491 21.5285 47.0932 21.4804C47.2305 21.4255 47.3472 21.3638 47.3472 21.3363C47.3472 21.3089 47.4089 21.2745 47.4844 21.254C47.5599 21.2334 47.6423 21.1647 47.6628 21.103C47.6903 21.0412 47.8413 20.8491 48.006 20.6775C48.1707 20.5059 48.3079 20.3275 48.3079 20.2863C48.3079 20.2451 48.3834 20.053 48.4795 19.8677L48.6442 19.5245L48.6511 16.9716C48.6511 15.2765 48.6305 14.4049 48.5824 14.3775C48.5413 14.35 48.5275 14.2745 48.5481 14.1991C48.5756 14.1304 48.5687 14.0687 48.5344 14.0687C48.5001 14.0687 48.4177 13.9314 48.3423 13.7598C48.2668 13.5883 48.1844 13.451 48.157 13.451C48.1226 13.451 48.1089 13.4304 48.1158 13.3961C48.157 13.204 47.7246 12.7373 47.2991 12.5177C47.155 12.4491 47.0246 12.3667 47.0177 12.3324C47.004 12.3049 46.8736 12.2638 46.7226 12.2432C46.5648 12.2157 46.455 12.1608 46.455 12.1059C46.455 12.0304 44.0668 12.0167 31.6864 12.0236C23.5609 12.0304 16.7874 12.0442 16.6432 12.0579ZM45.9609 13.554C45.9883 13.5883 46.153 13.6912 46.3383 13.7736C46.5168 13.8628 46.6609 13.9657 46.6609 14.0069C46.6609 14.0961 46.8324 14.2745 46.9217 14.2745C47.004 14.2745 47.1413 14.7412 47.0932 14.8647C47.0726 14.9196 47.0932 14.9608 47.1344 14.9608C47.1962 14.9608 47.2099 15.5098 47.2099 16.9922C47.203 18.7422 47.1824 19.051 47.0864 19.2363C47.0246 19.3598 46.9491 19.4628 46.9217 19.4765C46.8874 19.4902 46.8668 19.5383 46.8668 19.5863C46.8668 19.6824 46.407 20.1079 46.3109 20.1079C46.2766 20.1079 46.2491 20.1353 46.2491 20.1628C46.2491 20.1971 46.2079 20.2245 46.1668 20.2314C46.1187 20.2383 45.8923 20.2726 45.6658 20.3069C45.0893 20.3961 41.2599 20.403 41.205 20.3138C41.1844 20.2794 41.1089 20.2451 41.0403 20.2451C40.9717 20.2451 40.8207 20.1971 40.7177 20.1422C40.6079 20.0873 40.4638 20.0393 40.4021 20.0393C40.3334 20.0393 40.2785 20.0118 40.2785 19.9775C40.2785 19.9432 40.1756 19.8883 40.0589 19.8677C39.9354 19.8402 39.805 19.7922 39.7638 19.7647C39.7295 19.7373 39.5923 19.6893 39.4756 19.6618C39.3521 19.6412 39.2491 19.5863 39.2491 19.5589C39.2491 19.5245 39.1324 19.4765 38.9952 19.4491C38.8511 19.4216 38.6726 19.3598 38.5972 19.3118C38.5217 19.2569 38.4119 19.2157 38.3501 19.2157C38.2815 19.2157 38.2197 19.1745 38.1991 19.1265C38.1785 19.0647 38.1305 19.0647 37.9864 19.1471C37.8834 19.202 37.705 19.2363 37.5952 19.2294C37.4717 19.2226 37.3962 19.2432 37.3962 19.3049C37.3962 19.353 37.3344 19.4422 37.2589 19.5108C37.1834 19.5726 37.1217 19.6687 37.1217 19.7236C37.1217 19.7785 37.0873 19.8334 37.0393 19.8471C36.9913 19.8677 36.9638 19.9775 36.9707 20.1353L36.9913 20.3893L27.0128 20.3687C19.1893 20.3549 17.0138 20.3275 16.9315 20.2657C16.8766 20.2177 16.8079 20.1971 16.7874 20.2245C16.7599 20.2451 16.7393 20.2314 16.7393 20.1902C16.7393 20.1491 16.6775 20.0942 16.5952 20.0736C16.4305 20.0187 16.1903 19.7991 16.1903 19.703C16.1903 19.6687 16.1491 19.5932 16.1011 19.5451C15.9707 19.401 15.8472 19.0922 15.8883 18.9824C15.9089 18.9275 15.8952 18.8657 15.854 18.8383C15.7648 18.7834 15.7511 15.0569 15.8403 15.002C15.8677 14.9814 15.9158 14.8304 15.9295 14.6657C15.957 14.4392 16.0256 14.302 16.2109 14.1167C16.3413 13.9726 16.4854 13.8628 16.5266 13.8628C16.5677 13.8628 16.6021 13.8353 16.6021 13.7942C16.6021 13.7598 16.6775 13.7118 16.7736 13.6843C16.8697 13.6638 16.9452 13.6157 16.9452 13.5883C16.9452 13.554 17.0138 13.5196 17.103 13.5059C17.5217 13.4442 45.9128 13.4922 45.9609 13.554ZM38.906 20.8285C38.9609 20.8696 39.0844 20.9108 39.1805 20.9177C39.2766 20.9245 39.3589 20.9589 39.3726 21C39.3864 21.0343 39.4481 21.0687 39.5099 21.0687C39.5785 21.0755 39.7501 21.1304 39.9011 21.2059C40.0521 21.2814 40.2305 21.3363 40.2991 21.3432C40.3609 21.3432 40.4158 21.3706 40.4158 21.4049C40.4158 21.4393 40.505 21.4873 40.6217 21.5147C40.7315 21.5422 40.8413 21.5902 40.8619 21.6245C40.8893 21.6589 40.9785 21.6863 41.0746 21.6863C41.1638 21.6863 41.2393 21.7206 41.2393 21.7618C41.2393 21.803 41.2873 21.8236 41.3423 21.7961C41.404 21.7755 41.4452 21.7961 41.4452 21.8647C41.4452 21.9402 41.4864 21.9677 41.5756 21.9402C41.6579 21.9196 41.7266 21.9471 41.7472 22.0089C41.7677 22.0569 41.8226 22.0981 41.8707 22.0843C42.0148 22.0569 42.4746 22.1667 42.4746 22.2285C42.4746 22.2628 42.5775 22.3108 42.7079 22.3314C42.8383 22.3589 42.955 22.4 42.9687 22.4275C43.0099 22.5304 43.5726 22.7843 43.7511 22.7843C43.854 22.7843 43.9707 22.8324 44.0119 22.8873C44.053 22.9491 44.1903 22.9971 44.307 23.0108C44.4305 23.0177 44.5334 23.0451 44.5334 23.0657C44.5334 23.0932 44.6089 23.1343 44.705 23.1549C44.8011 23.1824 44.8697 23.2236 44.8628 23.251C44.8628 23.2785 44.8766 23.354 44.904 23.4157C44.9726 23.5667 44.8079 23.7451 44.6089 23.7451C44.4854 23.7451 44.1834 23.8687 43.7648 24.0951C43.6962 24.1294 43.5658 24.1569 43.4697 24.1569C43.3256 24.1569 43.2981 24.1912 43.2981 24.3628C43.2981 24.5275 43.4011 24.6785 43.7854 25.0834C44.053 25.3647 44.3275 25.6118 44.3893 25.6324C44.4511 25.653 44.5677 25.7834 44.657 25.9138L44.8079 26.1608L44.3687 26.6C43.957 27.0118 43.7785 27.1216 43.7785 26.9775C43.7785 26.9432 43.6687 26.8471 43.5383 26.7579C43.4079 26.6687 43.2981 26.552 43.2981 26.504C43.2981 26.4628 43.2501 26.4216 43.1952 26.4216C43.1403 26.4216 43.0923 26.3873 43.0923 26.3461C43.0923 26.2775 42.9275 26.0785 42.8658 26.0785C42.8452 26.0785 42.6874 25.9412 42.5089 25.7628C42.207 25.4745 41.9599 25.3922 41.9599 25.5775C41.9599 25.6187 41.9393 25.6804 41.9119 25.7079C41.8775 25.7353 41.857 25.8314 41.857 25.9206C41.857 26.003 41.8295 26.0785 41.7952 26.0785C41.7609 26.0785 41.7128 26.2157 41.6923 26.3873C41.6648 26.5589 41.6236 26.6961 41.5962 26.6961C41.5344 26.6961 41.3423 27.1491 41.2736 27.4373C41.2119 27.7324 41.0883 27.6294 41.0883 27.2863C41.0883 27.1285 41.054 27.0393 40.9991 27.0393C40.9511 27.0393 40.8893 26.9432 40.8619 26.8334C40.8344 26.7167 40.7932 26.6275 40.7658 26.6275C40.7315 26.6275 40.6903 26.4971 40.6697 26.3461C40.6491 26.1883 40.6011 26.0373 40.5668 26.0167C40.5256 25.9961 40.4707 25.8863 40.4501 25.7834C40.4226 25.6804 40.3815 25.5981 40.354 25.5981C40.3334 25.5981 40.306 25.5157 40.306 25.4196C40.2923 25.2549 40.0246 24.6442 39.9285 24.5687C39.9011 24.5481 39.8599 24.4245 39.8324 24.2942C39.805 24.1638 39.7432 23.9853 39.6883 23.903C39.6334 23.8206 39.5923 23.704 39.5923 23.6422C39.5923 23.5873 39.5648 23.5393 39.5236 23.5393C39.4893 23.5393 39.4756 23.4912 39.4962 23.4363C39.5236 23.3814 39.503 23.3334 39.455 23.3334C39.407 23.3334 39.3864 23.2922 39.407 23.2373C39.4481 23.1343 39.2011 22.5785 39.1119 22.5785C39.0844 22.5785 39.0364 22.4412 39.0158 22.2696C38.9883 22.0981 38.9403 21.9608 38.8991 21.9608C38.8648 21.9608 38.8373 21.9196 38.8373 21.8716C38.8305 21.8304 38.7756 21.6657 38.7001 21.5147C38.6246 21.3638 38.5697 21.2059 38.5628 21.1579C38.5628 21.1167 38.5285 21.0687 38.4942 21.0549C38.4462 21.0412 38.453 20.9726 38.5079 20.8559C38.5972 20.6706 38.6932 20.6638 38.906 20.8285Z" fill="#25B556"/>
<path d="M16.9776 15.3664C16.9638 15.3801 16.9501 16.0183 16.9501 16.787C16.9501 17.837 16.9295 18.1801 16.8678 18.2075C16.7991 18.2281 16.806 18.2624 16.8815 18.3448C16.9638 18.4272 17.1697 18.4546 17.8766 18.4615C18.3707 18.4683 18.8442 18.4615 18.9403 18.4409C19.1599 18.4066 19.4207 18.2487 19.4207 18.1458C19.4207 18.1046 19.4687 18.0291 19.5237 17.9811C19.5854 17.933 19.6335 17.7683 19.6403 17.5762C19.6472 17.3223 19.654 17.3017 19.6746 17.487C19.6952 17.6105 19.7501 17.734 19.805 17.7546C19.8599 17.7752 19.9011 17.8301 19.9011 17.8781C19.9011 17.9262 19.9491 17.9811 20.004 18.0085C20.0589 18.0291 20.107 18.0909 20.107 18.1526C20.107 18.2075 20.155 18.2556 20.2099 18.2556C20.2648 18.2556 20.3129 18.283 20.3129 18.3242C20.3129 18.3585 20.354 18.3928 20.4089 18.3928C20.4638 18.3928 20.5599 18.4409 20.6148 18.4958C20.6972 18.585 20.7521 18.5919 20.8687 18.5232C20.9854 18.4683 21.054 18.4683 21.1776 18.537C21.3011 18.5987 21.3629 18.6056 21.4178 18.5507C21.4795 18.4889 21.5344 18.4958 21.6305 18.5507C21.7403 18.6193 21.7815 18.6124 21.8501 18.5095C21.8982 18.4477 21.9737 18.3928 22.0217 18.3928C22.0629 18.3928 22.0972 18.3585 22.0972 18.3242C22.0972 18.283 22.1315 18.2556 22.1727 18.2556C22.2756 18.2556 22.5776 17.9674 22.5776 17.8713C22.5776 17.8232 22.6187 17.7134 22.6737 17.6105C22.7629 17.4389 22.7697 17.4389 22.8795 17.5556C22.9413 17.6242 22.9687 17.7066 22.9482 17.7272C22.9207 17.7546 22.955 17.7889 23.0168 17.8164C23.0786 17.837 23.1266 17.8987 23.1266 17.9536C23.1266 18.0085 23.1609 18.0497 23.1952 18.0497C23.2364 18.0497 23.3393 18.1183 23.4217 18.2075C23.504 18.2968 23.6687 18.4272 23.7923 18.4958C23.9844 18.6124 24.0325 18.6124 24.1903 18.5301C24.3344 18.4546 24.3962 18.4477 24.506 18.5232C24.5952 18.5713 24.6776 18.585 24.7256 18.5438C24.7737 18.5095 24.8972 18.4615 25.0001 18.434C25.1099 18.4066 25.2815 18.3105 25.3776 18.2213C25.4805 18.1252 25.5835 18.0497 25.6109 18.0497C25.6452 18.0497 25.6658 18.0017 25.6658 17.9468C25.6658 17.8919 25.6933 17.8438 25.7344 17.8438C25.7687 17.8438 25.8168 17.734 25.8442 17.6036C25.8648 17.4732 25.9129 17.3428 25.9472 17.3223C26.0227 17.2742 26.0295 16.5399 25.954 16.5399C25.8923 16.5399 25.8854 16.4919 25.8648 16.1624C25.858 16.0664 25.8099 15.9909 25.755 15.9909C25.7001 15.9909 25.6727 15.9634 25.6933 15.936C25.7413 15.8536 25.4942 15.6546 25.1031 15.4487C24.8354 15.3046 24.7325 15.2909 24.2864 15.3183C24.0119 15.3389 23.7717 15.3938 23.758 15.435C23.7442 15.4762 23.6893 15.5105 23.6413 15.5105C23.5933 15.5105 23.4217 15.634 23.2638 15.7781C22.9893 16.0321 22.9756 16.0732 22.9413 16.4987C22.9207 16.7526 22.8795 16.9723 22.8521 16.986C22.8246 16.9997 22.7835 16.8419 22.7629 16.6291C22.7423 16.4164 22.6942 16.2242 22.6599 16.2036C22.6256 16.183 22.5707 16.087 22.5433 15.9977C22.4884 15.8193 22.1795 15.5174 22.0491 15.5105C22.008 15.5105 21.9599 15.4762 21.9462 15.4281C21.905 15.3183 20.5874 15.3115 20.4501 15.4213C19.9491 15.833 19.8325 15.9497 19.8325 16.0526C19.8325 16.1144 19.7982 16.2036 19.757 16.2448C19.7089 16.2928 19.6746 16.5124 19.6678 16.7389C19.6609 17.0546 19.6403 17.1301 19.5786 17.0752C19.5305 17.034 19.5099 16.9791 19.5305 16.9448C19.5511 16.9105 19.5237 16.9036 19.4687 16.9242C19.3384 16.9723 19.3521 16.7595 19.4962 16.4919C19.5648 16.3752 19.5991 16.2585 19.5717 16.2311C19.5442 16.2105 19.5237 16.0938 19.5168 15.9703C19.5099 15.833 19.4482 15.7095 19.3452 15.634C19.256 15.5654 19.1393 15.4762 19.0844 15.435C19.0021 15.3595 17.0462 15.2977 16.9776 15.3664ZM18.3227 16.2997C18.3707 16.3546 18.3844 16.4026 18.3501 16.4095C18.3158 16.4095 18.2335 16.4232 18.1717 16.437C18.0893 16.4507 18.0482 16.4164 18.0482 16.3272C18.0482 16.1693 18.206 16.1556 18.3227 16.2997ZM21.3697 16.3752C21.4315 16.3958 21.4795 16.4713 21.4795 16.5399C21.4795 16.6085 21.5344 16.7183 21.5962 16.7801C21.6854 16.8762 21.6923 16.9242 21.6305 17.0272C21.5825 17.0958 21.5482 17.1987 21.5482 17.2468C21.5482 17.3428 21.308 17.5693 21.1982 17.5693C20.958 17.5693 20.7452 16.7938 20.9305 16.5742C20.9786 16.5193 20.9923 16.4713 20.958 16.4713C20.8687 16.4713 21.0884 16.334 21.1844 16.334C21.2256 16.334 21.308 16.3546 21.3697 16.3752ZM24.6158 16.4507C24.6433 16.5193 24.6913 16.5948 24.7325 16.6223C24.8491 16.6977 24.8011 17.1919 24.6638 17.3909C24.5884 17.487 24.4648 17.5693 24.3825 17.5693C24.2109 17.5693 24.1697 17.4664 24.3138 17.4115C24.3756 17.3909 24.3756 17.3566 24.3001 17.2879C24.2315 17.2124 24.1972 17.2124 24.1766 17.2742C24.1011 17.4938 24.0256 17.3291 24.0393 16.9654C24.0531 16.6154 24.0668 16.5742 24.2109 16.5536C24.2933 16.5399 24.3619 16.485 24.3619 16.4301C24.3619 16.2928 24.5609 16.3134 24.6158 16.4507ZM22.9207 17.3017C22.9207 17.336 22.8933 17.3634 22.8521 17.3634C22.8178 17.3634 22.7835 17.3154 22.7835 17.2536C22.7835 17.1987 22.8178 17.1713 22.8521 17.1919C22.8933 17.2124 22.9207 17.2605 22.9207 17.3017ZM18.3913 17.5144C18.3913 17.6448 18.3776 17.6517 18.3158 17.5693C18.2609 17.4938 18.2335 17.487 18.206 17.5487C18.1511 17.686 18.0482 17.6517 18.0482 17.5007C18.0482 17.3977 18.0962 17.3634 18.2197 17.3634C18.3501 17.3634 18.3913 17.3977 18.3913 17.5144Z" fill="#25B556"/>
<path d="M26.2018 15.4207C26.1881 15.4894 26.1813 16.2031 26.195 16.9992L26.2156 18.4609H26.7234C27.1695 18.4609 27.2381 18.4472 27.2381 18.3374C27.2381 18.2345 27.2518 18.2345 27.3136 18.3237C27.3685 18.406 27.3754 18.3923 27.3411 18.2619C27.3067 18.159 27.3273 18.0835 27.3822 18.0423C27.4577 17.9943 27.4646 17.96 27.396 17.8433C27.293 17.6786 27.2862 17.6374 27.3685 17.6374C27.4028 17.6374 27.4509 17.7266 27.4783 17.8433C27.5058 17.9531 27.5469 18.0492 27.5813 18.0492C27.6087 18.0492 27.6499 18.1109 27.6705 18.1864C27.6911 18.2619 27.6773 18.3237 27.643 18.3237C27.6087 18.3237 27.5813 18.3511 27.5813 18.3854C27.5813 18.4198 27.9038 18.4472 28.3018 18.4541C28.892 18.4678 29.0293 18.4472 29.0636 18.3649C29.0842 18.3031 29.0567 18.207 28.995 18.1521C28.9332 18.0903 28.8852 18.008 28.8852 17.9737C28.8852 17.9325 28.844 17.857 28.8028 17.809C28.5969 17.5825 28.542 17.5002 28.542 17.4384C28.542 17.4041 28.4871 17.3217 28.4254 17.2531C28.2813 17.109 28.2881 16.6492 28.4322 16.4982C28.494 16.4433 28.542 16.3472 28.542 16.2923C28.542 16.2374 28.5901 16.1962 28.645 16.1962C28.6999 16.1962 28.7479 16.1413 28.7479 16.0727C28.7479 16.0109 28.796 15.8943 28.8509 15.8256C28.995 15.6335 28.9813 15.3727 28.8371 15.3658C28.7685 15.3658 28.494 15.3521 28.2195 15.3384L27.7254 15.3178L27.6842 15.5168C27.6362 15.7227 27.5538 15.7707 27.4783 15.6472C27.4509 15.606 27.4097 15.5923 27.3754 15.6129C27.3479 15.6335 27.3067 15.5854 27.2862 15.51C27.2587 15.3933 27.1901 15.3727 26.8401 15.3727C26.6136 15.3727 26.3803 15.3521 26.3254 15.3315C26.2636 15.3109 26.2156 15.3453 26.2018 15.4207ZM27.4646 15.9766C27.4234 16.1413 27.3067 16.1825 27.3067 16.0384C27.3067 15.9492 27.4509 15.7707 27.4852 15.8051C27.4989 15.8188 27.492 15.8943 27.4646 15.9766Z" fill="#25B556"/>
<path d="M30.9166 15.4622C30.594 15.6407 30.3264 15.9014 30.3264 16.0318C30.3264 16.0867 30.2989 16.1279 30.2715 16.1279C30.1342 16.1279 30.0656 16.6495 30.1205 17.2122C30.1686 17.6858 30.2097 17.8093 30.347 17.9397C30.4431 18.0289 30.5529 18.1661 30.594 18.2416C30.6421 18.324 30.7244 18.3926 30.7931 18.3926C30.8548 18.3926 30.9989 18.4407 31.1088 18.4956C31.3284 18.6122 31.5342 18.626 31.5891 18.5367C31.6097 18.5024 31.7882 18.475 31.9872 18.475C32.2342 18.475 32.3646 18.4407 32.4195 18.3652C32.4676 18.3034 32.5362 18.2554 32.5774 18.2554C32.694 18.2554 32.9274 17.9809 33.0784 17.6789C33.1744 17.4799 33.2088 17.2603 33.2088 16.8691C33.2088 16.574 33.1813 16.3338 33.147 16.3338C33.1127 16.3338 33.0646 16.2514 33.0372 16.1485C33.0166 16.0456 32.8588 15.8328 32.694 15.675C32.4607 15.4554 32.3166 15.3799 32.0695 15.3456C31.5137 15.2701 31.198 15.3044 30.9166 15.4622ZM31.7264 16.4024C31.8499 16.4024 32.0421 16.773 32.0421 17.0063C32.0421 17.123 31.9735 17.2809 31.8705 17.3907L31.6921 17.5828L31.4588 17.3975C31.246 17.2397 31.2186 17.1779 31.2186 16.924C31.2186 16.7181 31.2529 16.6083 31.3215 16.5809C31.3764 16.5603 31.4244 16.4916 31.4244 16.4299C31.4244 16.3544 31.4588 16.3338 31.5342 16.3612C31.596 16.3818 31.6784 16.4024 31.7264 16.4024Z" fill="#25B556"/>
<path d="M33.4507 15.4344C33.4232 15.5373 33.3889 17.7402 33.4163 18.3716C33.4163 18.4334 33.5673 18.4608 33.931 18.4608C34.5144 18.4608 34.4663 18.5157 34.4458 17.7677C34.4389 17.4108 34.4595 17.3079 34.5418 17.2736C34.6242 17.2393 34.6516 17.2736 34.6516 17.3971C34.6516 17.5069 34.6928 17.5687 34.7546 17.5687C34.8095 17.5687 34.8575 17.6099 34.8575 17.6579C34.8575 17.7059 34.9193 17.7951 34.9948 17.8638C35.0703 17.9255 35.132 18.0216 35.132 18.0765C35.132 18.1314 35.2075 18.2344 35.3036 18.3099C35.3997 18.3853 35.4752 18.4814 35.4752 18.5226C35.4752 18.6255 35.5918 18.6187 35.633 18.5089C35.6536 18.4471 35.681 18.4471 35.7634 18.5157C35.8458 18.5844 35.8869 18.5844 35.9212 18.5226C35.9487 18.4814 36.0516 18.4608 36.1546 18.4814C36.2918 18.5089 36.3605 18.4814 36.4222 18.3922C36.4771 18.303 36.4771 18.2481 36.4291 18.2206C36.3879 18.1932 36.3673 17.6922 36.3673 16.8961C36.3673 16.1893 36.3742 15.551 36.3673 15.4755C36.3673 15.352 36.3261 15.3383 35.9212 15.3383C35.6742 15.3451 35.4409 15.3795 35.3997 15.4206C35.3516 15.4687 35.3173 15.702 35.3173 15.9559C35.3173 16.3334 35.3036 16.402 35.2075 16.3883C35.132 16.3677 35.1046 16.3059 35.1183 16.1687C35.132 16.0177 35.1183 15.9834 35.0359 16.0108C34.9742 16.0383 34.9261 16.0177 34.9261 15.9765C34.9261 15.9353 34.8507 15.8393 34.7683 15.7569C34.6791 15.6746 34.5761 15.5579 34.5418 15.4961C34.5007 15.4275 34.3222 15.3795 33.9859 15.3451C33.5399 15.3108 33.4918 15.3177 33.4507 15.4344Z" fill="#25B556"/>
<path d="M36.8467 15.3727C36.7849 15.4139 36.7437 17.1776 36.7781 18.3717C36.7781 18.4403 37.032 18.4609 37.8075 18.4609H38.8369V18.2002C38.8369 18.056 38.8712 17.9051 38.9192 17.857C38.9741 17.8021 38.9741 17.7541 38.9055 17.6717C38.8438 17.5962 38.6928 17.5688 38.3839 17.5688H37.9447V16.5119C37.9447 15.7433 37.9241 15.4345 37.8624 15.4002C37.7526 15.3315 36.9428 15.3109 36.8467 15.3727Z" fill="#25B556"/>
<path d="M39.1259 15.3592C39.0641 15.3798 39.0435 15.771 39.0435 16.8896C39.0435 17.8435 39.0161 18.3926 38.9749 18.3926C38.9406 18.3926 38.9062 18.4132 38.9062 18.4475C38.9062 18.5024 39.97 18.4886 40.121 18.4337C40.2445 18.3857 40.2513 15.4759 40.1278 15.3935C40.0317 15.3386 39.27 15.3112 39.1259 15.3592Z" fill="#25B556"/>
<path d="M40.5566 15.4071C40.5085 15.462 40.4948 15.9836 40.5017 16.9581L40.5222 18.4268L40.6938 18.4473C40.7899 18.4611 40.8997 18.5022 40.9477 18.5366C40.9958 18.5846 41.0438 18.5777 41.0713 18.5297C41.0919 18.4954 41.2017 18.4611 41.3183 18.4611C41.4281 18.4611 41.5173 18.4405 41.5242 18.4062C41.5517 18.1728 41.5722 18.063 41.6134 17.9258C41.6477 17.8297 41.634 17.7268 41.5791 17.665C41.5379 17.6101 41.5173 17.5415 41.5448 17.5209C41.5722 17.4934 41.6203 17.5071 41.6477 17.562C41.682 17.6101 41.7438 17.6444 41.7987 17.6375C41.9977 17.6101 42.0526 17.6444 42.0938 17.8091C42.1213 17.9052 42.1693 17.9807 42.2036 17.9807C42.2448 17.9807 42.2722 18.0218 42.2722 18.063C42.2722 18.1111 42.3477 18.2209 42.4438 18.3101C42.5879 18.4473 42.6634 18.4679 43.0752 18.4473L43.5419 18.4268L43.5762 16.9513C43.6173 15.2562 43.6517 15.3522 42.9791 15.3385C42.485 15.3248 42.4781 15.3317 42.4781 16.0591V16.5052L42.2722 16.265C42.1624 16.1346 41.9977 15.9424 41.9017 15.8395C41.8124 15.7366 41.7164 15.5924 41.6889 15.5169C41.6683 15.4415 41.5654 15.366 41.4624 15.3522C41.1056 15.2836 40.632 15.3179 40.5566 15.4071ZM41.7232 17.3356C41.7232 17.3905 41.6752 17.4317 41.6203 17.4317C41.5036 17.4317 41.4968 17.4179 41.5585 17.2669C41.6066 17.1434 41.7232 17.1846 41.7232 17.3356Z" fill="#25B556"/>
<path d="M43.886 15.49C43.8242 15.586 43.8105 15.6547 43.8517 15.6821C43.8928 15.7096 43.9203 16.2655 43.9203 17.089V18.4547L44.9223 18.4753C45.533 18.489 45.9448 18.4684 45.9791 18.4272C46.0615 18.3243 46.034 17.3566 45.9517 17.3909C45.9105 17.4047 45.883 17.4458 45.8899 17.487C45.9036 17.5351 45.7526 17.5625 45.4713 17.5556C45.1762 17.5488 45.0389 17.5213 45.0595 17.4733C45.0732 17.4321 45.2173 17.3978 45.3821 17.3978C45.7664 17.4115 45.8419 17.3772 45.8419 17.1919C45.8419 17.1027 45.883 17.0204 45.9311 16.9998C45.9928 16.9792 45.9928 16.938 45.9311 16.8076C45.8899 16.7184 45.835 16.588 45.8144 16.5262C45.787 16.437 45.7183 16.4164 45.4713 16.437C45.2997 16.4507 45.1419 16.437 45.1213 16.3958C45.0938 16.3615 45.2379 16.3341 45.4575 16.3341C45.6703 16.3341 45.8419 16.2998 45.8419 16.2655C45.8419 16.2243 45.8899 16.1968 45.9448 16.1968C46.0272 16.1968 46.034 16.1213 46.0066 15.8056C45.986 15.586 45.9517 15.3939 45.9379 15.3733C45.9173 15.3596 45.4713 15.339 44.9428 15.339C44.0301 15.339 43.9752 15.3458 43.886 15.49Z" fill="#25B556"/>
<path d="M36.5795 15.5518C36.5795 15.6273 36.6001 15.6479 36.6206 15.593C36.6412 15.545 36.6344 15.4832 36.6138 15.4626C36.5932 15.4352 36.5726 15.4763 36.5795 15.5518Z" fill="#25B556"/>
<path d="M45.9062 16.3408C45.9062 16.3751 45.9406 16.3888 45.9749 16.3683C46.0161 16.3477 46.0435 16.3134 46.0435 16.2928C46.0435 16.279 46.0161 16.2653 45.9749 16.2653C45.9406 16.2653 45.9062 16.2996 45.9062 16.3408Z" fill="#25B556"/>
</svg>
