<svg width="41" height="41" viewBox="0 0 41 41" fill="none" xmlns="http://www.w3.org/2000/svg">
<path d="M12.6875 4.70685C12.6875 5.79471 12.693 5.84391 12.7968 5.87671C12.939 5.92045 16.8476 5.94778 17.1046 5.90951C17.3068 5.87671 17.3068 5.87671 17.3396 5.54871C17.356 5.36831 17.356 4.84898 17.3451 4.38978L17.3178 3.56431L15.0054 3.56978L12.6875 3.57525V4.70685Z" fill="#25B556"/>
<path d="M14.9178 6.33037L12.6874 6.34131V6.47797C12.6874 6.54904 12.66 6.62557 12.6272 6.64197C12.5616 6.68571 12.578 7.11757 12.6491 7.16677C12.6764 7.18317 12.7038 7.30344 12.7147 7.43464C12.7202 7.56037 12.753 7.68064 12.7803 7.70251C12.8131 7.71891 12.8514 7.80091 12.8732 7.88291C12.8896 7.97037 12.9334 8.03597 12.9607 8.03597C12.9935 8.03597 13.0154 8.06877 13.0154 8.10704C13.0154 8.23824 13.5183 8.80131 13.6386 8.80131C13.6604 8.80131 13.737 8.86144 13.819 8.93251C13.9064 9.01451 14.0486 9.07464 14.2016 9.09104C14.3383 9.10744 14.4695 9.15117 14.4968 9.18944C14.5515 9.28237 15.4316 9.28784 15.541 9.20037C15.5792 9.16757 15.7214 9.12384 15.858 9.10197C15.9947 9.08011 16.115 9.04184 16.1204 9.01451C16.1314 8.98717 16.1751 8.96531 16.2134 8.96531C16.2571 8.96531 16.3118 8.93251 16.3336 8.89424C16.3555 8.85597 16.4703 8.76851 16.5796 8.69197C16.6944 8.61544 16.7874 8.53891 16.7874 8.51704C16.7874 8.49517 16.8202 8.44597 16.8584 8.40771C16.9951 8.26011 17.17 7.98131 17.17 7.91571C17.17 7.87744 17.2083 7.79544 17.252 7.74077C17.2958 7.68064 17.334 7.58771 17.334 7.52757C17.334 7.47291 17.3559 7.44011 17.3832 7.45651C17.4106 7.47291 17.4324 7.25424 17.4379 6.96997C17.4434 6.63651 17.427 6.45064 17.3887 6.45064C17.3614 6.45064 17.334 6.41784 17.334 6.37957C17.334 6.34131 17.2903 6.30851 17.2411 6.31397C17.1864 6.31397 16.1423 6.31944 14.9178 6.33037Z" fill="#25B556"/>
<path d="M29.7589 9.76853C29.6878 9.77947 29.6331 9.81773 29.6331 9.84507C29.6331 9.8724 29.5621 9.89427 29.4746 9.89427C29.3871 9.89427 29.2887 9.93253 29.2505 9.97627C29.2122 10.02 29.1466 10.0583 29.1029 10.0583C28.9881 10.0583 28.3266 10.758 28.2829 10.9275C28.2665 11.004 28.2173 11.1024 28.1735 11.1407C28.1298 11.1844 28.1025 11.3429 28.1025 11.5343C28.1025 11.7092 28.0806 11.8732 28.0478 11.8896C27.9877 11.9279 27.9986 12.1903 28.0587 12.1903C28.0806 12.1903 28.1025 12.3215 28.1025 12.4855C28.1025 12.6768 28.1298 12.8135 28.1845 12.8681C28.2774 12.9556 28.2938 13.0321 28.2118 12.9829C28.097 12.9119 28.3649 13.3164 28.5671 13.5187C28.6874 13.6389 28.7858 13.7592 28.7858 13.792C28.7858 13.8193 28.8295 13.8521 28.8787 13.8631C28.9334 13.8685 29.0154 13.9123 29.0646 13.9615C29.1083 14.0107 29.1849 14.0489 29.2286 14.0489C29.2723 14.0489 29.3051 14.0708 29.3051 14.0981C29.3051 14.1255 29.4145 14.1637 29.5511 14.1801C29.6878 14.202 29.7971 14.2403 29.7971 14.2731C29.7971 14.3004 30.0322 14.3223 30.3219 14.3223C30.6117 14.3223 30.8303 14.3004 30.8139 14.2731C30.7975 14.2457 30.8686 14.2075 30.9779 14.1911C31.2403 14.1419 31.6503 13.9123 31.8253 13.7264C31.9018 13.6389 32.0166 13.5405 32.0822 13.5077C32.1478 13.4749 32.2189 13.382 32.2353 13.3109C32.2517 13.2344 32.2899 13.1907 32.3173 13.2071C32.3446 13.2235 32.3665 13.218 32.361 13.1907C32.3446 13.1251 32.4211 12.8408 32.4922 12.6877C32.5797 12.5128 32.5687 11.2992 32.4813 11.2719C32.4485 11.2609 32.4211 11.1953 32.4211 11.1243C32.4211 11.0532 32.3829 10.9603 32.3391 10.9111C32.2954 10.8673 32.2571 10.8127 32.2571 10.7853C32.2571 10.758 32.2079 10.6979 32.1478 10.6432C32.0877 10.594 32.0385 10.512 32.0385 10.4683C32.0385 10.4245 32.0221 10.3917 31.9947 10.3972C31.9729 10.4081 31.8799 10.348 31.7925 10.2605C31.6995 10.1785 31.5847 10.0965 31.5355 10.0801C31.4809 10.0637 31.4371 10.0309 31.4371 10.0036C31.4371 9.97627 31.3497 9.938 31.2458 9.91613C31.1255 9.89427 31.0709 9.86147 31.0927 9.81773C31.1146 9.78493 31.0927 9.78493 31.0435 9.82867C30.9725 9.88333 30.9506 9.88333 30.9342 9.82867C30.9069 9.7576 30.0213 9.7084 29.7589 9.76853Z" fill="#25B556"/>
<path d="M11.2593 10.3258C11.303 10.3586 11.2265 10.3859 11.0242 10.4078C10.8548 10.4297 10.7181 10.4679 10.7181 10.4953C10.7181 10.5171 10.658 10.5554 10.5869 10.5718C10.4229 10.6101 9.8981 11.1021 9.8981 11.2169C9.8981 11.2606 9.85984 11.3317 9.8161 11.3699C9.77237 11.4082 9.7341 11.4957 9.7341 11.5613C9.7341 11.6323 9.71224 11.6979 9.6849 11.7089C9.61384 11.7307 9.61384 11.8018 9.6193 15.6722L9.62477 19.0779H10.576H11.5272L11.56 18.9358C11.5818 18.8538 11.5928 17.7441 11.5873 16.4594C11.5764 15.1802 11.5928 14.0759 11.6146 14.0049C11.6638 13.8518 11.8442 13.8463 11.8934 13.9939C11.9153 14.0541 11.9536 14.0923 11.9809 14.0759C12.0082 14.0541 12.0301 15.0271 12.0301 16.5633V19.0779L14.8072 19.067L17.5788 19.0506L17.5897 16.5906C17.6006 14.8303 17.6225 14.0978 17.6717 14.0049C17.7428 13.8627 17.9888 13.8354 17.9888 13.9721C17.9888 14.0158 18.0161 14.0377 18.0434 14.0213C18.0817 13.9994 18.0981 14.8467 18.0981 16.525V19.0615L18.6229 19.0998C18.9126 19.1217 19.3336 19.1217 19.5522 19.0998L19.9568 19.0615V18.7718C19.9568 18.6078 19.9841 18.4766 20.0114 18.4766C20.0442 18.4766 20.0661 18.4165 20.0661 18.3399C20.0661 18.2634 20.0442 18.2033 20.0114 18.2033C19.9786 18.2033 19.9568 16.9623 19.9458 14.8303C19.9349 12.1954 19.913 11.4574 19.8638 11.4355C19.8256 11.4246 19.7928 11.3863 19.7928 11.3481C19.7928 11.3043 19.7436 11.2114 19.678 11.1294C19.6178 11.0529 19.5796 10.9873 19.6014 10.9873C19.6561 10.9873 19.3554 10.7467 19.1094 10.5937C18.8306 10.4242 18.0653 10.2602 17.9286 10.3477C17.874 10.3805 17.8193 10.457 17.8029 10.5117C17.792 10.5663 17.7537 10.5991 17.7209 10.5827C17.6936 10.5663 17.6553 10.621 17.6334 10.7085C17.617 10.7959 17.5624 10.8834 17.5186 10.8998C17.4749 10.9162 17.4421 10.9654 17.4421 11.0146C17.4421 11.0583 17.4038 11.0966 17.3546 11.0966C17.3109 11.0966 17.289 11.1239 17.3054 11.1513C17.3218 11.1841 17.3 11.2223 17.2562 11.2387C17.207 11.2551 17.1797 11.2934 17.1961 11.3153C17.207 11.3371 17.1578 11.4246 17.0758 11.5121C16.9938 11.5995 16.9337 11.6761 16.9392 11.687C16.9556 11.7034 16.7752 11.9822 16.6932 12.0697C16.6549 12.1079 16.6221 12.1681 16.6221 12.2009C16.6221 12.2282 16.562 12.3047 16.4854 12.3649C16.4089 12.425 16.3488 12.5179 16.3488 12.5781C16.3488 12.6327 16.3269 12.6819 16.305 12.6819C16.2777 12.6819 16.223 12.7475 16.1793 12.8295C16.1028 12.9717 15.977 13.1357 15.7912 13.3434C15.7365 13.3981 15.6818 13.5074 15.66 13.5839C15.6436 13.6605 15.5998 13.7206 15.5616 13.7206C15.5288 13.7206 15.496 13.7698 15.4905 13.8299C15.485 13.8901 15.4249 13.9939 15.3538 14.0595C15.2828 14.1306 15.2008 14.2345 15.168 14.2891C15.0368 14.5297 14.9329 14.5297 14.7033 14.2782C14.5885 14.147 14.4901 14.0049 14.4901 13.9611C14.4901 13.9174 14.4682 13.8846 14.4354 13.8846C14.4081 13.8846 14.3644 13.819 14.348 13.737C14.3261 13.655 14.2496 13.5347 14.1785 13.4691C14.1129 13.4035 14.0528 13.327 14.0528 13.2942C14.0528 13.2614 14.02 13.2122 13.9872 13.1903C13.9106 13.1411 13.8177 13.0045 13.7138 12.7913C13.6756 12.7147 13.5772 12.5835 13.4952 12.4961C13.4077 12.4031 13.2929 12.2282 13.2273 12.1025C13.1672 11.9767 13.0797 11.8565 13.036 11.8401C12.9922 11.8237 12.9321 11.7471 12.9048 11.6706C12.8774 11.5941 12.8282 11.5339 12.7954 11.5339C12.7681 11.5339 12.7408 11.4957 12.7408 11.4519C12.7408 11.4082 12.6916 11.3262 12.6314 11.277C12.5713 11.2223 12.5221 11.1403 12.5221 11.0911C12.5221 11.0474 12.451 10.9326 12.3581 10.8451C12.2706 10.7577 12.1941 10.6702 12.1941 10.6483C12.1941 10.5718 12.0082 10.3859 11.9372 10.3859C11.8989 10.3859 11.8661 10.3586 11.8661 10.3313C11.8661 10.2602 11.5764 10.2602 11.4998 10.3367C11.4561 10.3805 11.4288 10.3805 11.4069 10.3367C11.385 10.3039 11.3249 10.2766 11.2757 10.2766C11.2046 10.2766 11.1992 10.2875 11.2593 10.3258ZM15.0969 15.3606C15.1242 15.3606 15.1461 15.4317 15.1461 15.5246C15.1461 15.6285 15.1188 15.6886 15.0696 15.6886C15.0258 15.6886 14.9766 15.7214 14.9602 15.7542C14.9329 15.8089 14.922 15.8089 14.8946 15.7542C14.8782 15.7214 14.829 15.6886 14.7908 15.6886C14.7525 15.6886 14.7088 15.6558 14.6924 15.6175C14.665 15.5246 14.8837 15.3005 14.9712 15.3333C15.0149 15.3497 15.0696 15.3606 15.0969 15.3606ZM15.1461 16.7819C15.1461 16.9459 15.0969 16.9787 14.8454 16.9514C14.7142 16.9405 14.6596 16.8585 14.6924 16.7218C14.7142 16.6398 14.7744 16.6179 14.9329 16.6179C15.1352 16.6179 15.1461 16.6289 15.1461 16.7819ZM15.1352 17.9682C15.1461 18.0994 15.1297 18.1486 15.0696 18.1486C15.0258 18.1486 14.9821 18.1759 14.9712 18.2142C14.9548 18.2525 14.9001 18.2306 14.8181 18.1486C14.7142 18.0447 14.7033 18.0065 14.758 17.9135C14.8126 17.8315 14.8126 17.8206 14.758 17.8479C14.7142 17.8753 14.7033 17.8698 14.7306 17.8261C14.758 17.7878 14.8509 17.7659 14.9438 17.7769C15.0969 17.7933 15.1188 17.8151 15.1352 17.9682Z" fill="#25B556"/>
<path d="M12.7281 10.3482C12.5641 10.4138 12.5259 10.5724 12.6571 10.627C12.7008 10.6434 12.7391 10.6872 12.7391 10.7254C12.7391 10.7637 12.7937 10.8566 12.8648 10.9332C12.9359 11.0097 13.0069 11.1136 13.0288 11.1628C13.0452 11.2174 13.0889 11.2612 13.1163 11.2612C13.1436 11.2612 13.1819 11.3377 13.2037 11.4252C13.2256 11.5181 13.2639 11.5782 13.2912 11.5564C13.3185 11.54 13.3404 11.5673 13.3404 11.6165C13.3404 11.6602 13.3787 11.7149 13.4224 11.7313C13.4661 11.7532 13.5044 11.7969 13.5044 11.8352C13.5044 11.868 13.5591 11.9664 13.6301 12.0429C13.9089 12.3654 13.9964 12.4748 13.9964 12.524C13.9964 12.6224 14.1932 12.5732 14.2697 12.4474C14.3517 12.3272 14.3627 12.2944 14.3736 12.1194C14.3736 12.0648 14.4064 12.0374 14.4337 12.0538C14.4665 12.0757 14.4884 12.0702 14.4775 12.0429C14.4556 11.95 14.554 11.5345 14.6032 11.5345C14.6305 11.5345 14.6524 11.458 14.6524 11.3705C14.6524 11.2776 14.6305 11.2065 14.5977 11.2065C14.5704 11.2065 14.5321 11.1464 14.5103 11.0698C14.4939 10.9933 14.4556 10.9332 14.4283 10.9332C14.4009 10.9332 14.3791 10.9004 14.3791 10.8621C14.3791 10.791 14.3353 10.7254 14.062 10.4138C13.98 10.31 13.9035 10.299 13.4224 10.299C13.1217 10.2936 12.8101 10.3209 12.7281 10.3482Z" fill="#25B556"/>
<path d="M14.6562 10.4023C14.6562 10.5773 14.8257 10.8779 14.9241 10.8779C15.0826 10.8779 15.3122 10.3422 15.1646 10.3258C14.7492 10.2875 14.6562 10.3039 14.6562 10.4023Z" fill="#25B556"/>
<path d="M15.8438 10.3756C15.7618 10.4248 15.6798 10.5232 15.6634 10.5888C15.647 10.6599 15.6087 10.7146 15.5814 10.7146C15.5486 10.7146 15.5267 10.7474 15.5267 10.7911C15.5267 10.8348 15.4939 10.9059 15.4556 10.9442C15.2479 11.1628 15.1167 11.5346 15.2479 11.5346C15.2752 11.5346 15.3135 11.622 15.3299 11.7259C15.3518 11.8298 15.39 11.9172 15.4174 11.9172C15.4502 11.9172 15.472 11.9664 15.472 12.0266C15.472 12.2015 15.6907 12.5732 15.8 12.5732C15.8492 12.5732 15.964 12.4694 16.0515 12.3382C16.139 12.2124 16.2428 12.0867 16.2811 12.0648C16.3194 12.0375 16.3358 11.9992 16.3194 11.9664C16.2975 11.9391 16.3139 11.9172 16.3467 11.9172C16.3795 11.9172 16.4342 11.8407 16.4615 11.7532C16.4943 11.6603 16.5435 11.5892 16.5708 11.5892C16.5982 11.5892 16.62 11.5564 16.62 11.5182C16.62 11.4799 16.6692 11.4088 16.7294 11.3542C16.7895 11.305 16.8387 11.223 16.8387 11.1792C16.8387 11.1355 16.877 11.0972 16.9207 11.0972C16.9644 11.0972 16.9972 11.0808 16.9972 11.0535C16.9808 10.9606 17.0027 10.8786 17.0464 10.8895C17.0683 10.9004 17.0847 10.895 17.0847 10.8786C17.0847 10.8622 17.1448 10.7583 17.2104 10.649C17.3963 10.3483 17.3252 10.3046 16.5927 10.2936C16.1116 10.2827 15.964 10.2991 15.8438 10.3756Z" fill="#25B556"/>
<path d="M14.7991 12.1518C14.7554 12.2174 14.7007 12.3595 14.6788 12.4634C14.657 12.5673 14.6132 12.6711 14.5804 12.693C14.5476 12.7094 14.5148 12.857 14.4984 13.021C14.482 13.267 14.493 13.3271 14.5914 13.4146C14.657 13.4747 14.7062 13.5677 14.7062 13.6223C14.7062 13.6825 14.7335 13.7098 14.7608 13.6934C14.7936 13.677 14.8319 13.6989 14.8483 13.7426C14.8647 13.7918 14.903 13.8301 14.9303 13.8301C15.0178 13.8301 15.302 13.5075 15.3403 13.3709C15.3567 13.2943 15.395 13.2287 15.4223 13.2287C15.4496 13.2287 15.4715 13.1795 15.4715 13.1194C15.4715 13.0593 15.4496 13.0101 15.4223 13.0101C15.395 13.0101 15.3567 12.9226 15.3403 12.8187C15.3184 12.7149 15.2692 12.5673 15.2255 12.4853C15.1818 12.4033 15.1599 12.3158 15.1763 12.2885C15.1927 12.2666 15.1654 12.2283 15.1216 12.2119C15.0724 12.1955 15.0342 12.1463 15.0342 12.1026C15.0342 11.9823 14.892 12.0151 14.7991 12.1518Z" fill="#25B556"/>
<path d="M27.1593 15.4157C27.1538 15.4431 27.0335 15.4759 26.9023 15.4923C26.7711 15.5032 26.6509 15.536 26.629 15.5633C26.6126 15.5961 26.5415 15.6344 26.4759 15.6563C26.4049 15.6781 26.3502 15.7219 26.3502 15.7492C26.3502 15.7765 26.301 15.7984 26.2409 15.7984C26.1807 15.7984 26.1315 15.8312 26.1315 15.8695C26.1315 15.9132 26.0714 15.9733 25.9949 16.0061C25.9183 16.0389 25.8582 16.1045 25.8582 16.1428C25.8582 16.1865 25.809 16.274 25.7489 16.3451C25.6887 16.4161 25.6395 16.5036 25.6395 16.5473C25.6395 16.5856 25.6177 16.6184 25.5903 16.6184C25.563 16.6184 25.5247 16.6895 25.5029 16.7824C25.481 16.8699 25.4427 16.9464 25.4154 16.9464C25.3881 16.9464 25.3662 16.9901 25.3662 17.0393C25.3662 17.094 25.2951 17.2744 25.2077 17.4439C25.1257 17.6133 25.0382 17.8211 25.0163 17.9031C24.9945 17.9851 24.9398 18.0889 24.9015 18.1327C24.8578 18.1764 24.8195 18.2584 24.8195 18.3185C24.8195 18.3787 24.7977 18.4169 24.7703 18.4005C24.743 18.3841 24.7047 18.4552 24.6883 18.5591C24.6665 18.6629 24.6282 18.7504 24.6009 18.7504C24.5681 18.7504 24.5462 18.7887 24.5462 18.8324C24.5462 18.8761 24.497 19.0073 24.4369 19.1167C24.3767 19.2315 24.3275 19.3627 24.3275 19.4173C24.3275 19.4665 24.3111 19.5157 24.2893 19.5267C24.2291 19.5485 24.0651 19.8929 24.0214 20.0733C24.005 20.1608 23.9667 20.2264 23.9449 20.2264C23.923 20.2264 23.8847 20.292 23.8629 20.374C23.8465 20.456 23.8082 20.538 23.7918 20.5544C23.7317 20.5981 23.5075 21.0956 23.5075 21.1831C23.5075 21.2268 23.4857 21.2651 23.4529 21.2651C23.4255 21.2651 23.3982 21.2869 23.3982 21.3197C23.3982 21.4345 23.1577 21.9156 23.1139 21.8883C23.0866 21.8719 23.0702 21.8773 23.0811 21.9047C23.0975 21.9703 23.0101 22.3256 22.9663 22.3584C22.8953 22.4131 22.7313 22.6973 22.7914 22.6645C22.8242 22.6427 22.8515 22.6536 22.8515 22.6809C22.8515 22.7137 22.8297 22.7411 22.7969 22.7411C22.7695 22.7411 22.7422 22.8395 22.7422 22.9543C22.7422 23.0745 22.7695 23.1893 22.7969 23.2057C22.8297 23.2221 22.8515 23.2932 22.8515 23.3588C22.8515 23.4955 23.0702 23.7251 23.1959 23.7251C23.2397 23.7251 23.2889 23.7579 23.3053 23.7907C23.3326 23.8781 23.9886 23.8891 24.0433 23.8016C24.0651 23.7688 24.1307 23.7251 24.1909 23.7032C24.3057 23.6704 24.5462 23.3533 24.5681 23.2112C24.5735 23.162 24.6118 23.0909 24.6446 23.0581C24.6829 23.0199 24.7102 22.9652 24.7102 22.9324C24.7102 22.8613 24.9999 22.2819 25.0874 22.1725C25.1202 22.1288 25.1639 22.0413 25.1749 21.9703C25.1913 21.9047 25.2186 21.8336 25.2459 21.8172C25.2733 21.8008 25.3115 21.7133 25.3334 21.6204C25.3553 21.5329 25.4045 21.44 25.4373 21.4181C25.4701 21.4017 25.5029 21.3252 25.5138 21.2596C25.5247 21.1885 25.563 21.1175 25.5958 21.0956C25.6341 21.0737 25.6669 20.9863 25.6833 20.8988C25.6942 20.8168 25.7653 20.6747 25.8473 20.5872C25.9293 20.4997 25.9566 20.4505 25.9129 20.4724C25.8691 20.4997 25.9019 20.4287 25.9894 20.3084C26.0769 20.1936 26.1261 20.1171 26.0878 20.1389C26.055 20.1553 26.0987 20.0296 26.1862 19.8601C26.2791 19.6852 26.3502 19.5103 26.3502 19.472C26.3502 19.4337 26.3721 19.4119 26.3994 19.4283C26.4267 19.4447 26.465 19.3736 26.4814 19.2697C26.5033 19.1604 26.5415 19.0893 26.5743 19.1057C26.6017 19.1276 26.6235 19.1221 26.6181 19.0948C26.5962 19.0073 26.6946 18.7231 26.7985 18.5755C26.8695 18.4716 26.9406 18.4279 27.0226 18.4443L27.1429 18.4607L27.1593 26.8684C27.1647 31.4987 27.1921 35.2925 27.2194 35.3089C27.2413 35.3308 27.2741 35.4456 27.2905 35.5713C27.3069 35.6971 27.3725 35.8556 27.4381 35.9212C27.4982 35.9868 27.531 36.0688 27.5146 36.1016C27.4982 36.1344 27.4982 36.1453 27.5255 36.1235C27.5474 36.1016 27.6403 36.1453 27.7278 36.2164C27.8153 36.2929 27.9355 36.3531 27.9902 36.3531C28.0449 36.3531 28.0995 36.3859 28.1159 36.4187C28.1433 36.5171 29.0398 36.5171 29.0726 36.4187C29.0835 36.3859 29.1163 36.3531 29.1437 36.3531C29.1765 36.3531 29.1819 36.3859 29.1601 36.4187C29.1382 36.4569 29.171 36.446 29.2311 36.3913C29.2913 36.3421 29.3569 36.3148 29.3733 36.3367C29.3951 36.3531 29.4115 36.3421 29.4115 36.3093C29.4115 36.2437 29.6685 35.9704 29.7286 35.9704C29.7505 35.9704 29.7723 35.9212 29.7778 35.8611C29.7833 35.8009 29.827 35.7135 29.8707 35.6643C29.9473 35.5932 29.9527 34.9427 29.9582 30.0008C29.9582 25.6275 29.9746 24.4029 30.0293 24.3701C30.1167 24.31 30.3299 24.3155 30.3627 24.3756C30.3791 24.4029 30.3955 26.9449 30.3955 30.0281C30.3955 35.4948 30.401 35.6315 30.5049 35.7681C30.565 35.8392 30.5923 35.9157 30.5759 35.9376C30.5595 35.954 30.5814 35.9704 30.6306 35.9704C30.6853 35.9704 30.7235 35.9923 30.7235 36.0141C30.7235 36.1071 30.9477 36.3203 31.0625 36.3367C31.1281 36.3476 31.2046 36.3859 31.2265 36.4241C31.2811 36.5171 32.2105 36.5171 32.2433 36.4187C32.2542 36.3859 32.3143 36.3531 32.3745 36.3531C32.5111 36.3531 33.0523 35.8173 33.0305 35.708C33.0195 35.6697 33.0469 35.5823 33.0851 35.5167C33.1507 35.4183 33.1671 34.0188 33.1726 27.0324C33.1835 22.4349 33.2109 18.6465 33.2327 18.6247C33.2601 18.5973 33.3366 18.5864 33.4077 18.5973L33.5389 18.6137L33.5553 21.9976C33.5607 24.0039 33.5881 25.3979 33.6154 25.4197C33.6482 25.4361 33.6755 25.5127 33.6865 25.5892C33.7029 25.7095 33.8013 25.8243 34.0965 26.0757C34.1347 26.1031 34.3425 26.1304 34.5666 26.1304C34.9493 26.1304 34.9766 26.1249 35.0969 25.9664C35.1679 25.8735 35.2499 25.8024 35.2827 25.8024C35.321 25.8024 35.3538 25.7368 35.3593 25.6493C35.3647 25.5673 35.3921 25.4963 35.4139 25.4853C35.4577 25.4744 35.4577 17.2307 35.4085 17.1104C35.3921 17.0667 35.3647 16.93 35.3429 16.8097C35.3101 16.6239 35.1297 16.3287 34.8946 16.0827C34.8563 16.0444 34.8235 15.9733 34.8235 15.9296C34.8235 15.8859 34.7907 15.8531 34.747 15.8531C34.7033 15.8531 34.6322 15.8203 34.5939 15.7765C34.5502 15.7383 34.4573 15.6836 34.3862 15.6617C34.3151 15.6399 34.2222 15.5852 34.1785 15.5469C34.1402 15.5032 34.0199 15.4704 33.9215 15.4704C33.8177 15.4704 33.7193 15.4431 33.7029 15.4157C33.6591 15.3392 27.1866 15.3392 27.1593 15.4157Z" fill="#25B556"/>
<path d="M5.58373 19.587C5.54 19.669 5.5236 19.8549 5.53453 20.0681L5.55093 20.4179L11.9087 20.4343C17.5065 20.4453 18.2609 20.4562 18.2609 20.5273C18.2609 20.571 18.2992 20.6093 18.3429 20.6093C18.4468 20.6093 18.4468 20.7569 18.3484 20.8607C18.2773 20.9263 17.3535 20.9373 11.9524 20.9373C6.96133 20.9373 5.63293 20.9537 5.59466 21.0029C5.5728 21.0411 5.55093 24.3321 5.55093 28.3173C5.55093 33.8058 5.56733 35.577 5.61653 35.6317C5.66573 35.6809 6.96133 35.6973 11.7228 35.6973H17.7635L17.7361 33.1662C17.7197 31.7777 17.7252 29.7987 17.7471 28.771C17.7799 27.049 17.7908 26.885 17.8837 26.7811C17.9439 26.7155 17.9876 26.639 17.9876 26.6117C17.9876 26.5515 18.1953 26.3493 18.2555 26.3493C18.2828 26.3493 18.3484 26.311 18.3921 26.2673C18.5015 26.1579 18.6983 26.1361 19.7533 26.1361L20.6116 26.1306V25.3106V24.4906H20.2016C19.6604 24.4906 19.4253 24.3157 19.6604 24.0861C19.7315 24.0095 19.9501 23.9986 21.1856 23.9986C22.2407 23.9986 22.6397 23.9822 22.6671 23.933C22.6889 23.9002 22.678 23.8565 22.6452 23.8455C22.6069 23.8346 22.5796 23.7963 22.5796 23.7635C22.5796 23.7307 22.5359 23.6597 22.4867 23.5995C22.3445 23.4465 22.3445 22.4734 22.4867 22.3367C22.5359 22.2821 22.5796 22.2055 22.5796 22.1618C22.5796 22.1181 22.6015 22.0853 22.6288 22.0853C22.6561 22.0853 22.6999 22.0033 22.7163 21.9049C22.7381 21.8119 22.7709 21.719 22.7928 21.7026C22.8529 21.6534 23.0443 21.2489 23.0443 21.1614C23.0443 21.1122 23.0716 21.0794 23.1044 21.0849C23.1372 21.0903 23.1809 20.9974 23.1973 20.8717C23.2137 20.7514 23.2575 20.6311 23.2957 20.6038C23.334 20.5819 23.3723 20.5054 23.3832 20.4398C23.3941 20.3687 23.4269 20.2977 23.4488 20.2813C23.4761 20.2649 23.5144 20.1883 23.5363 20.1063C23.5581 20.0243 23.6019 19.9478 23.6401 19.9369C23.6839 19.9205 23.7112 19.8221 23.7057 19.6963L23.7003 19.4886L14.6748 19.4722L5.64933 19.4613L5.58373 19.587ZM22.3883 20.5546C22.4101 20.6147 22.4484 20.653 22.4757 20.6366C22.5031 20.6147 22.5249 20.6639 22.5249 20.735C22.5249 20.8279 22.4867 20.8826 22.4047 20.9045C22.3336 20.9209 21.5956 20.9373 20.7647 20.9373C19.4472 20.9373 19.2449 20.9263 19.2449 20.8553C19.2449 20.8115 19.2231 20.7733 19.1903 20.7733C19.1629 20.7733 19.1356 20.7241 19.1356 20.6639C19.1356 20.6038 19.1739 20.5546 19.2176 20.5546C19.2613 20.5546 19.2996 20.5273 19.2996 20.4999C19.2996 20.4671 19.8463 20.4453 20.8248 20.4453C22.3117 20.4453 22.3555 20.4507 22.3883 20.5546Z" fill="#25B556"/>
<path d="M23.7786 24.4356C23.7786 24.4684 23.5982 24.4903 23.3412 24.4903H22.8984L22.9148 25.2939L22.9312 26.1029L23.3959 26.1193L23.8606 26.1357L23.9316 25.9717C24.03 25.7531 24.0082 24.5504 23.9098 24.452C23.8278 24.3645 23.7786 24.3591 23.7786 24.4356Z" fill="#25B556"/>
<path d="M21.1125 25.3099L21.118 26.1299H21.7685H22.419V25.9112C22.419 25.7909 22.4464 25.6925 22.4737 25.6925C22.5065 25.6925 22.5284 25.5395 22.5284 25.3372C22.5284 25.1349 22.5065 24.9819 22.4737 24.9819C22.4464 24.9819 22.419 24.8725 22.419 24.7359V24.4899H21.763H21.1016L21.1125 25.3099Z" fill="#25B556"/>
<path d="M18.6951 26.568C18.6951 26.5953 18.6568 26.6226 18.6076 26.6226C18.4764 26.6226 18.2578 26.8522 18.2578 26.9889C18.2578 27.0545 18.2359 27.1256 18.2031 27.142C18.1703 27.1638 18.1484 27.6777 18.1484 28.5086C18.1484 29.3396 18.1703 29.8534 18.2031 29.8753C18.2359 29.8972 18.2578 30.3946 18.2578 31.1928C18.2578 32.0073 18.2359 32.472 18.2031 32.472C18.1703 32.472 18.1484 32.9749 18.1484 33.866C18.1484 34.757 18.1703 35.26 18.2031 35.26C18.2359 35.26 18.2578 35.3201 18.2578 35.3912C18.2578 35.5442 18.542 35.8613 18.6842 35.8668C18.7334 35.8668 18.9192 35.8668 19.0942 35.8613C19.2855 35.8558 19.4058 35.8777 19.4058 35.9105C19.4058 35.987 19.9907 35.9925 20.0344 35.916C20.0782 35.8394 22.5054 35.8394 22.5491 35.916C22.571 35.9488 22.8771 35.9706 23.2871 35.9706C23.6971 35.9706 24.0032 35.9488 24.0251 35.916C24.0415 35.8832 24.2 35.8613 24.375 35.8613C24.6592 35.8613 24.703 35.8449 24.8506 35.6864L25.0091 35.506L25.0255 31.3076C25.0419 26.5734 25.0583 26.8249 24.6374 26.6226C24.4242 26.5188 24.282 26.5133 21.5542 26.5133C19.6846 26.5133 18.6951 26.5297 18.6951 26.568ZM20.5428 31.1709C20.5538 33.4997 20.5428 33.8933 20.4772 33.8933C20.4335 33.8933 20.3898 33.9206 20.3788 33.9589C20.3624 33.9972 20.3132 33.9862 20.2367 33.9152L20.1164 33.8168V31.1545C20.1164 28.3064 20.1055 28.4212 20.3898 28.443L20.5264 28.454L20.5428 31.1709ZM23.0903 28.4594C23.1668 28.4868 23.1778 28.7765 23.1778 31.1545V33.8168L23.0575 33.9152C22.981 33.9862 22.9318 33.9972 22.9154 33.9589C22.9044 33.9206 22.8607 33.8933 22.817 33.8933C22.7514 33.8933 22.7404 33.4942 22.7404 31.2529C22.7404 29.2138 22.7568 28.5961 22.8115 28.5414C22.8662 28.4813 22.8607 28.4758 22.8006 28.5086C22.7514 28.536 22.735 28.5305 22.7623 28.4922C22.806 28.4212 22.9536 28.4048 23.0903 28.4594Z" fill="#25B556"/>
<path d="M20.4688 32.3074C20.4688 32.6245 20.4742 32.7502 20.4851 32.5917C20.4961 32.4386 20.4961 32.1762 20.4851 32.0177C20.4742 31.8646 20.4688 31.9903 20.4688 32.3074Z" fill="#25B556"/>
<path d="M19.193 36.2054C19.1165 36.2819 19.111 37.0636 19.1876 37.0636C19.2204 37.0636 19.2422 37.1128 19.2422 37.173C19.2422 37.2495 19.2914 37.2878 19.4336 37.3151C19.5374 37.3315 19.6249 37.3752 19.6249 37.4135C19.6249 37.4572 19.6358 37.4572 19.6686 37.4135C19.6905 37.3807 19.778 37.337 19.86 37.3151C20.0568 37.2659 20.1169 37.1019 20.1169 36.599V36.1944L19.8326 36.1726C19.4008 36.1343 19.2586 36.1398 19.193 36.2054Z" fill="#25B556"/>
<path d="M22.8516 36.6861C22.8516 37.2819 22.8789 37.3311 23.2452 37.3475C23.5185 37.3585 23.6661 37.2874 23.7044 37.1398C23.7208 37.0687 23.759 37.025 23.7864 37.0414C23.8137 37.0578 23.8356 37.0414 23.8356 37.0141C23.8356 36.9813 23.8082 36.9539 23.7754 36.9539C23.7481 36.9539 23.7372 36.9266 23.7536 36.8993C23.7754 36.8665 23.7754 36.6861 23.7536 36.5002L23.7153 36.1558L23.2834 36.1503L22.8516 36.1449V36.6861Z" fill="#25B556"/>
</svg>
