<svg width="50" height="50" viewBox="0 0 50 50" fill="none" xmlns="http://www.w3.org/2000/svg">
<path fill-rule="evenodd" clip-rule="evenodd" d="M6.31572 20.6265L15.505 12.5839C15.3776 12.2361 15.3082 11.8605 15.3082 11.4686C15.3082 9.67675 16.7607 8.22431 18.5524 8.22431C20.31 8.22431 21.7409 9.62177 21.7951 11.3661L29.058 13.9089C29.653 13.2104 30.539 12.7673 31.5284 12.7673C32.0867 12.7673 32.612 12.9083 33.0707 13.1567L41.4437 6.00283C41.3249 5.66552 41.2601 5.30283 41.2601 4.9249C41.2601 3.1332 42.7126 1.68066 44.5043 1.68066C46.2962 1.68066 47.7487 3.1332 47.7487 4.9249C47.7487 6.71679 46.2962 8.16933 44.5043 8.16933C43.9461 8.16933 43.4207 8.02832 42.9621 7.77998L34.5892 14.9338C34.7079 15.2711 34.7728 15.6338 34.7728 16.0117C34.7728 17.8034 33.3202 19.256 31.5283 19.256C29.7709 19.256 28.34 17.8585 28.2858 16.1143L21.0229 13.5715C20.4278 14.27 19.542 14.7131 18.5524 14.7131C18.0076 14.7131 17.4943 14.5786 17.0436 14.3413L7.8543 22.3839C7.98164 22.7317 8.05107 23.1073 8.05107 23.4992C8.05107 25.2911 6.59854 26.7435 4.80664 26.7435C3.01504 26.7433 1.5625 25.2909 1.5625 23.499C1.5625 21.7071 3.01504 20.2548 4.80674 20.2548C5.35156 20.2548 5.86494 20.3892 6.31572 20.6265ZM42.0363 14.5763C41.2296 14.5763 40.5715 15.2343 40.5715 16.0411V45.9364C40.5715 46.7433 41.2296 47.4013 42.0363 47.4013H46.9727C47.7796 47.4013 48.4376 46.7433 48.4376 45.9364V16.0411C48.4376 15.2343 47.7797 14.5763 46.9727 14.5763H42.0363ZM29.0603 26.5226C28.2534 26.5226 27.5955 27.1806 27.5955 27.9874V46.2427C27.5955 47.0496 28.2535 47.7075 29.0603 47.7075H33.9968C34.8036 47.7075 35.4615 47.0495 35.4615 46.2427C35.4615 40.1577 35.4615 34.0726 35.4615 27.9874C35.4615 27.1806 34.8036 26.5226 33.9968 26.5226C32.3512 26.5226 30.7059 26.5226 29.0603 26.5226ZM16.0844 22.2338C15.2774 22.2338 14.6194 22.8918 14.6194 23.6986V46.5489C14.6194 47.3558 15.2773 48.0138 16.0844 48.0138H21.0207C21.8274 48.0138 22.4855 47.3558 22.4855 46.5489V23.6986C22.4855 22.8918 21.8274 22.2338 21.0207 22.2338H16.0844ZM3.1084 34.8429H8.04463C8.85146 34.8429 9.50957 35.5009 9.50957 36.3077V46.8551C9.50957 47.6619 8.85146 48.3199 8.04463 48.3199H3.1084C2.30156 48.3199 1.64346 47.6619 1.64346 46.8551V36.3077C1.64355 35.5008 2.30166 34.8429 3.1084 34.8429Z" fill="#25B556"/>
</svg>
