<svg width="50" height="50" viewBox="0 0 50 50" fill="none" xmlns="http://www.w3.org/2000/svg">
<path fill-rule="evenodd" clip-rule="evenodd" d="M21.5437 21.8599L23.2597 25.9871C23.438 26.4159 23.2551 26.9063 22.8422 27.1187L21.5538 27.7816C21.3237 27.9 21.081 27.915 20.838 27.8258C20.5951 27.7366 20.4207 27.5677 20.3209 27.3289L18.3881 22.7055L21.5437 21.8599ZM32.3431 34.2727L47.3535 47.2816C47.4222 47.0826 47.4613 46.8698 47.4613 46.6477V21.9626C47.4613 21.7415 47.4231 21.5305 47.3559 21.3333L32.3431 34.2727ZM25.0587 37.9723L45.8614 20.0427C45.7463 20.022 45.6293 20.0091 45.5081 20.0091H40.3193C40.3777 21.8465 39.163 23.5691 37.318 24.0635C35.6394 24.5133 33.8912 23.8305 32.9363 22.4553C30.06 21.3485 26.5937 21.0584 23.415 21.2735L25.0631 25.2373C25.6301 26.6011 25.0479 28.1804 23.7356 28.8556L22.4473 29.5185C21.7324 29.8862 20.9193 29.9363 20.1647 29.6593C19.4116 29.3827 18.8282 28.8223 18.5189 28.0823L16.4573 23.1508C13.9164 23.4416 11.4313 22.1737 10.1477 20.0091H4.49238C4.48867 20.0091 4.48545 20.0091 4.48174 20.0091L25.0587 37.9723ZM25.6926 40.0056L30.8478 35.5621L45.8559 48.5678C45.7435 48.5885 45.627 48.601 45.5081 48.601H4.49229C4.49043 48.601 4.48955 48.601 4.4877 48.601L19.3351 35.5677L24.4133 40.0006C24.5971 40.1618 24.8256 40.2415 25.055 40.2415C25.2826 40.2414 25.5088 40.1627 25.6926 40.0056ZM17.8509 34.2727L2.7501 47.5267C2.6165 47.2622 2.53906 46.9642 2.53906 46.6477V21.9626C2.53906 21.6479 2.61553 21.3522 2.74824 21.0883L17.8509 34.2727ZM41.2066 15.4567L44.276 16.2791C44.7669 16.4106 45.2717 16.1161 45.402 15.6256C45.5325 15.1344 45.2385 14.6304 44.7481 14.499L41.6788 13.6767C41.1879 13.5451 40.6831 13.8396 40.5528 14.3302C40.4222 14.8214 40.7162 15.3254 41.2066 15.4567ZM39.7288 6.3991L41.9757 4.15222C42.3347 3.79324 42.3373 3.20984 41.9786 2.84968C41.6204 2.49001 41.0361 2.48728 40.6767 2.84675L38.4298 5.09363C38.0708 5.45261 38.0682 6.03601 38.4269 6.39617C38.7851 6.75583 39.3693 6.75857 39.7288 6.3991ZM42.4268 10.5347L45.3364 9.75496C45.8304 9.62263 46.1234 9.11501 45.9911 8.62107C45.8588 8.12712 45.3512 7.83406 44.8572 7.96638L41.9475 8.74607C41.4535 8.87839 41.1604 9.38601 41.2928 9.87996C41.4252 10.3739 41.9328 10.667 42.4268 10.5347ZM36.7052 13.6596C36.8149 13.6455 36.9251 13.624 37.035 13.5945C38.3611 13.2392 39.1481 11.8761 38.7928 10.5499C38.4374 9.22371 37.0743 8.43679 35.7481 8.79206C35.6382 8.82156 35.532 8.85798 35.43 8.90066L33.8372 2.95622C33.5382 1.84021 32.3804 1.17175 31.2644 1.47078C30.2248 1.74929 29.5595 2.7824 29.7357 3.84382C27.7874 6.49109 24.4811 9.09187 20.4156 10.9753L22.6652 19.3709C27.1295 18.9736 31.2998 19.5902 34.3108 20.9087C34.6933 21.8922 35.7711 22.4557 36.8125 22.1767C37.924 21.8788 38.5958 20.7152 38.298 19.6038L36.7052 13.6596ZM20.8201 20.0317L16.8795 21.0876C14.4851 21.7292 12.0011 20.295 11.3595 17.9007C10.7179 15.5063 12.1521 13.0222 14.5465 12.3806L18.4871 11.3247C19.2647 14.227 20.0422 17.1294 20.8201 20.0317Z" fill="#25B556"/>
</svg>
