<svg width="50" height="50" viewBox="0 0 50 50" fill="none" xmlns="http://www.w3.org/2000/svg">
<g clip-path="url(#clip0_484_3926)">
<mask id="mask0_484_3926" style="mask-type:luminance" maskUnits="userSpaceOnUse" x="0" y="0" width="50" height="50">
<path d="M50 0H0V50H50V0Z" fill="white"/>
</mask>
<g mask="url(#mask0_484_3926)">
<path d="M24.9991 31.9053C28.8128 31.9053 31.9043 28.8137 31.9043 25C31.9043 21.1863 28.8128 18.0947 24.9991 18.0947C21.1854 18.0947 18.0938 21.1863 18.0938 25C18.0938 28.8137 21.1854 31.9053 24.9991 31.9053Z" fill="#25B556"/>
<path d="M43.2344 27.5811C42.6515 27.8528 42.1298 28.2402 41.7012 28.7197L34.5479 26.2881C34.3823 27.5268 33.9759 28.7211 33.3516 29.8037L40.5079 32.2363C40.5824 33.2464 40.9779 34.2063 41.6367 34.9756C42.2955 35.745 43.183 36.2836 44.1695 36.5127C45.1561 36.7419 46.1902 36.6496 47.1206 36.2494C48.051 35.8492 48.8291 35.1619 49.3413 34.2881C49.8534 33.4143 50.0727 32.3996 49.9672 31.3922C49.8617 30.3849 49.4369 29.4376 48.7548 28.6888C48.0728 27.9401 47.1692 27.429 46.176 27.2302C45.1828 27.0314 44.1521 27.1554 43.2344 27.584V27.5811Z" fill="#25B556"/>
<path d="M6.75697 12.8699C6.83022 12.8357 6.90248 12.7996 6.97279 12.7625L16.4845 20.4773C17.0732 19.3758 17.869 18.3983 18.8283 17.5984L9.30971 9.87968C9.60901 8.83751 9.54251 7.72428 9.12127 6.72515C8.70003 5.72602 7.94944 4.90121 6.99434 4.3879C6.03923 3.87459 4.93719 3.70372 3.87149 3.90372C2.8058 4.10371 1.84068 4.66251 1.13667 5.48718C0.432665 6.31185 0.0321903 7.35267 0.00185883 8.43655C-0.0284725 9.52042 0.313168 10.582 0.969957 11.4448C1.62674 12.3075 2.55909 12.9194 3.61194 13.1787C4.66478 13.438 5.77466 13.329 6.75697 12.8699Z" fill="#25B556"/>
<path d="M31.4678 38.499L29.7568 33.3818C28.6731 34.0004 27.4788 34.4008 26.2412 34.5605L27.9502 39.6748C27.8525 39.7471 27.7627 39.8213 27.6719 39.8994C26.652 40.7807 25.9739 41.992 25.7556 43.322C25.5374 44.6521 25.7929 46.0166 26.4777 47.1775C27.1625 48.3385 28.233 49.2222 29.5026 49.6747C30.7723 50.1272 32.1604 50.1197 33.4251 49.6535C34.6898 49.1873 35.7507 48.292 36.4228 47.1237C37.095 45.9554 37.3357 44.5882 37.1031 43.2606C36.8705 41.933 36.1793 40.7291 35.1499 39.8589C34.1206 38.9888 32.8185 38.5075 31.4707 38.499H31.4678Z" fill="#25B556"/>
<path d="M32.9951 19.6293L41.8496 10.7748C43.0544 11.3593 44.4274 11.4979 45.7247 11.1662C47.0221 10.8345 48.16 10.0539 48.9364 8.96294C49.7129 7.87193 50.0777 6.54111 49.9661 5.20668C49.8545 3.87225 49.2737 2.62051 48.3268 1.67363C47.3799 0.726741 46.1282 0.145961 44.7938 0.0343611C43.4593 -0.0772388 42.1285 0.287559 41.0375 1.06401C39.9465 1.84046 39.1659 2.97835 38.8342 4.27571C38.5025 5.57307 38.6411 6.94599 39.2256 8.15081L30.3672 17.0014C31.404 17.7002 32.2963 18.5925 32.9951 19.6293Z" fill="#25B556"/>
<path d="M17.0086 30.3877L7.2655 40.1631C6.16021 39.6731 4.91827 39.5856 3.75516 39.9156C2.59205 40.2456 1.58118 40.9724 0.897929 41.9698C0.214681 42.9673 -0.097824 44.1725 0.0146349 45.3762C0.127094 46.58 0.65742 47.7064 1.5136 48.5601C2.36978 49.4137 3.49778 49.9407 4.70189 50.0496C5.906 50.1584 7.11023 49.8423 8.10564 49.1561C9.10105 48.4699 9.82483 47.4569 10.1513 46.2928C10.4779 45.1287 10.3866 43.887 9.89343 42.7832L19.6375 33.0078C18.6012 32.3113 17.7086 31.4217 17.0086 30.3877Z" fill="#25B556"/>
</g>
</g>
<defs>
<clipPath id="clip0_484_3926">
<rect width="50" height="50" fill="white"/>
</clipPath>
</defs>
</svg>
