<svg width="50" height="50" viewBox="0 0 50 50" fill="none" xmlns="http://www.w3.org/2000/svg">
<path fill-rule="evenodd" clip-rule="evenodd" d="M34.1245 17.6873L29.5807 31.3248C29.3078 32.1415 29.7495 33.0269 30.5682 33.2998C31.387 33.5727 32.2724 33.1311 32.5453 32.3123L37.0891 18.6748C37.362 17.8582 36.9203 16.9727 36.1016 16.6998C35.2828 16.4269 34.3974 16.8686 34.1245 17.6873Z" fill="#25B556"/>
<path fill-rule="evenodd" clip-rule="evenodd" d="M38.0984 21.5608L41.538 25.0004L38.0984 28.44C37.488 29.0504 37.488 30.04 38.0984 30.6504C38.7088 31.2608 39.6984 31.2608 40.3088 30.6504L44.8526 26.1046C45.463 25.4942 45.463 24.5067 44.8526 23.8963L40.3088 19.3504C39.6984 18.74 38.7088 18.74 38.0984 19.3504C37.488 19.9608 37.488 20.9504 38.0984 21.5608Z" fill="#25B556"/>
<path fill-rule="evenodd" clip-rule="evenodd" d="M26.3609 19.3504L21.8172 23.8963C21.2068 24.5067 21.2068 25.4942 21.8172 26.1046L26.3609 30.6504C26.9713 31.2608 27.9609 31.2608 28.5713 30.6504C29.1818 30.04 29.1818 29.0504 28.5713 28.44L25.1318 25.0004L28.5713 21.5608C29.1818 20.9504 29.1818 19.9608 28.5713 19.3504C27.9609 18.74 26.9713 18.74 26.3609 19.3504Z" fill="#25B556"/>
<path fill-rule="evenodd" clip-rule="evenodd" d="M34.8958 31.842L34.5188 32.9712C33.8833 34.8795 31.8167 35.9128 29.9083 35.2774C28.8542 34.9253 28.0667 34.1399 27.6813 33.1837C26.6771 33.2441 25.6521 32.8899 24.8833 32.1232L20.3396 27.5774C18.9146 26.1545 18.9146 23.8462 20.3396 22.4232L24.8833 17.8774C26.3063 16.4545 28.6167 16.4545 30.0396 17.8774C30.6813 18.5191 31.0333 19.3399 31.0979 20.1795L32.1479 17.0295C32.5771 15.742 33.6542 14.8545 34.8958 14.6066V8.33365C34.8958 6.8149 34.2917 5.35657 33.2188 4.28157C32.1438 3.20865 30.6854 2.60449 29.1667 2.60449C24.075 2.60449 15.5083 2.60449 10.4167 2.60449C8.89792 2.60449 7.43958 3.20865 6.36458 4.28157C5.29167 5.35657 4.6875 6.8149 4.6875 8.33365V41.667C4.6875 43.1857 5.29167 44.6441 6.36458 45.7191C7.43958 46.792 8.89792 47.3962 10.4167 47.3962H29.1667C30.6854 47.3962 32.1438 46.792 33.2188 45.7191C34.2917 44.6441 34.8958 43.1857 34.8958 41.667V31.842ZM15.625 42.1878H23.9583C24.8208 42.1878 25.5208 41.4878 25.5208 40.6253C25.5208 39.7628 24.8208 39.0628 23.9583 39.0628H15.625C14.7625 39.0628 14.0625 39.7628 14.0625 40.6253C14.0625 41.4878 14.7625 42.1878 15.625 42.1878ZM28.125 5.72949H11.4583L12.7563 8.97324C13.2313 10.1607 14.3792 10.9378 15.6583 10.9378H23.925C25.2042 10.9378 26.3521 10.1607 26.8271 8.97324L28.125 5.72949Z" fill="#25B556"/>
</svg>
