<svg width="50" height="50" viewBox="0 0 50 50" fill="none" xmlns="http://www.w3.org/2000/svg">
<path fill-rule="evenodd" clip-rule="evenodd" d="M12.9961 33.0625L17.1099 40.1877C17.6892 41.1912 17.3422 42.4861 16.3388 43.0654C15.3354 43.6447 14.0405 43.2978 13.4611 42.2943L8.81191 34.2417C10.2071 33.8516 11.5976 33.4404 12.9961 33.0625ZM42.1225 25.6275C41.8897 25.4937 41.8094 25.1965 41.9432 24.9637C42.077 24.7309 42.3742 24.6506 42.607 24.7844L47.0863 27.3706C47.3191 27.5043 47.3994 27.8015 47.2656 28.0343C47.1318 28.2671 46.8346 28.3474 46.6018 28.2136L42.1225 25.6275ZM39.7287 14.0371C39.5949 14.2699 39.2977 14.3501 39.0649 14.2164C38.8321 14.0826 38.7518 13.7854 38.8856 13.5526L41.4717 9.07324C41.6055 8.84043 41.9027 8.76015 42.1355 8.89394C42.3683 9.02773 42.4486 9.3249 42.3148 9.55771L39.7287 14.0371ZM43.3251 19.3382C43.065 19.4078 42.7976 19.2532 42.7282 18.993C42.6587 18.7329 42.8132 18.4655 43.0734 18.396L48.0694 17.0574C48.3295 16.9878 48.5969 17.1424 48.6664 17.4026C48.7359 17.6627 48.5813 17.9301 48.3211 17.9996L43.3251 19.3382ZM29.3577 6.71787C28.3631 6.98437 27.7674 8.01601 28.0339 9.01054L34.9939 34.9857C35.2604 35.9802 36.292 36.5758 37.2866 36.3094C38.2811 36.0429 38.8767 35.0112 38.6103 34.0167L31.6503 8.0415C31.3839 7.04707 30.3522 6.45146 29.3577 6.71787ZM15.2407 31.4933L12.6733 21.9119C10.0981 22.7098 7.45762 23.2873 4.85293 23.9851C2.30127 24.6688 0.772953 27.3159 1.50283 30.0396C2.23271 32.7633 4.87969 34.2916 7.43135 33.6079C10.0362 32.9099 12.6114 32.0898 15.2407 31.4933ZM13.6027 21.6119C20.7302 19.214 25.3822 15.2045 27.7043 11.5535L33.4371 32.9483C29.6004 30.9475 23.5669 29.8012 16.1955 31.2883L13.6027 21.6119ZM35.2831 17.8256L37.7837 17.8478C38.0063 17.8498 38.1934 17.9947 38.251 18.2097L39.2427 21.9107C39.3003 22.1256 39.2108 22.3447 39.019 22.4578L36.8644 23.7272L35.2831 17.8256Z" fill="#25B556"/>
</svg>
