<svg width="50" height="50" viewBox="0 0 50 50" fill="none" xmlns="http://www.w3.org/2000/svg">
<path d="M48.6253 27.0088H31.2965C30.5392 27.0088 29.9219 27.6261 29.9219 28.3833C29.9219 28.7689 30.0858 29.1164 30.3414 29.367L42.5434 41.569C42.7941 41.8391 43.1561 42.0081 43.5517 42.0081C44.029 42.0081 44.4485 41.7669 44.6945 41.4004C47.6945 37.9181 49.6237 33.4955 49.9711 28.6291C49.9904 28.5472 50 28.4652 50 28.3831C50.0001 27.6261 49.3874 27.0088 48.6253 27.0088Z" fill="#25B556"/>
<path d="M26.065 2.09766C25.3077 2.10229 24.6953 2.715 24.6953 3.47217V22.7302C24.6953 23.4924 25.3077 24.1097 26.065 24.1097H45.328C46.0854 24.1097 46.7025 23.4924 46.7025 22.7302C46.0224 11.6473 37.1529 2.77782 26.065 2.09766Z" fill="#25B556"/>
<path d="M36.6498 40.4454L22.4414 26.2369C22.2004 25.9909 22.0557 25.6485 22.0557 25.2771L22.0507 5.2086C22.0507 4.45143 21.4383 3.83887 20.6809 3.83887C9.13958 4.5431 0 14.131 0 25.8463C0 38.0243 9.87283 47.9018 22.0507 47.9018C27.6067 47.9018 32.6805 45.8472 36.5582 42.4565C36.8573 42.2055 37.0454 41.8296 37.0454 41.4099C37.0454 41.0385 36.8957 40.696 36.6498 40.4454Z" fill="#25B556"/>
</svg>
